<svg width="216" height="64" viewBox="0 0 216 64" fill="none" xmlns="http://www.w3.org/2000/svg">
<path d="M208 0H8C3.58172 0 0 3.58172 0 8V56C0 60.4183 3.58172 64 8 64H208C212.418 64 216 60.4183 216 56V8C216 3.58172 212.418 0 208 0Z" fill="white"/>
<path d="M208 1.28C209.782 1.28 211.492 1.988 212.752 3.24824C214.012 4.50849 214.72 6.21775 214.72 8V56C214.72 57.7823 214.012 59.4915 212.752 60.7518C211.492 62.012 209.782 62.72 208 62.72H8C6.21775 62.72 4.50849 62.012 3.24824 60.7518C1.988 59.4915 1.28 57.7823 1.28 56V8C1.28 6.21775 1.988 4.50849 3.24824 3.24824C4.50849 1.988 6.21775 1.28 8 1.28H208ZM208 0H8C5.87827 0 3.84344 0.842855 2.34315 2.34315C0.842855 3.84344 0 5.87827 0 8V56C0 58.1217 0.842855 60.1566 2.34315 61.6569C3.84344 63.1571 5.87827 64 8 64H208C210.122 64 212.157 63.1571 213.657 61.6569C215.157 60.1566 216 58.1217 216 56V8C216 5.87827 215.157 3.84344 213.657 2.34315C212.157 0.842855 210.122 0 208 0Z" fill="black"/>
<path d="M41.6649 34.5718H21.93C20.5456 34.5718 19.4263 35.6911 19.4263 37.0754C19.4263 38.4598 20.5456 39.5791 21.93 39.5791H44.6693C44.6693 39.5791 45.8475 38.4009 44.5809 36.4863C43.2849 34.5718 41.6649 34.5718 41.6649 34.5718Z" fill="black"/>
<path d="M40.6634 13.5114L28.4101 34.719C27.7327 35.9267 28.1156 37.4584 29.3232 38.1358C30.5309 38.8133 32.0626 38.4304 32.74 37.2227L44.9933 16.0151C45.6708 14.8074 45.2879 13.2757 44.0802 12.5983C42.8726 11.8914 41.3409 12.3037 40.6634 13.5114Z" fill="black"/>
<path d="M55.656 43.8207L43.0787 21.9945C43.0787 21.9945 41.2524 23.4083 41.2524 26.2065C41.2524 29.0048 42.4012 30.8899 42.4012 30.8899L51.3261 46.3538C52.0035 47.5615 53.5352 47.9739 54.7429 47.2669C55.9211 46.56 56.3334 45.0283 55.656 43.8207Z" fill="black"/>
<path d="M56.9226 34.5718H49.9418C48.5574 34.5718 47.4381 35.6911 47.4381 37.0754C47.4381 38.4598 48.5574 39.5791 49.9418 39.5791H56.9226C58.307 39.5791 59.4263 38.4598 59.4263 37.0754C59.4263 35.7205 58.307 34.5718 56.9226 34.5718Z" fill="black"/>
<path d="M40.8107 18.1064L38.1598 13.482C37.4823 12.3037 35.9212 11.8914 34.743 12.5688C33.5648 13.2463 33.1524 14.8074 33.8299 15.9856L36.4808 20.6101C37.1583 21.7883 38.7194 22.2007 39.8976 21.5232C41.0758 20.8457 41.4882 19.3141 40.8107 18.1064Z" fill="black"/>
<path d="M23.1672 43.7913L24.7578 41.0519C24.7578 41.0519 25.1407 40.2861 26.6429 40.2861C28.2335 40.2861 29.7652 41.6116 29.883 42.1123L27.4971 46.2949C26.8196 47.5026 25.288 47.915 24.0803 47.208C22.8727 46.5306 22.4897 44.9989 23.1672 43.7913Z" fill="black"/>
<path d="M87.2317 48.7676H83.7695L81.8731 42.8083H75.2812L73.4746 48.7676H70.104L76.6349 28.4797H80.6687L87.2317 48.7676ZM81.3014 40.3082L79.5863 35.0106C79.4049 34.4694 79.065 33.1949 78.5634 31.1887H78.5024C78.3027 32.0515 77.981 33.326 77.5389 35.0106L75.8544 40.3082H81.3014V40.3082Z" fill="black"/>
<path d="M104.027 41.2732C104.027 43.7612 103.354 45.7277 102.01 47.1714C100.805 48.4566 99.3098 49.0984 97.5246 49.0984C95.5976 49.0984 94.2134 48.4063 93.3703 47.022H93.3094V54.7283H90.0592V38.9544C90.0592 37.3903 90.018 35.785 89.9387 34.1386H92.7971L92.9786 36.4573H93.0395C94.1234 34.7103 95.7684 33.8382 97.9758 33.8382C99.7016 33.8382 101.142 34.5197 102.295 35.8841C103.45 37.2501 104.027 39.0459 104.027 41.2732ZM100.715 41.3921C100.715 39.9682 100.395 38.7944 99.7519 37.8705C99.0491 36.907 98.1054 36.4253 96.9224 36.4253C96.1205 36.4253 95.3918 36.6936 94.7409 37.2226C94.0884 37.7562 93.6615 38.4529 93.4618 39.3157C93.3612 39.7182 93.3109 40.0475 93.3109 40.3067V42.7458C93.3109 43.8099 93.6371 44.7079 94.2896 45.4411C94.9421 46.1744 95.7897 46.5403 96.8325 46.5403C98.0566 46.5403 99.0094 46.0677 99.6909 45.1256C100.374 44.1819 100.715 42.9379 100.715 41.3921Z" fill="black"/>
<path d="M120.853 41.2732C120.853 43.7612 120.18 45.7277 118.834 47.1714C117.632 48.4566 116.136 49.0984 114.351 49.0984C112.424 49.0984 111.04 48.4063 110.198 47.022H110.137V54.7283H106.887V38.9544C106.887 37.3903 106.846 35.785 106.766 34.1386H109.625L109.806 36.4573H109.867C110.95 34.7103 112.595 33.8382 114.804 33.8382C116.528 33.8382 117.968 34.5197 119.124 35.8841C120.275 37.2501 120.853 39.0459 120.853 41.2732ZM117.542 41.3921C117.542 39.9682 117.22 38.7944 116.577 37.8705C115.874 36.907 114.933 36.4253 113.749 36.4253C112.945 36.4253 112.218 36.6936 111.566 37.2226C110.913 37.7562 110.488 38.4529 110.288 39.3157C110.189 39.7182 110.137 40.0475 110.137 40.3067V42.7458C110.137 43.8099 110.463 44.7079 111.113 45.4411C111.765 46.1729 112.613 46.5403 113.659 46.5403C114.883 46.5403 115.836 46.0677 116.517 45.1256C117.2 44.1819 117.542 42.9379 117.542 41.3921Z" fill="black"/>
<path d="M139.665 43.0783C139.665 44.804 139.066 46.208 137.863 47.2919C136.541 48.4765 134.701 49.068 132.337 49.068C130.154 49.068 128.404 48.6472 127.079 47.8042L127.832 45.0952C129.259 45.958 130.825 46.391 132.53 46.391C133.755 46.391 134.707 46.1135 135.392 45.5616C136.073 45.0098 136.413 44.2689 136.413 43.345C136.413 42.5218 136.133 41.8282 135.57 41.2656C135.011 40.7031 134.076 40.1802 132.771 39.6969C129.219 38.3722 127.445 36.4315 127.445 33.8795C127.445 32.2117 128.067 30.8442 129.312 29.7801C130.553 28.7145 132.209 28.1825 134.279 28.1825C136.125 28.1825 137.659 28.5041 138.883 29.1459L138.07 31.7955C136.927 31.1735 135.634 30.8625 134.188 30.8625C133.044 30.8625 132.151 31.1445 131.511 31.7056C130.969 32.2071 130.698 32.8184 130.698 33.5426C130.698 34.3445 131.007 35.0076 131.629 35.529C132.171 36.0107 133.154 36.5321 134.581 37.0946C136.326 37.7974 137.609 38.6191 138.433 39.5613C139.255 40.5003 139.665 41.6757 139.665 43.0783Z" fill="black"/>
<path d="M150.411 36.5778H146.828V43.6804C146.828 45.4869 147.46 46.3894 148.725 46.3894C149.306 46.3894 149.787 46.3391 150.169 46.2385L150.258 48.7067C149.618 48.946 148.775 49.0664 147.731 49.0664C146.447 49.0664 145.444 48.6746 144.72 47.8926C143.999 47.109 143.636 45.7949 143.636 43.9487V36.5748H141.502V34.1356H143.636V31.4571L146.828 30.4936V34.1356H150.411V36.5778Z" fill="black"/>
<path d="M166.575 41.3328C166.575 43.5814 165.932 45.4276 164.648 46.8713C163.302 48.3577 161.515 49.0986 159.288 49.0986C157.142 49.0986 155.433 48.3866 154.158 46.9628C152.884 45.5389 152.247 43.7415 152.247 41.5752C152.247 39.3083 152.902 37.4515 154.218 36.0078C155.53 34.5626 157.302 33.84 159.529 33.84C161.676 33.84 163.403 34.5519 164.706 35.9773C165.953 37.36 166.575 39.1452 166.575 41.3328ZM163.203 41.438C163.203 40.0888 162.915 38.9317 162.331 37.9667C161.65 36.799 160.675 36.2166 159.413 36.2166C158.107 36.2166 157.114 36.8005 156.433 37.9667C155.849 38.9333 155.561 40.1087 155.561 41.499C155.561 42.8482 155.849 44.0053 156.433 44.9687C157.136 46.1365 158.117 46.7188 159.384 46.7188C160.625 46.7188 161.599 46.1243 162.302 44.9382C162.901 43.9549 163.203 42.7857 163.203 41.438Z" fill="black"/>
<path d="M177.14 36.997C176.818 36.9375 176.475 36.907 176.115 36.907C174.972 36.907 174.088 37.3385 173.466 38.2029C172.925 38.9651 172.653 39.9286 172.653 41.0918V48.7676H169.404L169.435 38.7456C169.435 37.0595 169.394 35.5243 169.313 34.1401H172.144L172.263 36.9391H172.353C172.696 35.9771 173.237 35.2027 173.978 34.6218C174.702 34.0989 175.484 33.8382 176.327 33.8382C176.627 33.8382 176.899 33.8596 177.14 33.8977V36.997Z" fill="black"/>
<path d="M191.676 40.7611C191.676 41.3434 191.638 41.8343 191.557 42.2352H181.806C181.844 43.6805 182.315 44.7857 183.221 45.548C184.043 46.2294 185.105 46.5709 186.41 46.5709C187.854 46.5709 189.171 46.3407 190.356 45.8788L190.865 48.135C189.481 48.7387 187.846 49.039 185.96 49.039C183.692 49.039 181.911 48.3713 180.616 47.0374C179.323 45.7035 178.675 43.9122 178.675 41.6651C178.675 39.4591 179.277 37.6221 180.483 36.1571C181.745 34.593 183.451 33.8109 185.598 33.8109C187.706 33.8109 189.302 34.593 190.386 36.1571C191.244 37.3996 191.676 38.9362 191.676 40.7611ZM188.576 39.918C188.598 38.9545 188.386 38.1222 187.945 37.4194C187.383 36.5153 186.518 36.0641 185.355 36.0641C184.293 36.0641 183.428 36.5047 182.768 37.3889C182.227 38.0917 181.905 38.9347 181.806 39.9165H188.576V39.918Z" fill="black"/>
<path d="M80.2272 15.9989C80.2272 17.7932 79.689 19.1439 78.6142 20.051C77.6188 20.8879 76.204 21.3072 74.3716 21.3072C73.463 21.3072 72.6855 21.2675 72.0345 21.1883V11.3843C72.8837 11.2471 73.7984 11.1769 74.7863 11.1769C76.5318 11.1769 77.8474 11.5565 78.7347 12.3157C79.7286 13.174 80.2272 14.4012 80.2272 15.9989ZM78.5426 16.0431C78.5426 14.8799 78.2347 13.9881 77.6188 13.3661C77.0029 12.7456 76.1034 12.4347 74.9189 12.4347C74.4158 12.4347 73.9874 12.4682 73.6322 12.5383V19.9915C73.8289 20.022 74.1887 20.0358 74.7116 20.0358C75.9342 20.0358 76.8779 19.6958 77.5425 19.0159C78.2072 18.336 78.5426 17.345 78.5426 16.0431Z" fill="black"/>
<path d="M89.1592 17.566C89.1592 18.6713 88.8436 19.5768 88.2125 20.2873C87.5508 21.0175 86.6743 21.3818 85.5797 21.3818C84.5247 21.3818 83.6847 21.0327 83.0582 20.3315C82.4331 19.6317 82.1206 18.749 82.1206 17.685C82.1206 16.5721 82.4423 15.6589 83.0887 14.95C83.735 14.2411 84.604 13.8859 85.6986 13.8859C86.7535 13.8859 87.6011 14.235 88.243 14.9348C88.8528 15.6147 89.1592 16.4928 89.1592 17.566ZM87.5021 17.6179C87.5021 16.9547 87.3588 16.3861 87.0737 15.912C86.7383 15.3388 86.2611 15.0522 85.6407 15.0522C84.9988 15.0522 84.511 15.3388 84.1756 15.912C83.889 16.3861 83.7472 16.9639 83.7472 17.6468C83.7472 18.31 83.8905 18.8786 84.1756 19.3527C84.5217 19.926 85.0034 20.2126 85.6254 20.2126C86.2352 20.2126 86.7139 19.9214 87.0584 19.3375C87.3542 18.8542 87.5021 18.281 87.5021 17.6179Z" fill="black"/>
<path d="M101.136 14.0322L98.887 21.2187H97.4235L96.4921 18.098C96.2558 17.319 96.0637 16.5446 95.9143 15.7762H95.8853C95.7466 16.5659 95.5545 17.3388 95.3075 18.098L94.3181 21.2187H92.8379L90.7234 14.0322H92.3653L93.1778 17.4486C93.3745 18.2566 93.5361 19.0264 93.6657 19.7551H93.6946C93.8135 19.1545 94.0102 18.3892 94.2876 17.4638L95.3075 14.0337H96.6094L97.5866 17.3907C97.8229 18.2093 98.015 18.9975 98.1629 19.7567H98.2071C98.3154 19.0173 98.4785 18.2291 98.6949 17.3907L99.567 14.0337H101.136V14.0322Z" fill="black"/>
<path d="M109.418 21.2187H107.82V17.1025C107.82 15.8342 107.339 15.2 106.372 15.2C105.898 15.2 105.515 15.3738 105.218 15.7229C104.924 16.072 104.774 16.4836 104.774 16.9547V21.2171H103.177V16.0857C103.177 15.4546 103.157 14.7701 103.119 14.0292H104.523L104.598 15.1527H104.642C104.828 14.8036 105.105 14.5155 105.47 14.2853C105.902 14.017 106.387 13.8813 106.918 13.8813C107.589 13.8813 108.147 14.0978 108.59 14.5322C109.142 15.0643 109.418 15.8585 109.418 16.9135V21.2187V21.2187Z" fill="black"/>
<path d="M113.824 21.2187H112.228V10.7348H113.824V21.2187Z" fill="black"/>
<path d="M123.23 17.566C123.23 18.6713 122.914 19.5768 122.283 20.2873C121.622 21.0175 120.744 21.3818 119.65 21.3818C118.594 21.3818 117.754 21.0327 117.129 20.3315C116.504 19.6317 116.191 18.749 116.191 17.685C116.191 16.5721 116.513 15.6589 117.159 14.95C117.806 14.2411 118.675 13.8859 119.768 13.8859C120.824 13.8859 121.67 14.235 122.314 14.9348C122.924 15.6147 123.23 16.4928 123.23 17.566ZM121.571 17.6179C121.571 16.9547 121.428 16.3861 121.143 15.912C120.809 15.3388 120.33 15.0522 119.711 15.0522C119.068 15.0522 118.58 15.3388 118.246 15.912C117.96 16.3861 117.818 16.9639 117.818 17.6468C117.818 18.31 117.961 18.8786 118.246 19.3527C118.592 19.926 119.074 20.2126 119.696 20.2126C120.306 20.2126 120.783 19.9214 121.128 19.3375C121.425 18.8542 121.571 18.281 121.571 17.6179Z" fill="black"/>
<path d="M130.962 21.2187H129.527L129.409 20.3909H129.364C128.873 21.051 128.174 21.3818 127.265 21.3818C126.587 21.3818 126.038 21.1638 125.625 20.7309C125.25 20.3376 125.062 19.8482 125.062 19.2674C125.062 18.3893 125.428 17.72 126.164 17.2566C126.899 16.7931 127.933 16.566 129.264 16.5767V16.4425C129.264 15.4958 128.767 15.0232 127.771 15.0232C127.062 15.0232 126.437 15.2016 125.898 15.5552L125.573 14.5064C126.241 14.0933 127.065 13.8859 128.038 13.8859C129.916 13.8859 130.858 14.8768 130.858 16.8587V19.5052C130.858 20.2232 130.893 20.7949 130.962 21.2187ZM129.303 18.749V17.6407C127.541 17.6103 126.66 18.0935 126.66 19.089C126.66 19.464 126.761 19.7445 126.966 19.9321C127.172 20.1196 127.434 20.2126 127.747 20.2126C128.098 20.2126 128.425 20.1013 128.724 19.8802C129.024 19.6576 129.209 19.3756 129.277 19.0296C129.294 18.9518 129.303 18.8573 129.303 18.749Z" fill="black"/>
<path d="M140.04 21.2187H138.622L138.548 20.0647H138.503C138.051 20.9428 137.279 21.3818 136.195 21.3818C135.329 21.3818 134.608 21.0419 134.037 20.362C133.465 19.682 133.18 18.7994 133.18 17.7154C133.18 16.5523 133.489 15.6101 134.111 14.8906C134.713 14.2198 135.451 13.8844 136.329 13.8844C137.294 13.8844 137.97 14.2091 138.354 14.8601H138.384V10.7348H139.984V19.2826C139.984 19.9824 140.002 20.6272 140.04 21.2187ZM138.384 18.188V16.9898C138.384 16.7825 138.369 16.6148 138.34 16.4867C138.25 16.1025 138.057 15.7793 137.762 15.5186C137.465 15.258 137.107 15.1269 136.694 15.1269C136.098 15.1269 135.631 15.3631 135.288 15.8373C134.948 16.3114 134.776 16.9166 134.776 17.656C134.776 18.3664 134.939 18.9427 135.267 19.3863C135.613 19.8589 136.079 20.0952 136.663 20.0952C137.188 20.0952 137.607 19.8985 137.926 19.5037C138.233 19.1393 138.384 18.7003 138.384 18.188Z" fill="black"/>
<path d="M153.704 17.566C153.704 18.6713 153.389 19.5768 152.758 20.2873C152.096 21.0175 151.221 21.3818 150.125 21.3818C149.072 21.3818 148.232 21.0327 147.603 20.3315C146.978 19.6317 146.666 18.749 146.666 17.685C146.666 16.5721 146.988 15.6589 147.634 14.95C148.28 14.2411 149.149 13.8859 150.245 13.8859C151.299 13.8859 152.148 14.235 152.788 14.9348C153.398 15.6147 153.704 16.4928 153.704 17.566ZM152.049 17.6179C152.049 16.9547 151.906 16.3861 151.62 15.912C151.284 15.3388 150.808 15.0522 150.186 15.0522C149.546 15.0522 149.058 15.3388 148.721 15.912C148.434 16.3861 148.293 16.9639 148.293 17.6468C148.293 18.31 148.436 18.8786 148.721 19.3527C149.067 19.926 149.549 20.2126 150.171 20.2126C150.78 20.2126 151.261 19.9214 151.605 19.3375C151.899 18.8542 152.049 18.281 152.049 17.6179Z" fill="black"/>
<path d="M162.295 21.2187H160.699V17.1025C160.699 15.8342 160.217 15.2 159.249 15.2C158.775 15.2 158.392 15.3738 158.096 15.7229C157.801 16.072 157.653 16.4836 157.653 16.9547V21.2171H156.053V16.0857C156.053 15.4546 156.035 14.7701 155.997 14.0292H157.4L157.474 15.1527H157.519C157.706 14.8036 157.983 14.5155 158.346 14.2853C158.781 14.017 159.264 13.8813 159.796 13.8813C160.465 13.8813 161.023 14.0978 161.467 14.5322C162.02 15.0643 162.295 15.8585 162.295 16.9135V21.2187V21.2187Z" fill="black"/>
<path d="M173.047 15.229H171.288V18.7201C171.288 19.6073 171.6 20.051 172.219 20.051C172.506 20.051 172.743 20.0266 172.931 19.9763L172.972 21.1882C172.657 21.3071 172.242 21.3666 171.731 21.3666C171.1 21.3666 170.609 21.1745 170.254 20.7903C169.897 20.4062 169.72 19.7598 169.72 18.8527V15.229H168.67V14.0323H169.72V12.7151L171.286 12.2425V14.0307H173.045V15.229H173.047Z" fill="black"/>
<path d="M181.505 21.2187H179.906V17.1331C179.906 15.8449 179.424 15.2 178.459 15.2C177.718 15.2 177.212 15.5735 176.935 16.3205C176.887 16.4776 176.86 16.6696 176.86 16.8953V21.2172H175.264V10.7348H176.86V15.0659H176.891C177.394 14.2777 178.115 13.8844 179.049 13.8844C179.711 13.8844 180.258 14.1009 180.693 14.5354C181.234 15.0765 181.505 15.8815 181.505 16.9456V21.2187V21.2187Z" fill="black"/>
<path d="M190.23 17.2855C190.23 17.5721 190.208 17.813 190.17 18.0096H185.379C185.4 18.7201 185.629 19.2612 186.073 19.6363C186.478 19.9717 187.001 20.1394 187.641 20.1394C188.35 20.1394 188.997 20.0265 189.579 19.7994L189.829 20.9092C189.147 21.205 188.346 21.3528 187.417 21.3528C186.304 21.3528 185.428 21.0251 184.794 20.3696C184.156 19.714 183.841 18.8344 183.841 17.7307C183.841 16.6467 184.135 15.7442 184.728 15.0247C185.347 14.2563 186.184 13.8722 187.24 13.8722C188.274 13.8722 189.059 14.2563 189.59 15.0247C190.018 15.6345 190.23 16.3891 190.23 17.2855ZM188.705 16.8724C188.718 16.3983 188.612 15.9897 188.396 15.6452C188.118 15.2015 187.696 14.979 187.124 14.979C186.603 14.979 186.178 15.1954 185.853 15.6299C185.588 15.976 185.431 16.3891 185.379 16.8724H188.705Z" fill="black"/>
</svg>
