<svg width="120" height="40" viewBox="0 0 120 40" fill="none" xmlns="http://www.w3.org/2000/svg">
<path d="M0 8.74997C0 6.03199 0 4.67299 0.444035 3.601C1.03608 2.17168 2.17168 1.03608 3.601 0.444035C4.67299 0 6.03199 0 8.74997 0H111.25C113.968 0 115.327 0 116.399 0.444035C117.828 1.03608 118.963 2.17168 119.556 3.601C120 4.67299 120 6.03199 120 8.74997V31.2499C120 33.9679 120 35.3269 119.556 36.3989C118.963 37.8282 117.828 38.9638 116.399 39.5558C115.327 39.9999 113.968 39.9999 111.25 39.9999H8.74997C6.03199 39.9999 4.67299 39.9999 3.601 39.5558C2.17168 38.9638 1.03608 37.8282 0.444035 36.3989C0 35.3269 0 33.9679 0 31.2499V8.74997Z" fill="white"/>
<path d="M81.5265 19.2009V21.4919H80.0905V22.9943H81.5265V28.0993C81.5265 29.8424 82.3151 30.5397 84.2989 30.5397C84.6476 30.5397 84.9796 30.4982 85.2701 30.4484V28.9625C85.0211 28.9874 84.8634 29.004 84.5895 29.004C83.7013 29.004 83.3112 28.589 83.3112 27.6427V22.9943H85.2701V21.4919H83.3112V19.2009H81.5265Z" fill="black"/>
<path d="M90.324 30.6642C92.9636 30.6642 94.5822 28.8961 94.5822 25.966C94.5822 23.0524 92.9553 21.276 90.324 21.276C87.6843 21.276 86.0574 23.0524 86.0574 25.966C86.0574 28.8961 87.676 30.6642 90.324 30.6642ZM90.324 29.0787C88.7717 29.0787 87.9001 27.9415 87.9001 25.966C87.9001 24.007 88.7717 22.8615 90.324 22.8615C91.8679 22.8615 92.7478 24.007 92.7478 25.966C92.7478 27.9332 91.8679 29.0787 90.324 29.0787Z" fill="black"/>
<path d="M95.9671 30.4899H97.7518V25.1525C97.7518 23.8825 98.7064 23.0275 100.059 23.0275C100.375 23.0275 100.906 23.0856 101.056 23.1354V21.3757C100.865 21.3258 100.524 21.3009 100.259 21.3009C99.0799 21.3009 98.0755 21.9484 97.8182 22.8366H97.6854V21.4504H95.9671V30.4899Z" fill="black"/>
<path d="M105.487 22.7951C106.807 22.7951 107.67 23.7165 107.711 25.1359H103.146C103.246 23.7248 104.167 22.7951 105.487 22.7951ZM107.703 28.0495C107.371 28.755 106.632 29.1452 105.553 29.1452C104.125 29.1452 103.204 28.1408 103.146 26.5553V26.4557H109.529V25.8332C109.529 22.9943 108.01 21.276 105.495 21.276C102.947 21.276 101.328 23.1105 101.328 25.9992C101.328 28.8878 102.914 30.6642 105.503 30.6642C107.57 30.6642 109.015 29.6681 109.421 28.0495H107.703Z" fill="black"/>
<path d="M69.8229 27.1517C69.9606 29.3714 71.8104 30.791 74.5635 30.791C77.5059 30.791 79.347 29.3026 79.347 26.928C79.347 25.0611 78.2974 24.0287 75.7508 23.435L74.3828 23.0995C72.7653 22.7209 72.1115 22.2133 72.1115 21.3272C72.1115 20.2087 73.1267 19.4774 74.6495 19.4774C76.0949 19.4774 77.0929 20.1915 77.2736 21.3358H79.1491C79.0373 19.2451 77.1961 17.7739 74.6753 17.7739C71.9652 17.7739 70.1585 19.2451 70.1585 21.4562C70.1585 23.2802 71.1823 24.3642 73.4278 24.889L75.0281 25.2762C76.6713 25.6633 77.394 26.2312 77.394 27.1775C77.394 28.2788 76.2584 29.0789 74.7097 29.0789C73.0493 29.0789 71.8964 28.3304 71.7329 27.1517H69.8229Z" fill="black"/>
<path d="M51.3357 21.3009C50.1072 21.3009 49.0447 21.9152 48.4968 22.9445H48.364V21.4504H46.6458V33.4947H48.4304V29.1203H48.5715C49.0447 30.0748 50.0657 30.6393 51.3523 30.6393C53.635 30.6393 55.0876 28.838 55.0876 25.966C55.0876 23.0939 53.635 21.3009 51.3357 21.3009ZM50.8293 29.0372C49.3352 29.0372 48.3972 27.8585 48.3972 25.9743C48.3972 24.0817 49.3352 22.903 50.8376 22.903C52.3484 22.903 53.2532 24.0568 53.2532 25.966C53.2532 27.8834 52.3484 29.0372 50.8293 29.0372Z" fill="black"/>
<path d="M61.3324 21.3009C60.1039 21.3009 59.0414 21.9152 58.4936 22.9445H58.3608V21.4504H56.6425V33.4947H58.4272V29.1203H58.5683C59.0414 30.0748 60.0624 30.6393 61.349 30.6393C63.6318 30.6393 65.0844 28.838 65.0844 25.966C65.0844 23.0939 63.6318 21.3009 61.3324 21.3009ZM60.8261 29.0372C59.332 29.0372 58.394 27.8585 58.394 25.9743C58.394 24.0817 59.332 22.903 60.8344 22.903C62.3451 22.903 63.2499 24.0568 63.2499 25.966C63.2499 27.8834 62.3451 29.0372 60.8261 29.0372Z" fill="black"/>
<path d="M43.4438 30.4899H45.4914L41.009 18.075H38.9355L34.4531 30.4899H36.4319L37.5762 27.1947H42.3081L43.4438 30.4899ZM39.8733 20.3292H40.0196L41.8177 25.5773H38.0666L39.8733 20.3292Z" fill="black"/>
<path d="M35.6523 8.71091V14.6999H37.8147C39.5994 14.6999 40.6328 13.6 40.6328 11.6867C40.6328 9.80245 39.5911 8.71091 37.8147 8.71091H35.6523ZM36.582 9.55758H37.7109C38.9519 9.55758 39.6865 10.3462 39.6865 11.6992C39.6865 13.073 38.9643 13.8532 37.7109 13.8532H36.582V9.55758Z" fill="black"/>
<path d="M43.7979 14.7871C45.1177 14.7871 45.927 13.903 45.927 12.4379C45.927 10.9812 45.1135 10.093 43.7979 10.093C42.4781 10.093 41.6646 10.9812 41.6646 12.4379C41.6646 13.903 42.4739 14.7871 43.7979 14.7871ZM43.7979 13.9943C43.0218 13.9943 42.586 13.4257 42.586 12.4379C42.586 11.4585 43.0218 10.8857 43.7979 10.8857C44.5698 10.8857 45.0098 11.4585 45.0098 12.4379C45.0098 13.4216 44.5698 13.9943 43.7979 13.9943Z" fill="black"/>
<path d="M52.8191 10.1801H51.9268L51.1216 13.6291H51.0511L50.1214 10.1801H49.2664L48.3367 13.6291H48.2703L47.461 10.1801H46.5562L47.8013 14.6999H48.7186L49.6482 11.3713H49.7188L50.6526 14.6999H51.5782L52.8191 10.1801Z" fill="black"/>
<path d="M53.8468 14.6999H54.7391V12.0561C54.7391 11.3505 55.1583 10.9106 55.8182 10.9106C56.4781 10.9106 56.7935 11.2717 56.7935 11.998V14.6999H57.6859V11.7739C57.6859 10.6989 57.1297 10.093 56.1212 10.093C55.4405 10.093 54.9923 10.396 54.7723 10.8982H54.7059V10.1801H53.8468V14.6999Z" fill="black"/>
<path d="M59.0912 14.6999H59.9835V8.41623H59.0912V14.6999Z" fill="black"/>
<path d="M63.3395 14.7871C64.6593 14.7871 65.4686 13.903 65.4686 12.4379C65.4686 10.9812 64.6552 10.093 63.3395 10.093C62.0197 10.093 61.2062 10.9812 61.2062 12.4379C61.2062 13.903 62.0155 14.7871 63.3395 14.7871ZM63.3395 13.9943C62.5634 13.9943 62.1276 13.4257 62.1276 12.4379C62.1276 11.4585 62.5634 10.8857 63.3395 10.8857C64.1115 10.8857 64.5514 11.4585 64.5514 12.4379C64.5514 13.4216 64.1115 13.9943 63.3395 13.9943Z" fill="black"/>
<path d="M68.1274 14.0234C67.6418 14.0234 67.289 13.7868 67.289 13.3801C67.289 12.9816 67.5712 12.77 68.1938 12.7285L69.2978 12.6579V13.0356C69.2978 13.5959 68.7997 14.0234 68.1274 14.0234ZM67.8991 14.7746C68.4926 14.7746 68.9865 14.5173 69.2563 14.0649H69.3268V14.6999H70.186V11.612C70.186 10.6574 69.5468 10.093 68.4137 10.093C67.3886 10.093 66.6581 10.591 66.5668 11.3671H67.4301C67.5297 11.0476 67.8742 10.865 68.3722 10.865C68.9824 10.865 69.2978 11.1347 69.2978 11.612V12.0022L68.0734 12.0727C66.9985 12.1391 66.3925 12.6081 66.3925 13.4216C66.3925 14.2475 67.0275 14.7746 67.8991 14.7746Z" fill="black"/>
<path d="M73.2141 14.7746C73.8366 14.7746 74.3637 14.4799 74.6335 13.986H74.7041V14.6999H75.559V8.41623H74.6667V10.8982H74.6003C74.3554 10.4001 73.8325 10.1054 73.2141 10.1054C72.0727 10.1054 71.3381 11.0102 71.3381 12.4379C71.3381 13.8698 72.0644 14.7746 73.2141 14.7746ZM73.4672 10.9065C74.2143 10.9065 74.6833 11.5 74.6833 12.4421C74.6833 13.3884 74.2185 13.9736 73.4672 13.9736C72.7119 13.9736 72.2595 13.3967 72.2595 12.4379C72.2595 11.4875 72.716 10.9065 73.4672 10.9065Z" fill="black"/>
<path d="M81.3455 14.7871C82.6653 14.7871 83.4746 13.903 83.4746 12.4379C83.4746 10.9812 82.6612 10.093 81.3455 10.093C80.0257 10.093 79.2122 10.9812 79.2122 12.4379C79.2122 13.903 80.0215 14.7871 81.3455 14.7871ZM81.3455 13.9943C80.5694 13.9943 80.1336 13.4257 80.1336 12.4379C80.1336 11.4585 80.5694 10.8857 81.3455 10.8857C82.1175 10.8857 82.5574 11.4585 82.5574 12.4379C82.5574 13.4216 82.1175 13.9943 81.3455 13.9943Z" fill="black"/>
<path d="M84.6558 14.6999H85.5482V12.0561C85.5482 11.3505 85.9674 10.9106 86.6273 10.9106C87.2872 10.9106 87.6026 11.2717 87.6026 11.998V14.6999H88.4949V11.7739C88.4949 10.6989 87.9388 10.093 86.9302 10.093C86.2496 10.093 85.8013 10.396 85.5814 10.8982H85.515V10.1801H84.6558V14.6999Z" fill="black"/>
<path d="M92.6046 9.05539V10.2009H91.8866V10.9521H92.6046V13.5046C92.6046 14.3762 92.9989 14.7248 93.9909 14.7248C94.1652 14.7248 94.3312 14.704 94.4765 14.6791V13.9362C94.3519 13.9487 94.2731 13.957 94.1361 13.957C93.692 13.957 93.497 13.7495 93.497 13.2763V10.9521H94.4765V10.2009H93.497V9.05539H92.6046Z" fill="black"/>
<path d="M95.6743 14.6999H96.5666V12.0603C96.5666 11.3754 96.9733 10.9148 97.7038 10.9148C98.3346 10.9148 98.6708 11.28 98.6708 12.0022V14.6999H99.5632V11.7822C99.5632 10.7072 98.9696 10.0971 98.0068 10.0971C97.3261 10.0971 96.8488 10.4001 96.6288 10.9065H96.5583V8.41623H95.6743V14.6999Z" fill="black"/>
<path d="M102.782 10.8525C103.442 10.8525 103.874 11.3132 103.894 12.0229H101.612C101.662 11.3173 102.122 10.8525 102.782 10.8525ZM103.89 13.4797C103.724 13.8325 103.355 14.0275 102.815 14.0275C102.102 14.0275 101.641 13.5253 101.612 12.7326V12.6828H104.803V12.3715C104.803 10.9521 104.044 10.093 102.786 10.093C101.512 10.093 100.703 11.0102 100.703 12.4545C100.703 13.8989 101.496 14.7871 102.79 14.7871C103.824 14.7871 104.546 14.289 104.749 13.4797H103.89Z" fill="black"/>
<path d="M24.766 20.3007C24.7877 18.6198 25.6904 17.0292 27.1226 16.1487C26.2191 14.8584 24.7058 14.0403 23.1314 13.991C21.4522 13.8148 19.8242 14.9959 18.9685 14.9959C18.0963 14.9959 16.7788 14.0085 15.36 14.0377C13.5108 14.0975 11.7868 15.1488 10.8871 16.7656C8.95315 20.114 10.3957 25.035 12.2483 27.7416C13.1752 29.067 14.2585 30.5474 15.676 30.4949C17.063 30.4374 17.581 29.6104 19.2553 29.6104C20.9141 29.6104 21.4001 30.4949 22.8463 30.4615C24.3347 30.4374 25.2725 29.1303 26.1668 27.7924C26.8328 26.848 27.3453 25.8043 27.6852 24.6999C25.9361 23.9601 24.7681 22.1999 24.766 20.3007Z" fill="black"/>
<path d="M22.0344 12.211C22.8459 11.2368 23.2457 9.98466 23.1489 8.72043C21.909 8.85065 20.7638 9.44321 19.9413 10.38C19.137 11.2954 18.7185 12.5255 18.7976 13.7414C20.0379 13.7542 21.2572 13.1777 22.0344 12.211Z" fill="black"/>
<path d="M3.601 39.5558L3.2821 40.3257L3.601 39.5558ZM0.444035 36.3989L-0.325862 36.7178L0.444035 36.3989ZM119.556 36.3989L118.786 36.08L118.786 36.08L119.556 36.3989ZM116.399 39.5558L116.717 40.3257L116.399 39.5558ZM116.399 0.444035L116.08 1.21393L116.399 0.444035ZM119.556 3.601L120.325 3.2821L119.556 3.601ZM8.74997 0.83333H111.25V-0.83333H8.74997V0.83333ZM119.166 8.74997V31.2499H120.833V8.74997H119.166ZM111.25 39.1665H8.74997V40.8332H111.25V39.1665ZM0.83333 31.2499V8.74997H-0.83333V31.2499H0.83333ZM8.74997 39.1665C7.37958 39.1665 6.39352 39.1661 5.61497 39.113C4.8439 39.0603 4.33744 38.9589 3.9199 38.7859L3.2821 40.3257C3.93656 40.5968 4.64559 40.7174 5.50151 40.7758C6.34995 40.8336 7.40238 40.8332 8.74997 40.8332V39.1665ZM-0.83333 31.2499C-0.83333 32.5975 -0.833782 33.6499 -0.775893 34.4983C-0.717494 35.3543 -0.596949 36.0633 -0.325862 36.7178L1.21393 36.08C1.04098 35.6624 0.939511 35.156 0.886902 34.3849C0.833782 33.6063 0.83333 32.6203 0.83333 31.2499H-0.83333ZM3.9199 38.7859C2.69477 38.2785 1.7214 37.3051 1.21393 36.08L-0.325862 36.7178C0.350762 38.3513 1.64858 39.6491 3.2821 40.3257L3.9199 38.7859ZM119.166 31.2499C119.166 32.6203 119.166 33.6063 119.113 34.3849C119.06 35.156 118.959 35.6624 118.786 36.08L120.325 36.7178C120.597 36.0633 120.717 35.3543 120.775 34.4983C120.833 33.6499 120.833 32.5975 120.833 31.2499H119.166ZM111.25 40.8332C112.597 40.8332 113.65 40.8336 114.498 40.7758C115.354 40.7174 116.063 40.5968 116.717 40.3257L116.08 38.7859C115.662 38.9589 115.156 39.0603 114.385 39.113C113.606 39.1661 112.62 39.1665 111.25 39.1665V40.8332ZM118.786 36.08C118.278 37.3051 117.305 38.2785 116.08 38.7859L116.717 40.3257C118.351 39.6491 119.649 38.3513 120.325 36.7178L118.786 36.08ZM111.25 0.83333C112.62 0.83333 113.606 0.833782 114.385 0.886902C115.156 0.939511 115.662 1.04098 116.08 1.21393L116.717 -0.325862C116.063 -0.596949 115.354 -0.717494 114.498 -0.775893C113.65 -0.833782 112.597 -0.83333 111.25 -0.83333V0.83333ZM120.833 8.74997C120.833 7.40238 120.833 6.34995 120.775 5.50151C120.717 4.64559 120.597 3.93656 120.325 3.2821L118.786 3.9199C118.959 4.33744 119.06 4.8439 119.113 5.61496C119.166 6.39352 119.166 7.37958 119.166 8.74997H120.833ZM116.08 1.21393C117.305 1.7214 118.278 2.69477 118.786 3.9199L120.325 3.2821C119.649 1.64858 118.351 0.350762 116.717 -0.325862L116.08 1.21393ZM8.74997 -0.83333C7.40238 -0.83333 6.34995 -0.833782 5.50151 -0.775893C4.64559 -0.717494 3.93656 -0.596949 3.2821 -0.325862L3.9199 1.21393C4.33744 1.04098 4.8439 0.939511 5.61497 0.886902C6.39352 0.833782 7.37958 0.83333 8.74997 0.83333V-0.83333ZM0.83333 8.74997C0.83333 7.37957 0.833782 6.39351 0.886902 5.61496C0.939511 4.8439 1.04098 4.33744 1.21393 3.9199L-0.325862 3.2821C-0.596949 3.93656 -0.717494 4.64559 -0.775893 5.50151C-0.833782 6.34995 -0.83333 7.40238 -0.83333 8.74997H0.83333ZM3.2821 -0.325862C1.64858 0.350762 0.350762 1.64858 -0.325862 3.2821L1.21393 3.9199C1.7214 2.69477 2.69477 1.7214 3.9199 1.21393L3.2821 -0.325862Z" fill="black"/>
</svg>
