<svg width="136" height="40" viewBox="0 0 136 40" fill="none" xmlns="http://www.w3.org/2000/svg">
<path d="M0.667969 4.16665C0.667969 1.86547 2.53344 0 4.83462 0H131.501C133.802 0 135.667 1.86547 135.667 4.16665V35.8332C135.667 38.1344 133.802 39.9999 131.501 39.9999H4.83463C2.53345 39.9999 0.667969 38.1344 0.667969 35.8332V4.16665Z" fill="white"/>
<path d="M68.8048 21.751C66.4529 21.751 64.5359 23.54 64.5359 26.004C64.5359 28.453 66.4529 30.257 68.8048 30.257C71.1578 30.257 73.0748 28.453 73.0748 26.004C73.0738 23.54 71.1568 21.751 68.8048 21.751ZM68.8048 28.583C67.5158 28.583 66.4049 27.52 66.4049 26.005C66.4049 24.474 67.5168 23.427 68.8048 23.427C70.0938 23.427 71.2048 24.474 71.2048 26.005C71.2048 27.519 70.0938 28.583 68.8048 28.583ZM59.4909 21.751C57.1389 21.751 55.2219 23.54 55.2219 26.004C55.2219 28.453 57.1389 30.257 59.4909 30.257C61.8439 30.257 63.7609 28.453 63.7609 26.004C63.7609 23.54 61.8439 21.751 59.4909 21.751ZM59.4909 28.583C58.2019 28.583 57.0909 27.52 57.0909 26.005C57.0909 24.474 58.2029 23.427 59.4909 23.427C60.7799 23.427 61.8909 24.474 61.8909 26.005C61.8919 27.519 60.7799 28.583 59.4909 28.583ZM48.4129 23.057V24.861H52.7309C52.6019 25.876 52.2639 26.617 51.7479 27.132C51.1199 27.76 50.1369 28.453 48.4129 28.453C45.7549 28.453 43.6769 26.31 43.6769 23.652C43.6769 20.994 45.7549 18.8511 48.4129 18.8511C49.8469 18.8511 50.8939 19.415 51.6669 20.14L52.9399 18.8671C51.8599 17.8361 50.4269 17.0471 48.4129 17.0471C44.7719 17.0471 41.7109 20.011 41.7109 23.652C41.7109 27.293 44.7719 30.257 48.4129 30.257C50.3779 30.257 51.8609 29.612 53.0199 28.404C54.2119 27.212 54.5829 25.536 54.5829 24.183C54.5829 23.765 54.5509 23.378 54.4859 23.056H48.4129V23.057ZM93.7208 24.458C93.3668 23.508 92.2868 21.751 90.0798 21.751C87.8888 21.751 86.0678 23.475 86.0678 26.004C86.0678 28.388 87.8728 30.257 90.2888 30.257C92.2378 30.257 93.3658 29.065 93.8338 28.372L92.3838 27.405C91.9008 28.114 91.2398 28.581 90.2888 28.581C89.3388 28.581 88.6618 28.146 88.2268 27.292L93.9138 24.94L93.7208 24.458ZM87.9208 25.876C87.8728 24.232 89.1938 23.395 90.1448 23.395C90.8858 23.395 91.5138 23.766 91.7238 24.297L87.9208 25.876ZM83.2978 30H85.1658V17.4991H83.2978V30ZM80.2358 22.702H80.1718C79.7528 22.202 78.9468 21.751 77.9328 21.751C75.8058 21.751 73.8568 23.62 73.8568 26.021C73.8568 28.405 75.8058 30.258 77.9328 30.258C78.9478 30.258 79.7528 29.807 80.1718 29.292H80.2358V29.904C80.2358 31.531 79.3658 32.401 77.9648 32.401C76.8208 32.401 76.1118 31.58 75.8218 30.887L74.1948 31.564C74.6618 32.691 75.9018 34.077 77.9648 34.077C80.1558 34.077 82.0088 32.788 82.0088 29.646V22.01H80.2368V22.702H80.2358ZM78.0938 28.583C76.8048 28.583 75.7258 27.503 75.7258 26.021C75.7258 24.522 76.8048 23.427 78.0938 23.427C79.3658 23.427 80.3648 24.522 80.3648 26.021C80.3648 27.503 79.3658 28.583 78.0938 28.583ZM102.475 17.4991H98.0037V30H99.8687V25.264H102.474C104.542 25.264 106.576 23.767 106.576 21.382C106.576 18.9971 104.543 17.4991 102.475 17.4991ZM102.523 23.524H99.8687V19.2391H102.523C103.918 19.2391 104.71 20.394 104.71 21.382C104.71 22.35 103.918 23.524 102.523 23.524ZM114.055 21.729C112.704 21.729 111.305 22.324 110.726 23.643L112.382 24.334C112.736 23.643 113.396 23.417 114.087 23.417C115.052 23.417 116.033 23.996 116.049 25.025V25.154C115.711 24.961 114.987 24.672 114.103 24.672C112.318 24.672 110.5 25.653 110.5 27.486C110.5 29.159 111.964 30.236 113.604 30.236C114.858 30.236 115.55 29.673 115.984 29.013H116.048V29.978H117.85V25.185C117.851 22.967 116.193 21.729 114.055 21.729ZM113.829 28.58C113.219 28.58 112.366 28.274 112.366 27.518C112.366 26.553 113.428 26.183 114.345 26.183C115.164 26.183 115.551 26.36 116.049 26.601C115.904 27.76 114.907 28.58 113.829 28.58ZM124.412 22.002L122.273 27.422H122.209L119.989 22.002H117.979L121.308 29.577L119.41 33.791H121.356L126.487 22.002H124.412ZM107.606 30H109.471V17.4991H107.606V30Z" fill="black"/>
<path d="M48.0855 10.2429C48.0855 11.0809 47.8375 11.7479 47.3405 12.2459C46.7765 12.8379 46.0405 13.1339 45.1365 13.1339C44.2705 13.1339 43.5335 12.8339 42.9285 12.2339C42.3225 11.6329 42.0195 10.8889 42.0195 10.0009C42.0195 9.1119 42.3225 8.36791 42.9285 7.76791C43.5335 7.16691 44.2705 6.86691 45.1365 6.86691C45.5665 6.86691 45.9775 6.95091 46.3675 7.11791C46.7585 7.28591 47.0715 7.50891 47.3055 7.78791L46.7785 8.31591C46.3815 7.84091 45.8345 7.60391 45.1355 7.60391C44.5035 7.60391 43.9575 7.82591 43.4965 8.26991C43.0355 8.71391 42.8055 9.2909 42.8055 9.9999C42.8055 10.7089 43.0355 11.2859 43.4965 11.7299C43.9575 12.1739 44.5035 12.3959 45.1355 12.3959C45.8055 12.3959 46.3645 12.1729 46.8115 11.7259C47.1015 11.4349 47.2695 11.0299 47.3145 10.5109H45.1355V9.7899H48.0425C48.0725 9.9469 48.0855 10.0979 48.0855 10.2429Z" fill="black"/>
<path d="M52.6956 7.73697H49.9636V9.63896H52.4276V10.36H49.9636V12.2619H52.6956V12.9999H49.1926V6.99997H52.6956V7.73697Z" fill="black"/>
<path d="M55.9465 12.9999H55.1755V7.73697H53.4995V6.99997H57.6225V7.73697H55.9465V12.9999Z" fill="black"/>
<path d="M60.6054 12.9999V6.99997H61.3764V12.9999H60.6054Z" fill="black"/>
<path d="M64.7956 12.9999H64.0246V7.73697H62.3486V6.99997H66.4716V7.73697H64.7956V12.9999Z" fill="black"/>
<path d="M74.2763 12.2249C73.6863 12.8309 72.9533 13.1339 72.0763 13.1339C71.1993 13.1339 70.4663 12.8309 69.8773 12.2249C69.2873 11.6189 68.9933 10.8769 68.9933 9.99995C68.9933 9.12295 69.2873 8.38095 69.8773 7.77496C70.4663 7.16896 71.1993 6.86496 72.0763 6.86496C72.9483 6.86496 73.6803 7.16996 74.2723 7.77896C74.8643 8.38795 75.1603 9.12795 75.1603 9.99995C75.1603 10.8769 74.8653 11.6189 74.2763 12.2249ZM70.4463 11.7219C70.8903 12.1719 71.4333 12.3959 72.0763 12.3959C72.7193 12.3959 73.2633 12.1709 73.7063 11.7219C74.1503 11.2719 74.3733 10.6979 74.3733 9.99995C74.3733 9.30195 74.1503 8.72795 73.7063 8.27795C73.2633 7.82796 72.7193 7.60396 72.0763 7.60396C71.4333 7.60396 70.8903 7.82896 70.4463 8.27795C70.0033 8.72795 69.7803 9.30195 69.7803 9.99995C69.7803 10.6979 70.0033 11.2719 70.4463 11.7219Z" fill="black"/>
<path d="M76.2423 12.9999V6.99997H77.1803L80.0963 11.667H80.1293L80.0963 10.511V6.99997H80.8673V12.9999H80.0623L77.0113 8.10597H76.9783L77.0113 9.26196V12.9999H76.2423Z" fill="black"/>
<path d="M48.0855 10.2429C48.0855 11.0809 47.8375 11.7479 47.3405 12.2459C46.7765 12.8379 46.0405 13.1339 45.1365 13.1339C44.2705 13.1339 43.5335 12.8339 42.9285 12.2339C42.3225 11.6329 42.0195 10.8889 42.0195 10.0009C42.0195 9.1119 42.3225 8.36791 42.9285 7.76791C43.5335 7.16691 44.2705 6.86691 45.1365 6.86691C45.5665 6.86691 45.9775 6.95091 46.3675 7.11791C46.7585 7.28591 47.0715 7.50891 47.3055 7.78791L46.7785 8.31591C46.3815 7.84091 45.8345 7.60391 45.1355 7.60391C44.5035 7.60391 43.9575 7.82591 43.4965 8.26991C43.0355 8.71391 42.8055 9.2909 42.8055 9.9999C42.8055 10.7089 43.0355 11.2859 43.4965 11.7299C43.9575 12.1739 44.5035 12.3959 45.1355 12.3959C45.8055 12.3959 46.3645 12.1729 46.8115 11.7259C47.1015 11.4349 47.2695 11.0299 47.3145 10.5109H45.1355V9.7899H48.0425C48.0725 9.9469 48.0855 10.0979 48.0855 10.2429Z" stroke="black" stroke-width="0.166666" stroke-miterlimit="10"/>
<path d="M52.6956 7.73697H49.9636V9.63896H52.4276V10.36H49.9636V12.2619H52.6956V12.9999H49.1926V6.99997H52.6956V7.73697Z" stroke="black" stroke-width="0.166666" stroke-miterlimit="10"/>
<path d="M55.9465 12.9999H55.1755V7.73697H53.4995V6.99997H57.6225V7.73697H55.9465V12.9999Z" stroke="black" stroke-width="0.166666" stroke-miterlimit="10"/>
<path d="M60.6054 12.9999V6.99997H61.3764V12.9999H60.6054Z" stroke="black" stroke-width="0.166666" stroke-miterlimit="10"/>
<path d="M64.7956 12.9999H64.0246V7.73697H62.3486V6.99997H66.4716V7.73697H64.7956V12.9999Z" stroke="black" stroke-width="0.166666" stroke-miterlimit="10"/>
<path d="M74.2763 12.2249C73.6863 12.8309 72.9533 13.1339 72.0763 13.1339C71.1993 13.1339 70.4663 12.8309 69.8773 12.2249C69.2873 11.6189 68.9933 10.8769 68.9933 9.99995C68.9933 9.12295 69.2873 8.38095 69.8773 7.77496C70.4663 7.16896 71.1993 6.86496 72.0763 6.86496C72.9483 6.86496 73.6803 7.16996 74.2723 7.77896C74.8643 8.38795 75.1603 9.12795 75.1603 9.99995C75.1603 10.8769 74.8653 11.6189 74.2763 12.2249ZM70.4463 11.7219C70.8903 12.1719 71.4333 12.3959 72.0763 12.3959C72.7193 12.3959 73.2633 12.1709 73.7063 11.7219C74.1503 11.2719 74.3733 10.6979 74.3733 9.99995C74.3733 9.30195 74.1503 8.72795 73.7063 8.27795C73.2633 7.82796 72.7193 7.60396 72.0763 7.60396C71.4333 7.60396 70.8903 7.82896 70.4463 8.27795C70.0033 8.72795 69.7803 9.30195 69.7803 9.99995C69.7803 10.6979 70.0033 11.2719 70.4463 11.7219Z" stroke="black" stroke-width="0.166666" stroke-miterlimit="10"/>
<path d="M76.2423 12.9999V6.99997H77.1803L80.0963 11.667H80.1293L80.0963 10.511V6.99997H80.8673V12.9999H80.0623L77.0113 8.10597H76.9783L77.0113 9.26196V12.9999H76.2423Z" stroke="black" stroke-width="0.166666" stroke-miterlimit="10"/>
<path fill-rule="evenodd" clip-rule="evenodd" d="M10.8655 7.88693C10.7237 8.16802 10.6445 8.52306 10.6445 8.94299V31.0589C10.6445 31.4798 10.7238 31.8347 10.8657 32.1157L22.9791 20.0006L10.8655 7.88693ZM11.4425 32.7174C11.8979 32.9526 12.5121 32.9078 13.1855 32.5259L27.4173 24.4387L23.5684 20.5898L11.4425 32.7174ZM28.1694 24.0124L32.6864 21.446C34.0834 20.651 34.0834 19.352 32.6864 18.558L28.1674 15.9901L24.1576 20.0005L28.1694 24.0124ZM27.4159 15.5631L13.1855 7.477C12.5121 7.0943 11.8979 7.05001 11.4425 7.28542L23.5683 19.4113L27.4159 15.5631Z" fill="black"/>
<path d="M4.83462 0.83333H131.501V-0.83333H4.83462V0.83333ZM134.834 4.16665V35.8332H136.501V4.16665H134.834ZM131.501 39.1665H4.83463V40.8332H131.501V39.1665ZM1.5013 35.8332V4.16665H-0.165362V35.8332H1.5013ZM4.83463 39.1665C2.99368 39.1665 1.5013 37.6741 1.5013 35.8332H-0.165362C-0.165362 38.5946 2.07321 40.8332 4.83463 40.8332V39.1665ZM134.834 35.8332C134.834 37.6742 133.342 39.1665 131.501 39.1665V40.8332C134.262 40.8332 136.501 38.5946 136.501 35.8332H134.834ZM131.501 0.83333C133.342 0.83333 134.834 2.32571 134.834 4.16665H136.501C136.501 1.40524 134.262 -0.83333 131.501 -0.83333V0.83333ZM4.83462 -0.83333C2.07321 -0.83333 -0.165362 1.40524 -0.165362 4.16665H1.5013C1.5013 2.32571 2.99368 0.83333 4.83462 0.83333V-0.83333Z" fill="black"/>
</svg>
