<svg width="216" height="64" viewBox="0 0 216 64" fill="none" xmlns="http://www.w3.org/2000/svg">
<path d="M208 1.28C209.782 1.28 211.492 1.988 212.752 3.24824C214.012 4.50849 214.72 6.21775 214.72 8V56C214.72 57.7823 214.012 59.4915 212.752 60.7518C211.492 62.012 209.782 62.72 208 62.72H8C6.21775 62.72 4.50849 62.012 3.24824 60.7518C1.988 59.4915 1.28 57.7823 1.28 56V8C1.28 6.21775 1.988 4.50849 3.24824 3.24824C4.50849 1.988 6.21775 1.28 8 1.28H208ZM208 0H8C5.87827 0 3.84344 0.842855 2.34315 2.34315C0.842855 3.84344 0 5.87827 0 8V56C0 58.1217 0.842855 60.1566 2.34315 61.6569C3.84344 63.1571 5.87827 64 8 64H208C210.122 64 212.157 63.1571 213.657 61.6569C215.157 60.1566 216 58.1217 216 56V8C216 5.87827 215.157 3.84344 213.657 2.34315C212.157 0.842855 210.122 0 208 0Z" fill="black"/>
<path d="M109.024 34.8C107.681 34.8063 106.369 35.2105 105.255 35.9615C104.141 36.7126 103.274 37.7768 102.765 39.0199C102.255 40.2629 102.125 41.6292 102.391 42.9461C102.657 44.2631 103.307 45.4717 104.259 46.4195C105.211 47.3673 106.423 48.0118 107.741 48.2716C109.059 48.5314 110.425 48.3949 111.666 47.8793C112.906 47.3637 113.967 46.4921 114.712 45.3745C115.458 44.257 115.856 42.9436 115.856 41.6C115.869 40.7007 115.701 39.808 115.362 38.975C115.023 38.142 114.52 37.3857 113.882 36.7512C113.245 36.1168 112.486 35.617 111.651 35.2818C110.817 34.9466 109.923 34.7828 109.024 34.8V34.8ZM109.024 45.728C108.198 45.7858 107.373 45.5937 106.658 45.1766C105.942 44.7596 105.368 44.1369 105.011 43.3895C104.654 42.6421 104.53 41.8046 104.656 40.9859C104.781 40.1671 105.15 39.4049 105.714 38.7985C106.278 38.192 107.011 37.7693 107.819 37.5853C108.627 37.4012 109.471 37.4644 110.242 37.7666C111.013 38.0687 111.676 38.5959 112.143 39.2795C112.611 39.9632 112.862 40.7717 112.864 41.6C112.89 42.1248 112.81 42.6495 112.63 43.1431C112.45 43.6367 112.173 44.0892 111.815 44.4739C111.457 44.8586 111.026 45.1678 110.546 45.3832C110.067 45.5986 109.549 45.7158 109.024 45.728ZM94.1281 34.8C92.7839 34.8032 91.4708 35.2047 90.3546 35.9538C89.2385 36.7029 88.3694 37.766 87.8572 39.0088C87.345 40.2517 87.2126 41.6184 87.4767 42.9364C87.7409 44.2544 88.3898 45.4646 89.3415 46.414C90.2931 47.3634 91.5048 48.0094 92.8234 48.2705C94.142 48.5316 95.5085 48.396 96.7501 47.8809C97.9917 47.3657 99.0527 46.4941 99.7992 45.3762C100.546 44.2583 100.944 42.9443 100.944 41.6C100.957 40.7007 100.789 39.808 100.45 38.975C100.111 38.142 99.6076 37.3857 98.9701 36.7512C98.3327 36.1168 97.5741 35.617 96.7395 35.2818C95.9049 34.9466 95.0114 34.7828 94.1121 34.8H94.1281ZM94.1281 45.728C93.3015 45.7891 92.4756 45.5998 91.7579 45.1849C91.0403 44.77 90.4643 44.1487 90.1047 43.4018C89.7451 42.6549 89.6188 41.8171 89.7421 40.9973C89.8653 40.1776 90.2325 39.414 90.7958 38.8059C91.3592 38.1978 92.0925 37.7734 92.9004 37.5879C93.7083 37.4024 94.5533 37.4644 95.3255 37.7659C96.0977 38.0674 96.7612 38.5944 97.2297 39.2782C97.6981 39.9621 97.9499 40.7711 97.9521 41.6C97.9779 42.1248 97.8983 42.6495 97.7181 43.1431C97.5379 43.6367 97.2606 44.0892 96.9028 44.4739C96.5449 44.8586 96.1136 45.1678 95.6343 45.3832C95.155 45.5986 94.6374 45.7158 94.1121 45.728H94.1281ZM76.3841 36.896V39.776H83.2961C83.1878 41.1325 82.6239 42.4125 81.6961 43.408C81.0046 44.1124 80.1733 44.6642 79.2557 45.0279C78.3381 45.3917 77.3544 45.5593 76.3681 45.52C74.3313 45.52 72.3778 44.7109 70.9376 43.2706C69.4973 41.8303 68.6881 39.8769 68.6881 37.84C68.6881 35.8032 69.4973 33.8497 70.9376 32.4094C72.3778 30.9692 74.3313 30.16 76.3681 30.16C78.3166 30.1282 80.1982 30.8705 81.6001 32.224L83.6321 30.192C82.6857 29.2337 81.5565 28.475 80.3115 27.9611C79.0665 27.4471 77.731 27.1883 76.3841 27.2C74.9617 27.1447 73.5428 27.377 72.2123 27.8832C70.8819 28.3893 69.6673 29.1588 68.6413 30.1456C67.6154 31.1324 66.7992 32.3162 66.2417 33.6259C65.6842 34.9357 65.3969 36.3445 65.3969 37.768C65.3969 39.1915 65.6842 40.6003 66.2417 41.9101C66.7992 43.2199 67.6154 44.4036 68.6413 45.3904C69.6673 46.3772 70.8819 47.1467 72.2123 47.6529C73.5428 48.159 74.9617 48.3914 76.3841 48.336C77.7537 48.3979 79.1205 48.1658 80.3928 47.6552C81.6651 47.1446 82.8133 46.3675 83.7601 45.376C85.4364 43.5343 86.3314 41.1132 86.2561 38.624C86.2613 38.0176 86.2077 37.4121 86.0961 36.816L76.3841 36.896ZM148.88 39.136C148.463 37.9084 147.683 36.8365 146.643 36.0622C145.603 35.2879 144.352 34.8477 143.056 34.8C142.181 34.7983 141.315 34.9761 140.511 35.3225C139.707 35.6688 138.983 36.1763 138.383 36.8137C137.783 37.451 137.321 38.2046 137.024 39.0278C136.726 39.8511 136.601 40.7265 136.656 41.6C136.637 42.4943 136.798 43.3833 137.13 44.2139C137.461 45.0446 137.957 45.7998 138.587 46.4345C139.218 47.0693 139.969 47.5704 140.798 47.9081C141.626 48.2458 142.514 48.4131 143.408 48.4C144.527 48.4061 145.631 48.1344 146.619 47.6095C147.608 47.0845 148.45 46.3226 149.072 45.392L146.752 43.792C146.406 44.3693 145.916 44.8467 145.329 45.1777C144.743 45.5086 144.081 45.6817 143.408 45.68C142.715 45.7064 142.03 45.5237 141.442 45.1556C140.854 44.7875 140.391 44.2511 140.112 43.616L149.216 39.856L148.88 39.136ZM139.6 41.408C139.568 40.9131 139.634 40.4167 139.796 39.9479C139.958 39.4791 140.212 39.0473 140.542 38.6778C140.873 38.3082 141.274 38.0084 141.723 37.7959C142.171 37.5834 142.657 37.4624 143.152 37.44C143.668 37.406 144.183 37.5244 144.632 37.7804C145.082 38.0364 145.446 38.4187 145.68 38.88L139.6 41.408ZM132.208 48H135.2V28H132.208V48ZM127.312 36.32H127.2C126.749 35.8159 126.197 35.4127 125.579 35.137C124.961 34.8612 124.293 34.7191 123.616 34.72C121.868 34.8048 120.219 35.5591 119.011 36.8266C117.804 38.094 117.13 39.7775 117.13 41.528C117.13 43.2786 117.804 44.962 119.011 46.2295C120.219 47.4969 121.868 48.2512 123.616 48.336C124.294 48.3474 124.966 48.2101 125.586 47.9336C126.205 47.6572 126.756 47.2484 127.2 46.736H127.296V47.712C127.296 50.32 125.904 51.712 123.664 51.712C122.918 51.6946 122.194 51.4555 121.584 51.0252C120.975 50.595 120.507 49.9931 120.24 49.296L117.632 50.384C118.123 51.5782 118.96 52.5985 120.034 53.314C121.109 54.0296 122.373 54.4077 123.664 54.4C127.168 54.4 130.064 52.336 130.064 47.312V35.2H127.312V36.32ZM123.888 45.728C122.856 45.6371 121.895 45.1628 121.196 44.3987C120.496 43.6346 120.108 42.6361 120.108 41.6C120.108 40.5639 120.496 39.5654 121.196 38.8013C121.895 38.0372 122.856 37.563 123.888 37.472C124.4 37.4983 124.901 37.6267 125.362 37.8497C125.824 38.0727 126.236 38.3857 126.574 38.7704C126.913 39.1551 127.171 39.6036 127.333 40.0896C127.496 40.5756 127.559 41.0891 127.52 41.6C127.564 42.1131 127.503 42.6298 127.341 43.1187C127.179 43.6076 126.92 44.0586 126.579 44.4445C126.238 44.8304 125.823 45.1431 125.357 45.3637C124.892 45.5843 124.387 45.7082 123.872 45.728H123.888ZM162.896 28H155.744V48H158.736V40.416H162.912C163.765 40.4773 164.621 40.3622 165.427 40.078C166.234 39.7938 166.973 39.3465 167.599 38.764C168.224 38.1815 168.723 37.4764 169.065 36.6926C169.406 35.9087 169.582 35.0629 169.582 34.208C169.582 33.3531 169.406 32.5073 169.065 31.7235C168.723 30.9396 168.224 30.2345 167.599 29.652C166.973 29.0696 166.234 28.6223 165.427 28.3381C164.621 28.0538 163.765 27.9388 162.912 28H162.896ZM162.896 37.6H158.72V30.784H162.96C163.87 30.784 164.743 31.1456 165.387 31.7892C166.031 32.4329 166.392 33.3058 166.392 34.216C166.392 35.1262 166.031 35.9992 165.387 36.6428C164.743 37.2864 163.87 37.648 162.96 37.648L162.896 37.6ZM181.344 34.72C180.255 34.6549 179.17 34.9095 178.224 35.4524C177.277 35.9953 176.51 36.8029 176.016 37.776L178.672 38.88C178.934 38.3974 179.331 38.0013 179.813 37.7399C180.296 37.4786 180.845 37.3633 181.392 37.408C181.772 37.3637 182.157 37.3954 182.524 37.5013C182.892 37.6073 183.234 37.7854 183.532 38.0252C183.83 38.2649 184.077 38.5617 184.259 38.898C184.441 39.2343 184.554 39.6035 184.592 39.984V40.192C183.631 39.6832 182.559 39.4194 181.472 39.424C178.608 39.424 175.712 41.024 175.712 43.92C175.74 44.5375 175.892 45.1431 176.159 45.7009C176.425 46.2587 176.8 46.7575 177.263 47.1677C177.725 47.5779 178.265 47.8912 178.851 48.0892C179.436 48.2871 180.056 48.3656 180.672 48.32C181.426 48.3741 182.18 48.2244 182.855 47.8866C183.531 47.5487 184.103 47.0353 184.512 46.4H184.608V48H187.488V40.304C187.488 36.8 184.832 34.768 181.424 34.768L181.344 34.72ZM180.976 45.68C180 45.68 178.64 45.184 178.64 43.984C178.64 42.384 180.336 41.856 181.84 41.856C182.791 41.8326 183.73 42.0646 184.56 42.528C184.46 43.3943 184.05 44.1952 183.406 44.7832C182.763 45.3712 181.928 45.7068 181.056 45.728L180.976 45.68ZM197.984 35.2L194.56 43.872H194.464L190.912 35.2H187.712L193.04 47.328L190 54.064H193.12L201.312 35.2H197.984ZM171.088 48H174.08V28H171.088V48Z" fill="black"/>
<path d="M75.7722 16.484C75.7994 17.0709 75.707 17.6572 75.5007 18.2073C75.2945 18.7573 74.9785 19.2598 74.5722 19.684C74.1184 20.1554 73.5704 20.5258 72.9639 20.7712C72.3574 21.0165 71.706 21.1313 71.0522 21.108C70.0601 21.1003 69.0925 20.7999 68.2704 20.2446C67.4483 19.6893 66.8084 18.9037 66.4309 17.9863C66.0533 17.0689 65.9549 16.0605 66.148 15.0874C66.341 14.1143 66.817 13.2198 67.5162 12.516C67.9757 12.0469 68.5266 11.677 69.1348 11.4293C69.743 11.1817 70.3956 11.0614 71.0522 11.076C71.7286 11.0738 72.3983 11.2099 73.0202 11.476C73.5991 11.7096 74.1145 12.0769 74.5242 12.548L73.6762 13.396C73.3568 13.0162 72.9535 12.7158 72.4981 12.5187C72.0427 12.3215 71.5477 12.233 71.0522 12.26C70.5524 12.2576 70.0573 12.3561 69.5965 12.5496C69.1357 12.7432 68.7187 13.0278 68.3706 13.3863C68.0225 13.7449 67.7504 14.1701 67.5705 14.6364C67.3907 15.1027 67.3069 15.6006 67.3242 16.1C67.3137 16.8459 67.5243 17.5781 67.9295 18.2043C68.3347 18.8306 68.9163 19.3228 69.6009 19.6189C70.2855 19.9149 71.0424 20.0016 71.7762 19.868C72.5101 19.7344 73.1879 19.3864 73.7242 18.868C74.2165 18.3345 74.5005 17.6416 74.5242 16.916H71.0522V15.764H75.7082C75.7508 16.0017 75.7723 16.2426 75.7722 16.484ZM83.1002 12.484H78.7802V15.524H82.7162V16.676H78.7802V19.716H83.1002V20.9H77.5002V11.3H83.1002V12.484ZM88.3482 20.9H87.1162V12.484H84.4282V11.3H91.1002V12.484H88.3482V20.9ZM95.8042 20.9V11.3H97.0362V20.9H95.8042ZM102.508 20.9H101.276V12.484H98.5882V11.3H105.18V12.484H102.508V20.9ZM117.676 19.652C116.741 20.5822 115.475 21.1043 114.156 21.1043C112.837 21.1043 111.572 20.5822 110.636 19.652C109.727 18.6897 109.22 17.4159 109.22 16.092C109.22 14.7681 109.727 13.4944 110.636 12.532C111.097 12.0676 111.646 11.699 112.25 11.4475C112.854 11.196 113.502 11.0665 114.156 11.0665C114.811 11.0665 115.458 11.196 116.063 11.4475C116.667 11.699 117.215 12.0676 117.676 12.532C118.589 13.4926 119.098 14.767 119.098 16.092C119.098 17.4171 118.589 18.6915 117.676 19.652ZM111.548 18.852C112.241 19.5418 113.179 19.9291 114.156 19.9291C115.134 19.9291 116.071 19.5418 116.764 18.852C117.448 18.0985 117.826 17.1175 117.826 16.1C117.826 15.0826 117.448 14.1016 116.764 13.348C116.071 12.6582 115.134 12.271 114.156 12.271C113.179 12.271 112.241 12.6582 111.548 13.348C110.865 14.1016 110.486 15.0826 110.486 16.1C110.486 17.1175 110.865 18.0985 111.548 18.852ZM120.828 20.9V11.3H122.332L127.004 18.772V11.3H128.236V20.9H126.956L122.076 13.076V20.9H120.828Z" fill="black"/>
<path fill-rule="evenodd" clip-rule="evenodd" d="M114.156 11.2265C113.523 11.2265 112.896 11.3518 112.311 11.5952C111.727 11.8384 111.197 12.1946 110.751 12.6434C109.871 13.5758 109.38 14.8097 109.38 16.092C109.38 17.3743 109.871 18.6079 110.751 19.5404C111.656 20.4396 112.88 20.9443 114.156 20.9443C115.432 20.9443 116.657 20.4395 117.562 19.5402C118.445 18.6096 118.938 17.3753 118.938 16.092C118.938 14.8086 118.445 13.5742 117.561 12.6436C117.116 12.1947 116.585 11.8384 116.001 11.5952C115.416 11.3518 114.789 11.2265 114.156 11.2265ZM112.188 11.2998C112.812 11.0402 113.481 10.9065 114.156 10.9065C114.832 10.9065 115.5 11.0402 116.124 11.2998C116.748 11.5594 117.314 11.9399 117.79 12.4193L117.792 12.4218C118.733 13.4121 119.258 14.726 119.258 16.092C119.258 17.4581 118.733 18.772 117.792 19.7623L117.789 19.7655C116.824 20.7255 115.518 21.2643 114.156 21.2643C112.795 21.2643 111.489 20.7255 110.523 19.7655L110.52 19.762C109.583 18.7699 109.06 17.4568 109.06 16.092C109.06 14.7273 109.583 13.4142 110.52 12.4222L110.523 12.4193C110.998 11.9399 111.565 11.5594 112.188 11.2998ZM71.0486 11.236C70.4139 11.2219 69.7831 11.3381 69.1952 11.5775C68.6072 11.817 68.0747 12.1745 67.6305 12.628L67.6297 12.6288C66.9527 13.3102 66.4918 14.1763 66.3049 15.1185C66.118 16.0607 66.2133 17.0371 66.5788 17.9254C66.9444 18.8137 67.564 19.5743 68.36 20.112C69.1559 20.6497 70.0929 20.9405 71.0534 20.948L71.0579 20.9481C71.6892 20.9706 72.3182 20.8598 72.9039 20.6229C73.4895 20.386 74.0186 20.0283 74.4567 19.5732C74.8481 19.1647 75.1523 18.6808 75.3509 18.1511C75.5496 17.6213 75.6385 17.0567 75.6123 16.4914L75.7722 16.484L75.6122 16.484C75.6122 16.2966 75.5988 16.1094 75.572 15.924H71.2122V16.756H74.6895L74.6841 16.9213C74.6591 17.6853 74.3601 18.4148 73.8417 18.9765L73.8355 18.9833C73.2765 19.5236 72.5698 19.8862 71.8049 20.0254C71.04 20.1647 70.251 20.0743 69.5373 19.7657C68.8237 19.4571 68.2175 18.944 67.7952 18.2912C67.3735 17.6395 67.154 16.8778 67.1641 16.1017C67.1467 15.582 67.2342 15.0641 67.4213 14.5789C67.6088 14.0925 67.8927 13.6489 68.2558 13.2749C68.619 12.9009 69.0539 12.604 69.5345 12.4021C70.0137 12.2008 70.5285 12.0981 71.0482 12.1C71.5669 12.0724 72.0849 12.1654 72.5617 12.3718C72.9865 12.5558 73.3682 12.8252 73.6832 13.1628L74.3034 12.5425C73.9278 12.1433 73.4697 11.8299 72.9603 11.6244L72.9572 11.6232C72.3554 11.3656 71.7073 11.2339 71.0527 11.236L71.0486 11.236ZM75.9322 16.4804C75.9598 17.0876 75.864 17.6942 75.6505 18.2634C75.4367 18.8338 75.1091 19.3548 74.6877 19.7947C74.2184 20.2823 73.6513 20.6657 73.0239 20.9195C72.3973 21.173 71.7243 21.2918 71.0487 21.268C70.0259 21.2596 69.0284 20.9497 68.1808 20.3772C67.3327 19.8042 66.6724 18.9937 66.2829 18.0472C65.8934 17.1007 65.7918 16.0602 65.991 15.0562C66.1902 14.0524 66.6811 13.1297 67.4023 12.4037C67.877 11.9191 68.4462 11.537 69.0745 11.2812C69.7023 11.0255 70.3759 10.9012 71.0537 10.916C71.7507 10.914 72.4407 11.0543 73.0816 11.3283C73.6833 11.5713 74.2191 11.9533 74.6449 12.4431L74.7428 12.5557L73.6659 13.6325L73.5537 13.499C73.2503 13.1381 72.8672 12.8528 72.4345 12.6655C72.0019 12.4782 71.5316 12.3941 71.0609 12.4198L71.0514 12.4203C70.5731 12.418 70.0994 12.5119 69.6584 12.6971C69.2175 12.8823 68.8185 13.1547 68.4854 13.4978C68.1523 13.8409 67.8919 14.2478 67.7198 14.694C67.5478 15.1402 67.4676 15.6166 67.4841 16.0945L67.4843 16.1023C67.4743 16.8165 67.6758 17.5177 68.0638 18.1174C68.4518 18.7171 69.0088 19.1885 69.6644 19.472C70.32 19.7555 71.0448 19.8386 71.7476 19.7106C72.4488 19.5829 73.0966 19.2509 73.6097 18.7562C74.0366 18.292 74.2974 17.7011 74.3541 17.076H70.8922V15.604H75.842L75.8656 15.7358C75.9098 15.9815 75.932 16.2307 75.9322 16.4804ZM77.3402 11.14H83.2602V12.644H78.9402V15.364H82.8762V16.836H78.9402V19.556H83.2602V21.06H77.3402V11.14ZM77.6602 11.46V20.74H82.9402V19.876H78.6202V16.516H82.5562V15.684H78.6202V12.324H82.9402V11.46H77.6602ZM84.2682 11.14H91.2602V12.644H88.5082V21.06H86.9562V12.644H84.2682V11.14ZM84.5882 11.46V12.324H87.2762V20.74H88.1882V12.324H90.9402V11.46H84.5882ZM95.6442 11.14H97.1962V21.06H95.6442V11.14ZM95.9642 11.46V20.74H96.8762V11.46H95.9642ZM98.4282 11.14H105.34V12.644H102.668V21.06H101.116V12.644H98.4282V11.14ZM98.7482 11.46V12.324H101.436V20.74H102.348V12.324H105.02V11.46H98.7482ZM120.668 11.14H122.421L126.844 18.2144V11.14H128.396V21.06H126.867L122.236 13.6349V21.06H120.668V11.14ZM120.988 11.46V20.74H121.916V12.5172L127.045 20.74H128.076V11.46H127.164V19.3297L122.243 11.46H120.988ZM111.435 13.2347C112.158 12.515 113.136 12.111 114.156 12.111C115.176 12.111 116.154 12.515 116.877 13.2347L116.883 13.2404C117.593 14.0234 117.986 15.0429 117.986 16.1C117.986 17.1572 117.593 18.1765 116.883 18.9595L116.877 18.9656C116.155 19.6852 115.176 20.0891 114.156 20.0891C113.136 20.0891 112.158 19.6851 111.435 18.9654L111.548 18.852L111.43 18.9595C110.719 18.1765 110.326 17.1572 110.326 16.1C110.326 15.0429 110.719 14.0235 111.43 13.2405L111.435 13.2347ZM111.664 18.7415C112.326 19.3997 113.222 19.7691 114.156 19.7691C115.09 19.7691 115.986 19.3997 116.648 18.7415C117.304 18.0178 117.666 17.0764 117.666 16.1C117.666 15.1237 117.304 14.1823 116.648 13.4585C115.986 12.8004 115.09 12.431 114.156 12.431C113.222 12.431 112.326 12.8004 111.664 13.4585C111.009 14.1823 110.646 15.1237 110.646 16.1C110.646 17.0764 111.009 18.0178 111.664 18.7415Z" fill="black"/>
<path d="M16.7925 52.3175L36.3935 31.9875L16.809 11.694C16.2859 12.0099 15.9622 12.7415 15.9622 13.699V50.3319C15.9692 51.2895 16.2812 51.9676 16.7925 52.3175V52.3175Z" fill="black"/>
<path d="M37.0956 31.4261L42.9341 25.3696L19.1578 11.8471C18.7574 11.6058 18.3026 11.4784 17.8395 11.4777L37.0932 31.4237L37.0956 31.4261Z" fill="black"/>
<path d="M37.0955 32.5514L17.7808 52.5849C18.2655 52.5933 18.743 52.462 19.1601 52.2058L42.9833 38.6468L37.0955 32.5514Z" fill="black"/>
<path d="M51.5475 30.2765L43.6354 25.7682L37.6373 31.9899L43.6799 38.2506L51.5451 33.7544C53.2177 32.7992 53.2176 31.2268 51.5475 30.2765Z" fill="black"/>
</svg>
