<svg width="33" height="40" viewBox="0 0 33 40" fill="none" xmlns="http://www.w3.org/2000/svg">
<path d="M27.3806 20.9008C27.3364 15.9874 31.4037 13.597 31.5897 13.4857C29.2862 10.1272 25.7159 9.66837 24.4612 9.63178C21.4625 9.31621 18.5538 11.4261 17.0263 11.4261C15.4682 11.4261 13.116 9.66227 10.5807 9.7141C7.31832 9.76441 4.26629 11.6533 2.5924 14.5864C-0.862093 20.5669 1.7143 29.3556 5.02396 34.1898C6.67956 36.5573 8.61414 39.2008 11.1463 39.1078C13.6236 39.0057 14.549 37.5284 17.5385 37.5284C20.5006 37.5284 21.3695 39.1078 23.952 39.0483C26.6107 39.0057 28.2846 36.6701 29.8823 34.2813C31.7955 31.5677 32.5639 28.8952 32.5944 28.758C32.5319 28.7367 27.4309 26.7899 27.3806 20.9008Z" fill="black"/>
<path d="M22.5023 6.45166C23.8347 4.78539 24.7463 2.51847 24.4932 0.218018C22.5648 0.303389 20.153 1.55195 18.7642 3.18163C17.5355 4.6177 16.4378 6.97151 16.7214 9.18507C18.8877 9.34666 21.1119 8.09201 22.5023 6.45166Z" fill="black"/>
</svg>
