<svg width="38" height="42" viewBox="0 0 38 42" fill="none" xmlns="http://www.w3.org/2000/svg">
<path d="M1.79255 41.3175L21.3935 20.9875L1.80897 0.69397C1.28587 1.00992 0.962158 1.74146 0.962158 2.69904V39.3319C0.969174 40.2895 1.28118 40.9676 1.79255 41.3175V41.3175Z" fill="black"/>
<path d="M22.0956 20.4261L27.9341 14.3696L4.15778 0.847084C3.75741 0.605805 3.30264 0.47836 2.83948 0.477661L22.0932 20.4237L22.0956 20.4261Z" fill="black"/>
<path d="M22.0955 21.5514L2.78076 41.5849C3.26554 41.5933 3.74305 41.462 4.16005 41.2058L27.9833 27.6468L22.0955 21.5514Z" fill="black"/>
<path d="M36.5475 19.2765L28.6354 14.7682L22.6373 20.9899L28.6799 27.2506L36.5451 22.7544C38.2177 21.7992 38.2176 20.2268 36.5475 19.2765Z" fill="black"/>
</svg>
