<svg xmlns="http://www.w3.org/2000/svg" viewBox="0 0 935.36 169.97"><defs><style>.cls-1{fill:#fff;}</style></defs><g id="Layer_2" data-name="Layer 2"><g id="AR-logo-horz-CMYK"><g id="AR-logo-horz-CMYK-2" data-name="AR-logo-horz-CMYK"><g id="AR"><path class="cls-1" d="M140.1,17.94h61.3q25.48,0,39.08,13.6Q252,43,252,62.19v.38q0,16.29-7.95,26.54a46,46,0,0,1-20.79,15L256,152H221.52l-28.74-42.91H169.6V152H140.1Zm59.39,65.32q10.92,0,16.76-5.19t5.84-13.87v-.38q0-9.63-6.13-14.44t-17.05-4.82H169.6v38.7Z"/><polygon class="cls-1" points="0 152.04 56.57 17.94 84.26 17.94 140.23 152.04 109.77 152.04 70.12 54.92 29.87 152.04 0 152.04"/></g><line id="Line" class="cls-1" x1="299.71" y1="0.99" x2="299.71" y2="168.99"/><rect class="cls-1" x="298.72" width="1.97" height="169.97"/><g id="OUTLINES_-_ACCEL_ROBOTICS" data-name="OUTLINES - ACCEL ROBOTICS"><path class="cls-1" d="M363.85,62.27h7.29l19.71,45.12h-8.32L378,96.57H356.81l-4.61,10.82h-8.07ZM375.11,89.6l-7.74-17.92L359.69,89.6Z"/><path class="cls-1" d="M416.84,108.15a22.36,22.36,0,0,1-21.11-14,23.49,23.49,0,0,1-1.74-9V85a23.64,23.64,0,0,1,1.71-9,22.62,22.62,0,0,1,12.11-12.35,23.45,23.45,0,0,1,9.35-1.82,28.41,28.41,0,0,1,5.6.51,22.69,22.69,0,0,1,4.64,1.44A21.76,21.76,0,0,1,431.3,66a28.48,28.48,0,0,1,3.39,2.82l-5.05,5.82a25.12,25.12,0,0,0-5.7-4,14.76,14.76,0,0,0-6.85-1.54,14.09,14.09,0,0,0-5.92,1.25,14.62,14.62,0,0,0-4.7,3.39,15.22,15.22,0,0,0-3.07,5,17.1,17.1,0,0,0-1.09,6.14V85a17.38,17.38,0,0,0,1.09,6.17,15.4,15.4,0,0,0,3.07,5.09,14.58,14.58,0,0,0,4.7,3.43,14.08,14.08,0,0,0,5.92,1.24,14.84,14.84,0,0,0,7-1.56A27.79,27.79,0,0,0,430,95.1l5.05,5.12a28.43,28.43,0,0,1-3.61,3.3,23.7,23.7,0,0,1-4.07,2.49,20.19,20.19,0,0,1-4.76,1.6A28.18,28.18,0,0,1,416.84,108.15Z"/><path class="cls-1" d="M464.07,108.15a22.36,22.36,0,0,1-21.11-14,23.49,23.49,0,0,1-1.74-9V85a23.64,23.64,0,0,1,1.71-9A22.62,22.62,0,0,1,455,63.64a23.45,23.45,0,0,1,9.35-1.82,28.41,28.41,0,0,1,5.6.51,22.69,22.69,0,0,1,4.64,1.44,21.76,21.76,0,0,1,3.9,2.21,28.48,28.48,0,0,1,3.39,2.82l-5.05,5.82a25.12,25.12,0,0,0-5.7-4,14.75,14.75,0,0,0-6.84-1.54,14,14,0,0,0-5.92,1.25,14.55,14.55,0,0,0-4.71,3.39,15.22,15.22,0,0,0-3.07,5,17.1,17.1,0,0,0-1.09,6.14V85a17.38,17.38,0,0,0,1.09,6.17,15.4,15.4,0,0,0,3.07,5.09,14.52,14.52,0,0,0,4.71,3.43,14,14,0,0,0,5.92,1.24,14.9,14.9,0,0,0,7-1.56,28,28,0,0,0,5.82-4.26l5.06,5.12a29.2,29.2,0,0,1-3.62,3.3,24,24,0,0,1-4.06,2.49,20.27,20.27,0,0,1-4.77,1.6A28.18,28.18,0,0,1,464.07,108.15Z"/><path class="cls-1" d="M490.44,62.59h33.15v7.1H498.24V81.21h22.47v7.1H498.24v12h25.67v7.11H490.44Z"/><path class="cls-1" d="M533.32,62.59h7.8v37.69h23.56v7.11H533.32Z"/><path class="cls-1" d="M592.13,62.59h20a21.89,21.89,0,0,1,7.49,1.18,15.09,15.09,0,0,1,5.44,3.3,13,13,0,0,1,2.75,4.29,14.5,14.5,0,0,1,1,5.37v.13a14.58,14.58,0,0,1-.8,5,12.87,12.87,0,0,1-2.21,3.9,13.35,13.35,0,0,1-3.36,2.88,16.73,16.73,0,0,1-4.32,1.83l12.1,17h-9.28l-11-15.62h-9.89v15.62h-7.81ZM611.5,84.8a10.42,10.42,0,0,0,6.74-2,6.71,6.71,0,0,0,2.5-5.49v-.13a6.63,6.63,0,0,0-2.44-5.56,10.94,10.94,0,0,0-6.87-1.9H599.94V84.8Z"/><path class="cls-1" d="M659.78,108.15a23.87,23.87,0,0,1-9.47-1.82,22.32,22.32,0,0,1-7.36-5,22.62,22.62,0,0,1-4.8-7.33,23,23,0,0,1-1.73-8.92V85a23,23,0,0,1,1.73-8.93A22.59,22.59,0,0,1,643,68.7a23.37,23.37,0,0,1,16.9-6.88,24.08,24.08,0,0,1,9.47,1.82,22.3,22.3,0,0,1,12.16,12.29,23.25,23.25,0,0,1,1.73,8.93V85a23.17,23.17,0,0,1-1.73,8.92,22.66,22.66,0,0,1-4.87,7.37,23.31,23.31,0,0,1-16.89,6.87Zm.13-7.23a14.45,14.45,0,0,0,10.83-4.64,15.57,15.57,0,0,0,3.09-5A16.94,16.94,0,0,0,675,85.12V85a17.2,17.2,0,0,0-1.12-6.18,15,15,0,0,0-7.93-8.48,15.36,15.36,0,0,0-12.21,0,14.4,14.4,0,0,0-4.75,3.39,16,16,0,0,0-3.09,5,16.9,16.9,0,0,0-1.11,6.14V85a17.18,17.18,0,0,0,1.11,6.17A15.36,15.36,0,0,0,649,96.22a14.92,14.92,0,0,0,4.81,3.42A14.46,14.46,0,0,0,659.91,100.92Z"/><path class="cls-1" d="M692.8,62.59h20.06q7.73,0,11.69,4a10.09,10.09,0,0,1,3,7.42v.13a11.05,11.05,0,0,1-.54,3.61,10.5,10.5,0,0,1-1.39,2.76,10,10,0,0,1-2,2.08,19.08,19.08,0,0,1-2.38,1.53,23.3,23.3,0,0,1,3.59,1.63,11.64,11.64,0,0,1,2.8,2.21,9.06,9.06,0,0,1,1.81,3,11.52,11.52,0,0,1,.64,4v.13a11.41,11.41,0,0,1-1.18,5.31,10.5,10.5,0,0,1-3.36,3.84,15.9,15.9,0,0,1-5.23,2.34,27.06,27.06,0,0,1-6.78.8H692.8Zm18.53,18.88A11,11,0,0,0,717.45,80a5.08,5.08,0,0,0,2.3-4.57v-.13a4.93,4.93,0,0,0-2-4.19,9.59,9.59,0,0,0-5.84-1.51H700.61V81.47Zm2.3,18.94A11.32,11.32,0,0,0,720,98.88a5.19,5.19,0,0,0,2.29-4.61v-.13A5.1,5.1,0,0,0,720,89.69c-1.51-1-3.82-1.57-6.93-1.57H700.61v12.29Z"/><path class="cls-1" d="M760.38,108.15a23.9,23.9,0,0,1-9.47-1.82,22.42,22.42,0,0,1-7.36-5,22.79,22.79,0,0,1-4.8-7.33A23.2,23.2,0,0,1,737,85.12V85a23.21,23.21,0,0,1,1.72-8.93,22.77,22.77,0,0,1,4.87-7.36,23.27,23.27,0,0,1,7.42-5,23.57,23.57,0,0,1,9.47-1.86A24.09,24.09,0,0,1,770,63.64a22.53,22.53,0,0,1,7.35,5,22.92,22.92,0,0,1,4.81,7.33,23.25,23.25,0,0,1,1.72,8.93V85a23.16,23.16,0,0,1-1.72,8.92,22.82,22.82,0,0,1-4.87,7.37,23.31,23.31,0,0,1-16.9,6.87Zm.13-7.23a14.45,14.45,0,0,0,10.84-4.64,15.92,15.92,0,0,0,3.09-5,16.94,16.94,0,0,0,1.11-6.14V85a17.19,17.19,0,0,0-1.11-6.18,15.42,15.42,0,0,0-3.13-5,15.1,15.1,0,0,0-4.81-3.43,15.34,15.34,0,0,0-12.2,0,14.4,14.4,0,0,0-4.75,3.39,15.61,15.61,0,0,0-3.09,5,16.9,16.9,0,0,0-1.12,6.14V85a17.18,17.18,0,0,0,1.12,6.17,15.34,15.34,0,0,0,3.12,5.06,15.08,15.08,0,0,0,4.82,3.42A14.39,14.39,0,0,0,760.51,100.92Z"/><path class="cls-1" d="M803.14,69.88H788.93V62.59h36.35v7.29H811.07v37.51h-7.93Z"/><path class="cls-1" d="M834.05,62.59h7.81v44.8h-7.81Z"/><path class="cls-1" d="M876,108.15a22.36,22.36,0,0,1-21.11-14,23.49,23.49,0,0,1-1.74-9V85a23.64,23.64,0,0,1,1.71-9A22.59,22.59,0,0,1,867,63.64a23.4,23.4,0,0,1,9.34-1.82,28.33,28.33,0,0,1,5.6.51,22.5,22.5,0,0,1,4.64,1.44A22.2,22.2,0,0,1,890.5,66a30.17,30.17,0,0,1,3.39,2.82l-5.06,5.82a25.12,25.12,0,0,0-5.7-4,14.72,14.72,0,0,0-6.84-1.54,14,14,0,0,0-5.92,1.25,14.66,14.66,0,0,0-4.71,3.39,15.39,15.39,0,0,0-3.07,5,17.32,17.32,0,0,0-1.09,6.14V85a17.61,17.61,0,0,0,1.09,6.17,15.57,15.57,0,0,0,3.07,5.09,14.63,14.63,0,0,0,4.71,3.43,14,14,0,0,0,5.92,1.24,14.87,14.87,0,0,0,7-1.56,28,28,0,0,0,5.82-4.26l5.06,5.12a28.51,28.51,0,0,1-3.62,3.3,23.62,23.62,0,0,1-4.06,2.49,20.12,20.12,0,0,1-4.77,1.6A28.18,28.18,0,0,1,876,108.15Z"/><path class="cls-1" d="M919.42,108a28.36,28.36,0,0,1-9.92-1.76,27.24,27.24,0,0,1-8.77-5.41l4.74-5.63a27.4,27.4,0,0,0,6.59,4.32,18.2,18.2,0,0,0,7.55,1.5,9.8,9.8,0,0,0,5.8-1.53,4.83,4.83,0,0,0,2.14-4.1v-.13a5.14,5.14,0,0,0-.42-2.14,4.6,4.6,0,0,0-1.54-1.76,11.89,11.89,0,0,0-3.08-1.54,43.3,43.3,0,0,0-5.1-1.41A50.13,50.13,0,0,1,911,86.56,17.5,17.5,0,0,1,906.34,84a9.77,9.77,0,0,1-2.88-3.68,12.37,12.37,0,0,1-1-5.24v-.13a12,12,0,0,1,4.29-9.38,14.59,14.59,0,0,1,4.81-2.65,18.81,18.81,0,0,1,6.13-1,25.71,25.71,0,0,1,8.87,1.44A26.22,26.22,0,0,1,934,67.58l-4.22,6a27.76,27.76,0,0,0-6.08-3.42,16.52,16.52,0,0,0-6.08-1.19,8.42,8.42,0,0,0-5.38,1.54,4.66,4.66,0,0,0-1.92,3.77v.13a5.49,5.49,0,0,0,.45,2.28,4.47,4.47,0,0,0,1.63,1.79,14.35,14.35,0,0,0,3.28,1.5q2.08.7,5.29,1.47a50.47,50.47,0,0,1,6.26,2A15.59,15.59,0,0,1,931.7,86a10.58,10.58,0,0,1,2.73,3.65,11.76,11.76,0,0,1,.93,4.83v.13a13,13,0,0,1-1.18,5.63,11.94,11.94,0,0,1-3.27,4.23,14.4,14.4,0,0,1-5,2.62A22,22,0,0,1,919.42,108Z"/></g></g></g></g></svg>