<?xml version="1.0" encoding="utf-8"?>
<!-- Generator: Adobe Illustrator 26.2.1, SVG Export Plug-In . SVG Version: 6.00 Build 0)  -->
<svg version="1.1" id="Layer_1" xmlns="http://www.w3.org/2000/svg" xmlns:xlink="http://www.w3.org/1999/xlink" x="0px" y="0px"
	 viewBox="0 0 78 36" style="enable-background:new 0 0 78 36;" xml:space="preserve">
<g id="a">
</g>
<g id="b">
	<g id="c">
		<g transform="matrix(2,0,0,2,0,0)">
			<path d="M37.5,10.5h-36C0.7,10.5,0,9.8,0,9s0.7-1.5,1.5-1.5h36C38.3,7.5,39,8.2,39,9S38.3,10.5,37.5,10.5z"/>
			<path d="M9,18c-0.4,0-0.8-0.1-1.1-0.4l-7.5-7.5c-0.6-0.6-0.6-1.5,0-2.1l7.5-7.5c0.6-0.6,1.5-0.6,2.1,0c0.6,0.6,0.6,1.5,0,2.1
				L3.6,9l6.4,6.4c0.6,0.6,0.6,1.5,0,2.1C9.8,17.9,9.4,18,9,18z"/>
		</g>
	</g>
</g>
</svg>
