<?xml version="1.0" encoding="UTF-8"?><svg id="a" xmlns="http://www.w3.org/2000/svg" viewBox="0 0 780 240"><defs><style>.b{fill:none;stroke:#000;stroke-miterlimit:10;}</style></defs><line class="b" x1="-240.51" y1="240" y2="-.51"/><line class="b" x1="-232.41" y1="240" x2="8.1" y2="-.51"/><line class="b" x1="-224.31" y1="240" x2="16.2" y2="-.51"/><line class="b" x1="-216.21" y1="240" x2="24.3" y2="-.51"/><line class="b" x1="-208.11" y1="240" x2="32.4" y2="-.51"/><line class="b" x1="-200.01" y1="240" x2="40.5" y2="-.51"/><line class="b" x1="-191.91" y1="240" x2="48.6" y2="-.51"/><line class="b" x1="-183.81" y1="240" x2="56.69" y2="-.51"/><line class="b" x1="-175.71" y1="240" x2="64.79" y2="-.51"/><line class="b" x1="-167.61" y1="240" x2="72.89" y2="-.51"/><line class="b" x1="-159.51" y1="240" x2="80.99" y2="-.51"/><line class="b" x1="-151.41" y1="240" x2="89.09" y2="-.51"/><line class="b" x1="-143.31" y1="240" x2="97.19" y2="-.51"/><line class="b" x1="-135.21" y1="240" x2="105.29" y2="-.51"/><line class="b" x1="-127.12" y1="240" x2="113.39" y2="-.51"/><line class="b" x1="-119.02" y1="240" x2="121.49" y2="-.51"/><line class="b" x1="-110.92" y1="240" x2="129.59" y2="-.51"/><line class="b" x1="-102.82" y1="240" x2="137.69" y2="-.51"/><line class="b" x1="-94.72" y1="240" x2="145.79" y2="-.51"/><line class="b" x1="-86.62" y1="240" x2="153.89" y2="-.51"/><line class="b" x1="-78.52" y1="240" x2="161.98" y2="-.51"/><line class="b" x1="-70.42" y1="240" x2="170.08" y2="-.51"/><line class="b" x1="-62.32" y1="240" x2="178.18" y2="-.51"/><line class="b" x1="-54.22" y1="240" x2="186.28" y2="-.51"/><line class="b" x1="-46.12" y1="240" x2="194.38" y2="-.51"/><line class="b" x1="-38.02" y1="240" x2="202.48" y2="-.51"/><line class="b" x1="-29.92" y1="240" x2="210.58" y2="-.51"/><line class="b" x1="-21.83" y1="240" x2="218.68" y2="-.51"/><line class="b" x1="-13.73" y1="240" x2="226.78" y2="-.51"/><line class="b" x1="-5.63" y1="240" x2="234.88" y2="-.51"/><line class="b" x1="2.47" y1="240" x2="242.98" y2="-.51"/><line class="b" x1="10.57" y1="240" x2="251.08" y2="-.51"/><line class="b" x1="18.67" y1="240" x2="259.18" y2="-.51"/><line class="b" x1="26.77" y1="240" x2="267.28" y2="-.51"/><line class="b" x1="34.87" y1="240" x2="275.37" y2="-.51"/><line class="b" x1="42.97" y1="240" x2="283.47" y2="-.51"/><line class="b" x1="51.07" y1="240" x2="291.57" y2="-.51"/><line class="b" x1="59.17" y1="240" x2="299.67" y2="-.51"/><line class="b" x1="67.27" y1="240" x2="307.77" y2="-.51"/><line class="b" x1="75.37" y1="240" x2="315.87" y2="-.51"/><line class="b" x1="83.46" y1="240" x2="323.97" y2="-.51"/><line class="b" x1="91.56" y1="240" x2="332.07" y2="-.51"/><line class="b" x1="99.66" y1="240" x2="340.17" y2="-.51"/><line class="b" x1="107.76" y1="240" x2="348.27" y2="-.51"/><line class="b" x1="115.86" y1="240" x2="356.37" y2="-.51"/><line class="b" x1="123.96" y1="240" x2="364.47" y2="-.51"/><line class="b" x1="132.06" y1="240" x2="372.57" y2="-.51"/><line class="b" x1="140.16" y1="240" x2="380.66" y2="-.51"/><line class="b" x1="148.26" y1="240" x2="388.76" y2="-.51"/><line class="b" x1="156.36" y1="240" x2="396.86" y2="-.51"/><line class="b" x1="164.46" y1="240" x2="404.96" y2="-.51"/><line class="b" x1="172.56" y1="240" x2="413.06" y2="-.51"/><line class="b" x1="180.66" y1="240" x2="421.16" y2="-.51"/><line class="b" x1="188.76" y1="240" x2="429.26" y2="-.51"/><line class="b" x1="196.85" y1="240" x2="437.36" y2="-.51"/><line class="b" x1="204.95" y1="240" x2="445.46" y2="-.51"/><line class="b" x1="213.05" y1="240" x2="453.56" y2="-.51"/><line class="b" x1="221.15" y1="240" x2="461.66" y2="-.51"/><line class="b" x1="229.25" y1="240" x2="469.76" y2="-.51"/><line class="b" x1="237.35" y1="240" x2="477.86" y2="-.51"/><line class="b" x1="245.45" y1="240" x2="485.95" y2="-.51"/><line class="b" x1="253.55" y1="240" x2="494.05" y2="-.51"/><line class="b" x1="261.65" y1="240" x2="502.15" y2="-.51"/><line class="b" x1="269.75" y1="240" x2="510.25" y2="-.51"/><line class="b" x1="277.85" y1="240" x2="518.35" y2="-.51"/><line class="b" x1="285.95" y1="240" x2="526.45" y2="-.51"/><line class="b" x1="294.05" y1="240" x2="534.55" y2="-.51"/><line class="b" x1="302.14" y1="240" x2="542.65" y2="-.51"/><line class="b" x1="310.24" y1="240" x2="550.75" y2="-.51"/><line class="b" x1="318.34" y1="240" x2="558.85" y2="-.51"/><line class="b" x1="326.44" y1="240" x2="566.95" y2="-.51"/><line class="b" x1="334.54" y1="240" x2="575.05" y2="-.51"/><line class="b" x1="342.64" y1="240" x2="583.15" y2="-.51"/><line class="b" x1="350.74" y1="240" x2="591.24" y2="-.51"/><line class="b" x1="358.84" y1="240" x2="599.34" y2="-.51"/><line class="b" x1="366.94" y1="240" x2="607.44" y2="-.51"/><line class="b" x1="375.04" y1="240" x2="615.54" y2="-.51"/><line class="b" x1="383.14" y1="240" x2="623.64" y2="-.51"/><line class="b" x1="391.24" y1="240" x2="631.74" y2="-.51"/><line class="b" x1="399.34" y1="240" x2="639.84" y2="-.51"/><line class="b" x1="407.43" y1="240" x2="647.94" y2="-.51"/><line class="b" x1="415.53" y1="240" x2="656.04" y2="-.51"/><line class="b" x1="423.63" y1="240" x2="664.14" y2="-.51"/><line class="b" x1="431.73" y1="240" x2="672.24" y2="-.51"/><line class="b" x1="439.83" y1="240" x2="680.34" y2="-.51"/><line class="b" x1="447.93" y1="240" x2="688.44" y2="-.51"/><line class="b" x1="456.03" y1="240" x2="696.54" y2="-.51"/><line class="b" x1="464.13" y1="240" x2="704.63" y2="-.51"/><line class="b" x1="472.23" y1="240" x2="712.73" y2="-.51"/><line class="b" x1="480.33" y1="240" x2="720.83" y2="-.51"/><line class="b" x1="488.43" y1="240" x2="728.93" y2="-.51"/><line class="b" x1="496.53" y1="240" x2="737.03" y2="-.51"/><line class="b" x1="504.63" y1="240" x2="745.13" y2="-.51"/><line class="b" x1="512.72" y1="240" x2="753.23" y2="-.51"/><line class="b" x1="520.82" y1="240" x2="761.33" y2="-.51"/><line class="b" x1="528.92" y1="240" x2="769.43" y2="-.51"/><line class="b" x1="537.02" y1="240" x2="777.53" y2="-.51"/><line class="b" x1="545.12" y1="240" x2="785.63" y2="-.51"/><line class="b" x1="553.22" y1="240" x2="793.73" y2="-.51"/><line class="b" x1="561.32" y1="240" x2="801.83" y2="-.51"/><line class="b" x1="569.42" y1="240" x2="809.92" y2="-.51"/><line class="b" x1="577.52" y1="240" x2="818.02" y2="-.51"/><line class="b" x1="585.62" y1="240" x2="826.12" y2="-.51"/><line class="b" x1="593.72" y1="240" x2="834.22" y2="-.51"/><line class="b" x1="601.82" y1="240" x2="842.32" y2="-.51"/><line class="b" x1="609.92" y1="240" x2="850.42" y2="-.51"/><line class="b" x1="618.02" y1="240" x2="858.52" y2="-.51"/><line class="b" x1="626.11" y1="240" x2="866.62" y2="-.51"/><line class="b" x1="634.21" y1="240" x2="874.72" y2="-.51"/><line class="b" x1="642.31" y1="240" x2="882.82" y2="-.51"/><line class="b" x1="650.41" y1="240" x2="890.92" y2="-.51"/><line class="b" x1="658.51" y1="240" x2="899.02" y2="-.51"/><line class="b" x1="666.61" y1="240" x2="907.12" y2="-.51"/><line class="b" x1="674.71" y1="240" x2="915.21" y2="-.51"/><line class="b" x1="682.81" y1="240" x2="923.31" y2="-.51"/><line class="b" x1="690.91" y1="240" x2="931.41" y2="-.51"/><line class="b" x1="699.01" y1="240" x2="939.51" y2="-.51"/><line class="b" x1="707.11" y1="240" x2="947.61" y2="-.51"/><line class="b" x1="715.21" y1="240" x2="955.71" y2="-.51"/><line class="b" x1="723.31" y1="240" x2="963.81" y2="-.51"/><line class="b" x1="731.4" y1="240" x2="971.91" y2="-.51"/><line class="b" x1="739.5" y1="240" x2="980.01" y2="-.51"/><line class="b" x1="747.6" y1="240" x2="988.11" y2="-.51"/><line class="b" x1="755.7" y1="240" x2="996.21" y2="-.51"/><line class="b" x1="763.8" y1="240" x2="1004.31" y2="-.51"/><line class="b" x1="771.9" y1="240" x2="1012.41" y2="-.51"/><line class="b" x1="780" y1="240" x2="1020.51" y2="-.51"/></svg>