<?xml version="1.0" encoding="UTF-8"?><svg xmlns="http://www.w3.org/2000/svg" viewBox="0 0 124.2 124.2"><defs><style>.d{fill:#fff;}.e{fill:#b2a5d9;}</style></defs><g id="a"/><g id="b"><g id="c"><g><circle class="e" cx="62.1" cy="62.1" r="62.1"/><path d="M62.1,111.94c-13.31,0-25.83-5.18-35.24-14.6-9.41-9.41-14.6-21.93-14.6-35.24s5.18-25.83,14.6-35.24c9.41-9.41,21.93-14.6,35.24-14.6s25.83,5.18,35.24,14.6c9.41,9.41,14.6,21.93,14.6,35.24s-5.18,25.83-14.6,35.24c-9.41,9.41-21.93,14.6-35.24,14.6Zm0-98.25c-12.93,0-25.09,5.04-34.24,14.18s-14.18,21.3-14.18,34.24,5.04,25.09,14.18,34.24,21.3,14.18,34.24,14.18,25.09-5.04,34.24-14.18c9.14-9.14,14.18-21.3,14.18-34.24s-5.04-25.09-14.18-34.24c-9.14-9.14-21.3-14.18-34.24-14.18Z"/><path class="d" d="M71.51,82.44c8.84,1.79,8.5,10.71,8.5,10.71,.04,1.99-.64,1.67-2.56,1.71-3.44,.07-6.61,.11-10.08,.11-4.81,0-5.57-.33-6.2-.54-.73-.24-18.22-11.34-23.63-15.27-.85-.61-2.87-1.7-3.09-2.39-.3-.93,.56-2.01,1.46-3.77,1.2-2.35,3.06-5.5,9.02-10.2,0,0,5.49-9.54,7.65-12.65,1.1-1.59,2.06-2.25,4.11-1.1,2.97,1.67,9.33,5.92,9.33,7.82,0,2.21-1.44,4.5-2.05,9.07-.51,3.78-.7,7.1,.94,10.04,1.54,2.77,5.17,5.78,6.6,6.44Z"/><path d="M79.73,87.86c-.99-2.32-3.14-5.11-7.81-5.78-.37-.19-1.87-.98-3.44-2.37-2.37-2.11-3.72-4.49-3.99-7.07-.59-5.63,1.11-11.35,1.84-13.79,.12-.41,.22-.73,.28-.97,.25-.97,.12-1.81-.4-2.58-.38-.56-.98-1.08-1.92-1.67-.63-1.64-3.13-2.97-5.75-4.38-.53-.28-1.03-.55-1.5-.82-2.47-1.38-3.8-.47-5.05,1.32-2.04,2.94-6.95,11.42-7.61,12.58-6.42,5.08-8.17,8.5-9.11,10.35-.21,.41-.41,.78-.61,1.13-.68,1.22-1.21,2.18-.89,3.18,.23,.69,1.14,1.32,2.5,2.19,.33,.21,.64,.41,.85,.56,5.29,3.84,22.93,15.07,23.82,15.37l.08,.03c.68,.23,1.62,.55,6.34,.55,3.84,0,7.25-.06,10.09-.11,.25,0,.49,0,.7,0,.87,0,1.55,0,2.05-.49,.47-.48,.52-1.2,.51-1.92,.02-.32,.1-2.76-.99-5.3Zm-.72,2.33c-5.9-.06-16.1-.19-17.32-.29h-.03c.22-1.51,1.54-6.99,8.99-6.52,5.8,.36,7.73,4.08,8.35,6.81Zm-14.66-34.78c.98,.78,1.07,1.37,.88,2.11-.06,.21-.15,.52-.27,.92-.75,2.52-2.51,8.43-1.89,14.34,.47,4.48,3.63,7.52,5.92,9.17-.56,.03-1.14,.1-1.72,.22-2.12-1.69-3.97-3.35-5.24-6.07-1.22-2.6-1.39-6.61-.48-10.99,.43-2.08,1.08-4.01,1.65-5.72,.53-1.57,.97-2.88,1.15-3.99Zm-11.2-4.84c1-1.44,1.6-1.77,3.18-.89,.49,.27,1.02,.56,1.53,.83,2.17,1.16,5.15,2.76,5.15,3.93,0,1.06-.54,2.66-1.16,4.51-.59,1.74-1.25,3.72-1.7,5.88-.97,4.68-.75,9.01,.59,11.88,.75,1.6,1.7,3.27,4.88,5.95-1.46,.58-2.84,1.56-3.9,3.17-.81,1.23-1.19,2.47-1.37,3.31-2.41-1.51-7.51-5.04-12.89-8.84,.22-.2,.46-.46,.71-.79,1.12-1.51,1.98-3.91,2.55-7.13,.73-4.15-.65-6.81-1.93-8.31-.95-1.11-1.97-1.76-2.56-2.07,1.53-2.64,5.27-9.02,6.94-11.43Zm-7.79,12.8l.11-.09,.04-.06c1.12,.58,4.86,2.97,3.81,8.91-.93,5.29-2.45,6.88-3.06,7.32-3.27-2.31-6.59-4.68-9.42-6.71,.98-1.86,2.9-4.94,8.52-9.38Zm33.93,29.8c.02,.77-.1,.91-.1,.91-.11,.08-.64,.07-1.03,.07-.22,0-.47,0-.73,0-2.83,.06-6.24,.11-10.06,.11-4.49,0-5.33-.29-5.89-.47l-.06-.02c-1.14-.52-18.15-11.33-23.46-15.18-.25-.18-.57-.39-.92-.61-.57-.36-1.75-1.12-1.92-1.44-.12-.41,.27-1.13,.78-2.04,.09-.15,.18-.32,.27-.49,1.88,1.35,6.71,4.81,11.59,8.24,12.72,8.95,13.36,9.01,13.73,9.05,1.22,.12,14.88,.27,17.75,.3,.09,.83,.06,1.4,.05,1.49v.06Z"/><g><path d="M24.39,47.99c-.46-.23-.5-.65-.3-1.07,.21-.43,.57-.64,1.02-.42l9.54,4.73c.35,.18,.64,.07,.82-.29l2.71-5.47c.2-.4,.61-.49,.99-.3,.37,.18,.6,.58,.4,.98l-2.94,5.93c-.54,1.1-1.26,1.34-2.43,.76l-9.8-4.86Z"/><path d="M41.38,43.39c.12,.35,0,.61-.23,.8-.09,.07-.19,.13-.3,.17-.32,.15-.71,.08-.91-.18-.06-.08-.1-.16-.14-.26l-3.61-12.14c-.19-.6,.01-1.04,.43-1.37,.43-.34,.92-.44,1.46-.12l10.99,6.36c.1,.05,.17,.11,.24,.19,.21,.27,.16,.64-.06,.93-.06,.09-.13,.17-.21,.23-.24,.19-.56,.24-.85,.06l-3.28-1.96-4.68,3.69,1.16,3.61Zm2.22-8.12l-4.61-2.75c-.46-.27-.95-.59-1.43-.95,.24,.56,.45,1.1,.61,1.63l1.57,5.13,3.87-3.05Z"/><path d="M55.24,28.22c2.75,0,4.37,.58,4.89,3.03,.46,2.17-.86,4.16-3.87,4.81-3.84,.82-5.06-1-5.75-2.28-.03-.08-.07-.14-.08-.21-.08-.37,.15-.68,.49-.84,.1-.04,.18-.07,.28-.09,.32-.07,.67,.02,.85,.35,.54,1.06,1.37,2.21,3.83,1.69,1.92-.41,2.92-1.59,2.61-3.04-.29-1.38-1.18-1.83-3.26-1.81h-1.41c-2.64,.02-3.99-.7-4.46-2.91-.38-1.77,.57-3.77,3.74-4.44,3.03-.65,4.42,.75,5.05,1.88,.05,.08,.09,.16,.1,.24,.08,.35-.16,.67-.48,.81-.08,.03-.18,.07-.28,.09-.3,.06-.64,0-.85-.33-.47-.9-1.38-1.7-3.25-1.3-1.95,.42-2.64,1.58-2.4,2.7,.26,1.21,.98,1.71,2.95,1.68h1.3Z"/><path d="M65.47,23.22c-.42-.09-.58-.48-.5-.87,.09-.4,.4-.7,.81-.62l9.27,2.05c.4,.09,.56,.49,.47,.9-.09,.39-.41,.67-.8,.58l-3.82-.85-2.44,11.04c-.1,.45-.51,.61-.96,.51-.45-.1-.76-.41-.65-.87l2.44-11.04-3.82-.85Z"/><path d="M88.34,40.27c1.32,2.41,1.58,4.12-.32,5.74-1.69,1.45-4.07,1.24-6.07-1.1-2.56-2.98-1.54-4.92-.75-6.14,.05-.07,.1-.13,.15-.17,.29-.25,.67-.19,.98,.03,.08,.07,.15,.12,.22,.2,.21,.25,.31,.6,.1,.91-.67,.99-1.28,2.26,.35,4.17,1.28,1.49,2.8,1.8,3.92,.84,1.07-.92,1.04-1.91,.03-3.73l-.68-1.24c-1.28-2.31-1.3-3.84,.42-5.31,1.37-1.18,3.58-1.3,5.69,1.16,2.02,2.35,1.46,4.24,.77,5.34-.04,.08-.1,.15-.16,.21-.27,.24-.66,.18-.94-.04-.07-.05-.15-.12-.22-.2-.2-.24-.3-.56-.11-.9,.57-.85,.83-2.03-.42-3.48-1.3-1.52-2.65-1.56-3.52-.82-.94,.81-1.03,1.68-.06,3.39l.63,1.14Z"/><path d="M97.64,46.88c-.12-.41,.15-.74,.53-.85,.4-.11,.81,.02,.93,.42l2.61,9.13c.11,.4-.17,.73-.57,.84-.38,.11-.78-.04-.89-.43l-1.08-3.76-10.87,3.11c-.45,.13-.78-.15-.91-.6-.13-.45,0-.86,.45-.99l10.87-3.11-1.08-3.76Z"/><path d="M90.63,63.78c-.39-.06-.58,.18-.64,.55l-.87,6.11c-.06,.44-.4,.64-.83,.58-.41-.06-.72-.35-.65-.79l.94-6.6c.17-1.21,.78-1.66,2.07-1.48l9.62,1.38c1.31,.19,1.77,.79,1.59,2l-.92,6.45c-.06,.44-.4,.64-.83,.58-.43-.06-.72-.35-.65-.79l.86-6c.06-.41-.1-.61-.51-.67l-3.53-.5-.83,5.82c-.06,.43-.4,.62-.83,.56-.39-.06-.68-.36-.62-.77l.83-5.82-4.2-.6Z"/><path d="M86.34,74.56c-.41-.26-.42-.68-.17-1.07,.26-.4,.64-.55,1.06-.28l9.17,5.93c1.11,.72,1.27,1.46,.61,2.49l-2.08,3.21c-1.48,2.29-3.48,2.82-5.54,1.49-2.17-1.4-2.57-3.55-1.08-5.85l2.11-3.27-4.1-2.65Zm3.22,6.67c-.94,1.46-.67,2.75,.74,3.66,1.3,.84,2.54,.51,3.48-.93l1.8-2.78c.21-.32,.11-.58-.21-.79l-3.7-2.39-2.1,3.24Z"/></g><path d="M54.13,64.09c-.75,0-1.49-.2-2.15-.6-1.98-1.2-2.59-3.83-1.36-5.84,1.23-2.02,3.84-2.68,5.82-1.47,1.98,1.2,2.59,3.83,1.36,5.84-.59,.97-1.52,1.67-2.62,1.95-.35,.09-.7,.13-1.05,.13Zm.16-7.1c-.96,0-1.91,.5-2.45,1.39-.82,1.35-.42,3.09,.89,3.89,.63,.38,1.38,.49,2.11,.31,.73-.19,1.36-.65,1.76-1.31,.82-1.35,.42-3.09-.89-3.89-.44-.27-.93-.39-1.41-.39Z"/><g><path d="M34.37,68.64c0-.39-.32-.71-.71-.71h-6.84c-.39,0-.71,.32-.71,.71s.32,.71,.71,.71h6.84c.39,0,.71-.32,.71-.71Z"/><path d="M26.26,74.76c0-.39-.32-.71-.71-.71h-3.68c-.39,0-.71,.32-.71,.71s.32,.71,.71,.71h3.68c.39,0,.71-.32,.71-.71Z"/><path d="M28.47,74.05c-.39,0-.71,.32-.71,.71s.32,.71,.71,.71h2.17c.39,0,.71-.32,.71-.71s-.32-.71-.71-.71h-2.17Z"/><path d="M23.15,63.23h6.58c.39,0,.71-.32,.71-.71s-.32-.71-.71-.71h-6.58c-.39,0-.71,.32-.71,.71s.32,.71,.71,.71Z"/><path d="M33.74,63.23h2.78c.39,0,.71-.32,.71-.71s-.32-.71-.71-.71h-2.78c-.39,0-.71,.32-.71,.71s.32,.71,.71,.71Z"/><path d="M43.07,87c0-.39-.32-.71-.71-.71h-8.12c-.39,0-.71,.32-.71,.71s.32,.71,.71,.71h8.12c.39,0,.71-.32,.71-.71Z"/><path d="M30.49,80.88c0-.39-.32-.71-.71-.71h-4.39c-.39,0-.71,.32-.71,.71s.32,.71,.71,.71h4.39c.39,0,.71-.32,.71-.71Z"/><path d="M23.63,68.64c0-.39-.32-.71-.71-.71h-2.12c-.39,0-.71,.32-.71,.71s.32,.71,.71,.71h2.12c.39,0,.71-.32,.71-.71Z"/><path d="M34.65,80.88c0-.39-.32-.71-.71-.71h-1.41c-.39,0-.71,.32-.71,.71s.32,.71,.71,.71h1.41c.39,0,.71-.32,.71-.71Z"/><path d="M31.56,86.29h-1.78c-.39,0-.71,.32-.71,.71s.32,.71,.71,.71h1.78c.39,0,.71-.32,.71-.71s-.32-.71-.71-.71Z"/><path d="M51.36,92.41h-7.91c-.39,0-.71,.32-.71,.71s.32,.71,.71,.71h7.91c.39,0,.71-.32,.71-.71s-.32-.71-.71-.71Z"/><path d="M40.19,92.41h-3.67c-.39,0-.71,.32-.71,.71s.32,.71,.71,.71h3.67c.39,0,.71-.32,.71-.71s-.32-.71-.71-.71Z"/></g></g></g></g></svg>