<?xml version="1.0" encoding="utf-8"?>
<!-- Generator: Adobe Illustrator 26.2.1, SVG Export Plug-In . SVG Version: 6.00 Build 0)  -->
<svg version="1.1" id="Layer_1" xmlns="http://www.w3.org/2000/svg" xmlns:xlink="http://www.w3.org/1999/xlink" x="0px" y="0px"
	 viewBox="0 0 96 66" style="enable-background:new 0 0 96 66;" xml:space="preserve">
<g id="a">
</g>
<g id="b">
	<g id="c">
		<g transform="matrix(2,0,0,2,0,0)">
			<path d="M25.5,33c-1,0-1.9-0.3-2.6-0.9L10.1,24H4.5C2,24,0,22,0,19.5v-6C0,11,2,9,4.5,9h5.6l12.8-8.1c1.4-1,3.1-1.1,4.7-0.4l0,0
				C29,1.3,30,2.8,30,4.5v24c0,1-0.3,1.9-0.9,2.7c-0.7,1-1.8,1.6-3,1.8C25.9,33,25.7,33,25.5,33z M4.5,12C3.7,12,3,12.7,3,13.5v6
				C3,20.3,3.7,21,4.5,21h6c0.3,0,0.6,0.1,0.8,0.2l13.2,8.4c0,0,0.1,0,0.1,0.1c0.3,0.2,0.7,0.3,1.1,0.3c0.4-0.1,0.8-0.3,1-0.6
				c0.2-0.3,0.3-0.6,0.3-0.9v-24c0-0.6-0.3-1.1-0.8-1.3c-0.5-0.3-1.1-0.2-1.6,0.1c0,0-0.1,0-0.1,0.1l-13.2,8.4
				c-0.2,0.1-0.5,0.2-0.8,0.2H4.5z"/>
			<path d="M10.5,24C9.7,24,9,23.3,9,22.5v-12C9,9.7,9.7,9,10.5,9S12,9.7,12,10.5v12C12,23.3,11.3,24,10.5,24z"/>
			<path d="M36,23.3c-0.4,0-0.8-0.1-1.1-0.4c-0.6-0.6-0.6-1.5,0-2.1l10.5-10.5c0.6-0.6,1.5-0.6,2.1,0c0.6,0.6,0.6,1.5,0,2.1
				L37.1,22.8C36.8,23.1,36.4,23.3,36,23.3z"/>
			<path d="M46.5,23.3c-0.4,0-0.8-0.1-1.1-0.4L34.9,12.3c-0.6-0.6-0.6-1.5,0-2.1c0.6-0.6,1.5-0.6,2.1,0l10.5,10.5
				c0.6,0.6,0.6,1.5,0,2.1C47.3,23.1,46.9,23.3,46.5,23.3z"/>
		</g>
	</g>
</g>
</svg>
