<?xml version="1.0" encoding="utf-8"?>
<!-- Generator: Adobe Illustrator 26.2.1, SVG Export Plug-In . SVG Version: 6.00 Build 0)  -->
<svg version="1.1" id="Layer_1" xmlns="http://www.w3.org/2000/svg" xmlns:xlink="http://www.w3.org/1999/xlink" x="0px" y="0px"
	 viewBox="0 0 60 72" style="enable-background:new 0 0 60 72;" xml:space="preserve">
<g id="a">
</g>
<g id="b">
	<g id="c">
		<g transform="matrix(2,0,0,2,0,0)">
			<path d="M7.5,36h-3C2,36,0,34,0,31.5v-27C0,2,2,0,4.5,0h3C10,0,12,2,12,4.5v27C12,34,10,36,7.5,36z M4.5,3C3.7,3,3,3.7,3,4.5v27
				C3,32.3,3.7,33,4.5,33h3C8.3,33,9,32.3,9,31.5v-27C9,3.7,8.3,3,7.5,3H4.5z"/>
			<path d="M25.5,36h-3C20,36,18,34,18,31.5v-27C18,2,20,0,22.5,0h3C28,0,30,2,30,4.5v27C30,34,28,36,25.5,36z M22.5,3
				C21.7,3,21,3.7,21,4.5v27c0,0.8,0.7,1.5,1.5,1.5h3c0.8,0,1.5-0.7,1.5-1.5v-27C27,3.7,26.3,3,25.5,3H22.5z"/>
		</g>
	</g>
</g>
</svg>
