<?xml version="1.0" encoding="utf-8"?>
<!-- Generator: Adobe Illustrator 26.2.1, SVG Export Plug-In . SVG Version: 6.00 Build 0)  -->
<svg version="1.1" id="Layer_1" xmlns="http://www.w3.org/2000/svg" xmlns:xlink="http://www.w3.org/1999/xlink" x="0px" y="0px"
	 viewBox="0 0 83.3 88" style="enable-background:new 0 0 83.3 88;" xml:space="preserve">
<g id="a">
</g>
<g id="b">
	<g id="c">
		<g transform="matrix(2,0,0,2,0,0)">
			<path d="M4.5,44C2,44,0,42,0,39.5v-35C0,3.8,0.2,3,0.5,2.4c1.2-2.2,3.9-3,6.1-1.8L39.3,18c0.8,0.4,1.4,1.1,1.8,1.8
				c1.2,2.2,0.3,4.9-1.8,6.1L6.6,43.5C6,43.8,5.2,44,4.5,44z M4.5,3C4,3,3.5,3.3,3.2,3.8C3.1,4,3,4.3,3,4.5v35C3,40.3,3.7,41,4.5,41
				c0.2,0,0.5-0.1,0.7-0.2l32.7-17.5c0.7-0.4,1-1.3,0.6-2c-0.1-0.3-0.3-0.5-0.6-0.6L5.2,3.2C5,3.1,4.7,3,4.5,3z"/>
		</g>
	</g>
</g>
</svg>
