<svg xmlns="http://www.w3.org/2000/svg" viewBox="0 0 720.21 206.35"><defs><style>.cls-1{fill:#fff;}</style></defs><g id="Layer_2" data-name="Layer 2"><g id="Layer_1-2" data-name="Layer 1"><path class="cls-1" d="M704.7,206.35H15.51A15.53,15.53,0,0,1,0,190.84V15.51A15.53,15.53,0,0,1,15.51,0H704.7a15.53,15.53,0,0,1,15.51,15.51V190.84A15.53,15.53,0,0,1,704.7,206.35ZM15.51,10A5.51,5.51,0,0,0,10,15.51V190.84a5.51,5.51,0,0,0,5.51,5.51H704.7a5.51,5.51,0,0,0,5.51-5.51V15.51A5.51,5.51,0,0,0,704.7,10Z"/><path class="cls-1" d="M294.3,53h15.52a13.46,13.46,0,0,1,5.23,1,13.27,13.27,0,0,1,4.2,2.76,12.94,12.94,0,0,1,0,18.34,13.1,13.1,0,0,1-4.2,2.76,13.46,13.46,0,0,1-5.23,1H299.47V93.18H294.3Zm15.52,21a8.17,8.17,0,0,0,3.19-.61,7.67,7.67,0,0,0,2.56-1.69,7.82,7.82,0,0,0,1.69-2.56,8.65,8.65,0,0,0,0-6.38A7.65,7.65,0,0,0,313,58.44a8.35,8.35,0,0,0-3.19-.61H299.47v16.1Z"/><path class="cls-1" d="M339.94,93.76a13.61,13.61,0,0,1-5.49-1.12,14.15,14.15,0,0,1-4.46-3A14.42,14.42,0,0,1,327,85a14.66,14.66,0,0,1,0-11.29,14.4,14.4,0,0,1,3-4.54,14.15,14.15,0,0,1,4.46-3,14,14,0,0,1,11,0,14.11,14.11,0,0,1,4.45,3,14.42,14.42,0,0,1,3,4.54,14.79,14.79,0,0,1,0,11.29,14.45,14.45,0,0,1-3,4.57,14.11,14.11,0,0,1-4.45,3A13.68,13.68,0,0,1,339.94,93.76Zm0-4.6a9,9,0,0,0,3.62-.72,8.78,8.78,0,0,0,2.9-2,9.64,9.64,0,0,0,2-3.1,11.37,11.37,0,0,0,0-7.91,9.61,9.61,0,0,0-2-3.07,8.81,8.81,0,0,0-2.9-2,9.58,9.58,0,0,0-7.24,0,8.85,8.85,0,0,0-2.91,2,9.59,9.59,0,0,0-2,3.07,11.22,11.22,0,0,0,0,7.91,9.62,9.62,0,0,0,2,3.1,8.82,8.82,0,0,0,2.91,2A9,9,0,0,0,339.94,89.16Z"/><path class="cls-1" d="M365.86,93.18l-9.49-27.59h5.18l6.55,20h.12l6.55-20h4.6l6.55,20H386l6.55-20h5.17l-9.48,27.59h-4.6l-6.55-19.71H377l-6.55,19.71Z"/><path class="cls-1" d="M425.87,88.3a12.09,12.09,0,0,1-2.82,2.7,17.07,17.07,0,0,1-3.59,1.9,13.77,13.77,0,0,1-5.09.86,14.4,14.4,0,0,1-5.63-1.12,14.19,14.19,0,0,1-4.57-3A14.42,14.42,0,0,1,400,79.39a14.67,14.67,0,0,1,1.09-5.66,14.18,14.18,0,0,1,3-4.54,14.35,14.35,0,0,1,4.4-3A12.82,12.82,0,0,1,413.8,65a14.22,14.22,0,0,1,5.4,1,12.67,12.67,0,0,1,4.28,2.82,12.87,12.87,0,0,1,2.82,4.28,14.23,14.23,0,0,1,1,5.41,14,14,0,0,1-.28,2.58H405.18a9.39,9.39,0,0,0,3,5.64A9.79,9.79,0,0,0,411,88.5a8.83,8.83,0,0,0,3.42.66,9.56,9.56,0,0,0,3.62-.63,12.19,12.19,0,0,0,2.59-1.38,9.3,9.3,0,0,0,2.13-2Zm-3.45-11.5A11.69,11.69,0,0,0,421.36,74a8.38,8.38,0,0,0-4.4-3.82,9.52,9.52,0,0,0-6.32,0,8.58,8.58,0,0,0-2.56,1.53A8.32,8.32,0,0,0,406.24,74a10.91,10.91,0,0,0-1.06,2.82Z"/><path class="cls-1" d="M446,69.9a8,8,0,0,0-3.19.64,7.73,7.73,0,0,0-2.56,1.75,7.81,7.81,0,0,0-1.7,2.7,9.92,9.92,0,0,0-.6,3.54V93.18h-4.89V65.59h4.89v3.63h.11a10.58,10.58,0,0,1,2.19-2.13A14.07,14.07,0,0,1,443,65.68a10.33,10.33,0,0,1,3.88-.66H448v5.17c-.16,0-.35-.09-.58-.17a3.7,3.7,0,0,1-.63-.06A4.74,4.74,0,0,0,446,69.9Z"/><path class="cls-1" d="M477,88.3a11.85,11.85,0,0,1-2.81,2.7,17.17,17.17,0,0,1-3.6,1.9,13.71,13.71,0,0,1-5.08.86,14.48,14.48,0,0,1-5.64-1.12,14.29,14.29,0,0,1-8.73-13.25,14.49,14.49,0,0,1,1.09-5.66,14,14,0,0,1,3-4.54,14.23,14.23,0,0,1,4.4-3A12.74,12.74,0,0,1,465,65a14.23,14.23,0,0,1,5.41,1,12.67,12.67,0,0,1,7.09,7.1,14,14,0,0,1,1,5.41,13.27,13.27,0,0,1-.29,2.58H456.33a9.53,9.53,0,0,0,3,5.64,9.84,9.84,0,0,0,2.79,1.75,8.76,8.76,0,0,0,3.42.66,9.59,9.59,0,0,0,3.62-.63,12.44,12.44,0,0,0,2.59-1.38,9,9,0,0,0,2.12-2Zm-3.44-11.5A11.31,11.31,0,0,0,472.51,74a8.32,8.32,0,0,0-1.84-2.29,8.46,8.46,0,0,0-2.56-1.53,9.52,9.52,0,0,0-6.32,0,8.38,8.38,0,0,0-4.4,3.82,11.69,11.69,0,0,0-1.06,2.82Z"/><path class="cls-1" d="M496.85,65a11.57,11.57,0,0,1,4.23.69,12.24,12.24,0,0,1,2.9,1.55,9.81,9.81,0,0,1,2.3,2.24h.06V53h4.88V93.18h-4.88v-3.9h-.06a11.64,11.64,0,0,1-2.3,2.24,13.83,13.83,0,0,1-3,1.55,11.38,11.38,0,0,1-4.17.69,12.46,12.46,0,0,1-5.08-1.06,13.07,13.07,0,0,1-4.2-3,14.54,14.54,0,0,1-2.87-4.57,16,16,0,0,1,0-11.5,14.42,14.42,0,0,1,2.87-4.57,13.07,13.07,0,0,1,4.2-3A12.3,12.3,0,0,1,496.85,65Zm-8.33,14.37a10.58,10.58,0,0,0,.72,3.94,9.9,9.9,0,0,0,1.92,3.1,8.77,8.77,0,0,0,2.82,2,8.63,8.63,0,0,0,6.9,0,8.62,8.62,0,0,0,2.81-2,9.75,9.75,0,0,0,1.93-3.1,11.22,11.22,0,0,0,0-7.91,9.71,9.71,0,0,0-1.93-3.07,8.65,8.65,0,0,0-2.81-2,8.74,8.74,0,0,0-6.9,0,8.8,8.8,0,0,0-2.82,2,9.87,9.87,0,0,0-1.92,3.07A10.51,10.51,0,0,0,488.52,79.39Z"/><path class="cls-1" d="M546.86,93.76a11.38,11.38,0,0,1-4.17-.69,14.07,14.07,0,0,1-3-1.55,11.64,11.64,0,0,1-2.3-2.24h0v3.9h-4.89V53h4.89V69.5h0a10,10,0,0,1,2.3-2.24,12.44,12.44,0,0,1,2.9-1.55,11.57,11.57,0,0,1,4.23-.69A12.35,12.35,0,0,1,552,66.08a12.92,12.92,0,0,1,4.19,3A14.45,14.45,0,0,1,559,73.64a16.13,16.13,0,0,1,0,11.5,14.56,14.56,0,0,1-2.88,4.57,12.92,12.92,0,0,1-4.19,3A12.51,12.51,0,0,1,546.86,93.76Zm-9.48-14.37a10.78,10.78,0,0,0,.71,3.94,9.75,9.75,0,0,0,1.93,3.1,8.56,8.56,0,0,0,2.82,2,8.6,8.6,0,0,0,6.89,0,8.66,8.66,0,0,0,2.82-2,9.93,9.93,0,0,0,1.93-3.1,11.37,11.37,0,0,0,0-7.91,9.89,9.89,0,0,0-1.93-3.07,8.69,8.69,0,0,0-2.82-2,8.71,8.71,0,0,0-6.89,0,8.59,8.59,0,0,0-2.82,2,9.71,9.71,0,0,0-1.93,3.07A10.71,10.71,0,0,0,537.38,79.39Z"/><path class="cls-1" d="M567.49,105.25a13.66,13.66,0,0,1-1.61-.08c-.49-.06-.92-.13-1.26-.2a9.63,9.63,0,0,1-1.15-.29v-4.6a5,5,0,0,0,.92.29c.31.07.65.14,1,.2a7.92,7.92,0,0,0,1.21.09,4.68,4.68,0,0,0,3.16-1,7.55,7.55,0,0,0,2-3l1.44-3.45L562,65.59h5.18l8.27,21.16h.12l8.27-21.16h5.18L576.69,96.92a24.23,24.23,0,0,1-1.81,3.74,12.49,12.49,0,0,1-2,2.58,7.05,7.05,0,0,1-2.41,1.52A8.36,8.36,0,0,1,567.49,105.25Z"/><path class="cls-1" d="M289.47,156.41l16.38-40.23H311l16.38,40.23H322l-4.31-10.92H299.3l-4.37,10.92Zm11.78-15.81h14.37l-7.12-17.7h-.12Z"/><path class="cls-1" d="M354.37,151.24a16.09,16.09,0,0,1-3.11,2.87,17.06,17.06,0,0,1-3.68,2,13,13,0,0,1-5,.9,13.52,13.52,0,0,1-5.49-1.13,14.08,14.08,0,0,1-4.45-3,14.56,14.56,0,0,1-3-4.57,14.81,14.81,0,0,1,0-11.3,14.65,14.65,0,0,1,3-4.54,14.08,14.08,0,0,1,4.45-3,13.51,13.51,0,0,1,5.49-1.12,13,13,0,0,1,4.95.86,21.35,21.35,0,0,1,3.62,1.84,15.37,15.37,0,0,1,2.93,2.76l-3.45,3.44a11.2,11.2,0,0,0-2.07-2.18A12.22,12.22,0,0,0,346,133.5a8.66,8.66,0,0,0-3.45-.66,8.44,8.44,0,0,0-3.5.75,9.45,9.45,0,0,0-2.94,2.07,10.23,10.23,0,0,0-2,3.1,10.41,10.41,0,0,0,0,7.71,10.11,10.11,0,0,0,2,3.1,9.45,9.45,0,0,0,2.94,2.07,8.44,8.44,0,0,0,3.5.75,8.71,8.71,0,0,0,3.48-.66,11.22,11.22,0,0,0,2.61-1.53,11.91,11.91,0,0,0,2.25-2.12Z"/><path class="cls-1" d="M384,151.24a15.81,15.81,0,0,1-3.11,2.87,16.82,16.82,0,0,1-3.68,2,13,13,0,0,1-5,.9,13.52,13.52,0,0,1-5.49-1.13,14.08,14.08,0,0,1-4.45-3,14.56,14.56,0,0,1-3-4.57,14.81,14.81,0,0,1,0-11.3,14.65,14.65,0,0,1,3-4.54,14.08,14.08,0,0,1,4.45-3,13.51,13.51,0,0,1,5.49-1.12,13,13,0,0,1,4.95.86,21.35,21.35,0,0,1,3.62,1.84,15.08,15.08,0,0,1,2.93,2.76l-3.45,3.44a10.91,10.91,0,0,0-2.07-2.18,12.22,12.22,0,0,0-2.53-1.47,8.59,8.59,0,0,0-3.45-.66,8.44,8.44,0,0,0-3.5.75,9.29,9.29,0,0,0-2.93,2.07,10.23,10.23,0,0,0-2,10.81,10,10,0,0,0,2,3.1,9.29,9.29,0,0,0,2.93,2.07,8.44,8.44,0,0,0,3.5.75,8.64,8.64,0,0,0,3.48-.66,11.51,11.51,0,0,0,2.62-1.53,11.85,11.85,0,0,0,2.24-2.12Z"/><path class="cls-1" d="M413.57,151.52a11.93,11.93,0,0,1-2.82,2.71,16.62,16.62,0,0,1-3.59,1.89,13.56,13.56,0,0,1-5.09.87,14.53,14.53,0,0,1-10.2-4.17,14.42,14.42,0,0,1-4.17-10.2,14.76,14.76,0,0,1,1.09-5.67,14.14,14.14,0,0,1,7.39-7.58,12.82,12.82,0,0,1,5.32-1.12,14.22,14.22,0,0,1,5.4,1,12.72,12.72,0,0,1,7.1,7.1,14,14,0,0,1,.72,8H392.88a9.33,9.33,0,0,0,3,5.63,9.6,9.6,0,0,0,2.78,1.76,8.83,8.83,0,0,0,3.42.66,9.36,9.36,0,0,0,3.62-.64,12.19,12.19,0,0,0,2.59-1.38,8.89,8.89,0,0,0,2.13-2ZM410.12,140a11.39,11.39,0,0,0-1.06-2.82,8.56,8.56,0,0,0-1.84-2.3,8.35,8.35,0,0,0-2.56-1.52,9.35,9.35,0,0,0-6.32,0,8.26,8.26,0,0,0-4.4,3.82,10.65,10.65,0,0,0-1.06,2.82Z"/><path class="cls-1" d="M420.29,116.18h4.89v40.23h-4.89Z"/><path class="cls-1" d="M447.88,116.18h16.33a14,14,0,0,1,5.14.91,12.29,12.29,0,0,1,4,2.56,11.21,11.21,0,0,1,2.62,3.91,13.16,13.16,0,0,1,.92,5,11.21,11.21,0,0,1-1.27,5.66,13.28,13.28,0,0,1-2.75,3.51,14.66,14.66,0,0,1-4,2.33l9.49,16.38h-6l-8.62-15.52H453.06v15.52h-5.18ZM464.26,136a7.74,7.74,0,0,0,3-.58,7,7,0,0,0,3.91-3.91,8,8,0,0,0,0-6,7,7,0,0,0-3.91-3.9,7.56,7.56,0,0,0-3-.58h-11.2V136Z"/><path class="cls-1" d="M494.67,157a13.49,13.49,0,0,1-5.49-1.13,14.12,14.12,0,0,1-4.46-3,14.53,14.53,0,0,1-3-4.57,14.81,14.81,0,0,1,0-11.3,14.63,14.63,0,0,1,3-4.54,14.12,14.12,0,0,1,4.46-3,14,14,0,0,1,11,0,14.08,14.08,0,0,1,4.45,3,14.65,14.65,0,0,1,3,4.54,14.81,14.81,0,0,1,0,11.3,14.56,14.56,0,0,1-3,4.57,14.08,14.08,0,0,1-4.45,3A13.52,13.52,0,0,1,494.67,157Zm0-4.6a9,9,0,0,0,3.62-.72,8.78,8.78,0,0,0,2.9-2,9.52,9.52,0,0,0,2-3.11,11.19,11.19,0,0,0,0-7.9,9.6,9.6,0,0,0-2-3.08,8.78,8.78,0,0,0-2.9-2,9.46,9.46,0,0,0-7.24,0,8.93,8.93,0,0,0-2.91,2,9.75,9.75,0,0,0-1.95,3.08,11.19,11.19,0,0,0,0,7.9,9.67,9.67,0,0,0,1.95,3.11,8.93,8.93,0,0,0,2.91,2A9,9,0,0,0,494.67,152.39Z"/><path class="cls-1" d="M529.16,157a11.38,11.38,0,0,1-4.17-.69,13.39,13.39,0,0,1-3-1.56,11.37,11.37,0,0,1-2.3-2.24h-.06v3.91h-4.88V116.18h4.88v16.55h.06a9.81,9.81,0,0,1,2.3-2.24,12.24,12.24,0,0,1,2.9-1.55,11.57,11.57,0,0,1,4.23-.69,12.3,12.3,0,0,1,5.08,1.06,13.07,13.07,0,0,1,4.2,3,14.42,14.42,0,0,1,2.87,4.57,16,16,0,0,1,0,11.49,14.31,14.31,0,0,1-2.87,4.57,12.92,12.92,0,0,1-4.2,3A12.31,12.31,0,0,1,529.16,157Zm-9.49-14.37a10.52,10.52,0,0,0,.72,3.93,9.8,9.8,0,0,0,1.93,3.11,8.62,8.62,0,0,0,2.81,2,8.63,8.63,0,0,0,6.9,0,8.77,8.77,0,0,0,2.82-2,10,10,0,0,0,1.92-3.11,11.19,11.19,0,0,0,0-7.9,10,10,0,0,0-1.92-3.08,8.77,8.77,0,0,0-2.82-2,8.63,8.63,0,0,0-6.9,0,8.62,8.62,0,0,0-2.81,2,9.88,9.88,0,0,0-1.93,3.08A10.51,10.51,0,0,0,519.67,142.62Z"/><path class="cls-1" d="M561.63,157a13.52,13.52,0,0,1-5.49-1.13,14.08,14.08,0,0,1-4.45-3,14.56,14.56,0,0,1-3-4.57,14.81,14.81,0,0,1,0-11.3,14.65,14.65,0,0,1,3-4.54,14.08,14.08,0,0,1,4.45-3,14,14,0,0,1,11,0,14,14,0,0,1,4.45,3,14.65,14.65,0,0,1,3,4.54,14.81,14.81,0,0,1,0,11.3,14.56,14.56,0,0,1-3,4.57,14,14,0,0,1-4.45,3A13.45,13.45,0,0,1,561.63,157Zm0-4.6a9,9,0,0,0,3.62-.72,8.78,8.78,0,0,0,2.9-2,9.52,9.52,0,0,0,2-3.11,11.19,11.19,0,0,0,0-7.9,9.6,9.6,0,0,0-2-3.08,8.78,8.78,0,0,0-2.9-2,9.46,9.46,0,0,0-7.24,0,8.78,8.78,0,0,0-2.9,2,9.6,9.6,0,0,0-2,3.08,11.19,11.19,0,0,0,0,7.9,9.52,9.52,0,0,0,2,3.11,8.78,8.78,0,0,0,2.9,2A9,9,0,0,0,561.63,152.39Z"/><path class="cls-1" d="M584.22,133.42h-5.17v-4.6h3.16a2.16,2.16,0,0,0,1.69-.66,3.21,3.21,0,0,0,.61-2.21v-6.33h4.6v9.2h6.32v4.6h-6.32v14.66a4.57,4.57,0,0,0,1,3.24,3.73,3.73,0,0,0,2.85,1.07,6.07,6.07,0,0,0,1.35-.15,11.73,11.73,0,0,0,1.18-.31,9.43,9.43,0,0,0,1.09-.41v4.6c-.35.16-.73.31-1.15.46s-.77.17-1.27.26a8.08,8.08,0,0,1-1.61.15c-2.76,0-4.83-.72-6.23-2.16s-2.1-3.59-2.1-6.47Z"/><path class="cls-1" d="M602,119.91a2.84,2.84,0,0,1,.26-1.21,3.31,3.31,0,0,1,.69-1,3.19,3.19,0,0,1,1-.69,2.95,2.95,0,0,1,2.42,0,3.37,3.37,0,0,1,1.69,1.69,3,3,0,0,1,.26,1.21,3,3,0,0,1-.26,1.21,3.19,3.19,0,0,1-.69,1,3.31,3.31,0,0,1-1,.69,2.95,2.95,0,0,1-2.42,0,3.37,3.37,0,0,1-1.69-1.69A2.8,2.8,0,0,1,602,119.91Zm.86,8.91h4.89v27.59H602.9Z"/><path class="cls-1" d="M639.86,151.24a15.81,15.81,0,0,1-3.11,2.87,17,17,0,0,1-3.67,2,13.07,13.07,0,0,1-5,.9,13.45,13.45,0,0,1-5.49-1.13,14.12,14.12,0,0,1-4.46-3,14.73,14.73,0,0,1-3-4.57,14.81,14.81,0,0,1,0-11.3,14.83,14.83,0,0,1,3-4.54,14.12,14.12,0,0,1,4.46-3,13.44,13.44,0,0,1,5.49-1.12,13,13,0,0,1,4.94.86,21,21,0,0,1,3.62,1.84,15.08,15.08,0,0,1,2.93,2.76l-3.45,3.44a10.91,10.91,0,0,0-2.07-2.18,12.22,12.22,0,0,0-2.53-1.47,8.58,8.58,0,0,0-3.44-.66,8.45,8.45,0,0,0-3.51.75,9.29,9.29,0,0,0-2.93,2.07,10,10,0,0,0-2,3.1,10.11,10.11,0,0,0,2,10.81,9.29,9.29,0,0,0,2.93,2.07,8.45,8.45,0,0,0,3.51.75,8.63,8.63,0,0,0,3.47-.66,11.51,11.51,0,0,0,2.62-1.53,11.85,11.85,0,0,0,2.24-2.12Z"/><path class="cls-1" d="M646.47,148.65a9.71,9.71,0,0,0,1.89,1.84,9.47,9.47,0,0,0,2.25,1.32,7.43,7.43,0,0,0,3,.58,9.17,9.17,0,0,0,2.42-.29,5.17,5.17,0,0,0,1.72-.8,3.2,3.2,0,0,0,1-1.21,3.42,3.42,0,0,0,.31-1.44,2.55,2.55,0,0,0-1.09-2.18,11,11,0,0,0-2.7-1.41c-1.07-.4-2.25-.81-3.54-1.21a16.84,16.84,0,0,1-3.53-1.55,9,9,0,0,1-2.7-2.44,6.36,6.36,0,0,1-1.09-3.85,6.79,6.79,0,0,1,.66-2.91,7.52,7.52,0,0,1,1.92-2.5,9.68,9.68,0,0,1,3-1.72,11.4,11.4,0,0,1,3.88-.63,13.56,13.56,0,0,1,4.17.57,16.75,16.75,0,0,1,3,1.26,12,12,0,0,1,2.35,1.9L660,135.43a7.07,7.07,0,0,0-1.5-1.32,9.21,9.21,0,0,0-1.9-.86,7.87,7.87,0,0,0-2.64-.41,7.4,7.4,0,0,0-2.07.26,4.42,4.42,0,0,0-1.41.69,3.06,3.06,0,0,0-.83,1,2.66,2.66,0,0,0-.29,1.21,2.39,2.39,0,0,0,1.09,2.07,12.9,12.9,0,0,0,2.71,1.34c1.07.41,2.25.8,3.53,1.18a15.28,15.28,0,0,1,3.54,1.56,9.08,9.08,0,0,1,2.7,2.5,6.73,6.73,0,0,1,1.09,4,7.8,7.8,0,0,1-.69,3.25,7.56,7.56,0,0,1-2,2.64,9.93,9.93,0,0,1-3.25,1.78,13.51,13.51,0,0,1-4.4.67,12.39,12.39,0,0,1-4.51-.75,13.74,13.74,0,0,1-3.25-1.73,11.86,11.86,0,0,1-2.58-2.41Z"/><g id="AR"><path class="cls-1" d="M156.67,52.25H204.3q19.78,0,30.36,10.57,8.93,8.92,8.93,23.81v.3q0,12.64-6.18,20.61a35.67,35.67,0,0,1-16.14,11.68l25.45,37.21H219.93L197.6,123.09h-18v33.34H156.67ZM202.81,103q8.49,0,13-4a13.69,13.69,0,0,0,4.54-10.77V87.9q0-7.49-4.76-11.22t-13.25-3.74H179.59V103Z"/><polygon class="cls-1" points="47.83 156.43 91.78 52.25 113.29 52.25 156.78 156.43 133.12 156.43 102.31 80.98 71.04 156.43 47.83 156.43"/></g></g></g></svg>