<?xml version="1.0" encoding="utf-8"?>
<!-- Generator: Adobe Illustrator 26.0.2, SVG Export Plug-In . SVG Version: 6.00 Build 0)  -->
<svg version="1.1" id="Layer_1" xmlns="http://www.w3.org/2000/svg" xmlns:xlink="http://www.w3.org/1999/xlink" x="0px" y="0px"
	 viewBox="0 0 3243.9 544" style="enable-background:new 0 0 3243.9 544;" xml:space="preserve">
<style type="text/css">
	.st0{opacity:0.5;}
	.st1{fill:none;stroke:#574B38;stroke-width:3.6;stroke-linejoin:bevel;}
</style>
<g id="Layer_2_00000068677508041954247830000002805807492536289416_">
	<g id="Layer_1-2">
		<g id="Layer_2-2">
			<g id="Layer_1-2-2">
				<g class="st0">
					<rect x="901.8" y="362.1" class="st1" width="90" height="180"/>
					<rect x="901.8" y="362.1" class="st1" width="180" height="180"/>
					<rect x="901.8" y="452.1" class="st1" width="180" height="90"/>
					<path class="st1" d="M1171.8,362.1c-49.7,0-90,40.3-90,90s40.3,90,90,90s90-40.3,90-90S1221.5,362.1,1171.8,362.1L1171.8,362.1
						z M1171.8,506.1c-29.8,0-54-24.2-54-54s24.2-54,54-54s54,24.2,54,54S1201.6,506.1,1171.8,506.1L1171.8,506.1z"/>
					<path class="st1" d="M1189.6,449.3c1.6,9.8-5.1,19-14.9,20.6c-9.8,1.6-19-5.1-20.6-14.9c-1.6-9.8,5.1-19,14.9-20.6
						c1.9-0.3,3.8-0.3,5.7,0C1182.3,435.6,1188.4,441.6,1189.6,449.3z"/>
					<rect x="1081.8" y="362.1" class="st1" width="180" height="180"/>
					<path class="st1" d="M1801.9,362.2L1801.9,362.2c0,99.4,80.6,179.9,179.9,179.9"/>
					<rect x="1802" y="362.2" class="st1" width="179.9" height="179.9"/>
					<rect x="1981.8" y="362.1" class="st1" width="179.9" height="179.9"/>
					<rect x="1981.8" y="362.1" class="st1" width="179.9" height="179.9"/>
					<polygon class="st1" points="2161.8,452 1981.9,452 2161.8,362.2 					"/>
					<polygon class="st1" points="2161.9,542.1 1982,542.1 2161.8,452.3 					"/>
					<rect x="1981.8" y="362.1" class="st1" width="179.9" height="179.9"/>
					<rect x="2161.8" y="362.2" class="st1" width="180" height="179.9"/>
					<rect x="2161.9" y="407.1" class="st1" width="180" height="45"/>
					<rect x="2161.9" y="497.1" class="st1" width="180" height="45"/>
					<rect x="1622" y="361.8" class="st1" width="179.9" height="179.9"/>
					<line class="st1" x1="1749.3" y1="541.7" x2="1802" y2="489"/>
					<line class="st1" x1="1781.2" y1="541.7" x2="1802" y2="520.9"/>
					<line class="st1" x1="1717.9" y1="541.4" x2="1801.6" y2="457.6"/>
					<line class="st1" x1="1685.8" y1="541.6" x2="1801.8" y2="425.5"/>
					<line class="st1" x1="1653.9" y1="541.8" x2="1802" y2="393.6"/>
					<line class="st1" x1="1622.1" y1="541.8" x2="1802" y2="361.8"/>
					<line class="st1" x1="1622.1" y1="414.5" x2="1674.7" y2="361.8"/>
					<line class="st1" x1="1622.2" y1="478" x2="1738.2" y2="361.9"/>
					<line class="st1" x1="1622.1" y1="510" x2="1770.2" y2="361.8"/>
					<line class="st1" x1="1622.4" y1="446" x2="1706.2" y2="362.2"/>
					<line class="st1" x1="1622.1" y1="382.7" x2="1642.9" y2="361.9"/>
					<rect x="901.8" y="2.1" class="st1" width="360" height="180.1"/>
					<path class="st1" d="M1044.9,2.1v0.5c0,20.1,16.3,36.5,36.5,36.5c20.1,0,36.4-16.3,36.4-36.5V2.1H1044.9z"/>
					<path class="st1" d="M1189.8,2.1v0.5c0,59.9-48.5,108.4-108.4,108.5S972.9,62.5,972.9,2.6c0,0,0,0,0,0V2.1h-71.1
						c0,99.4,80.6,180,180,180l0,0c99.4,0,180-80.6,180-180.1L1189.8,2.1z"/>
					<rect x="1261.9" y="2.1" class="st1" width="179.9" height="180.1"/>
					<path class="st1" d="M1441.9,2.3L1441.9,2.3c0,99.4,80.6,179.9,180,179.8"/>
					<rect x="1441.8" y="2.2" class="st1" width="359.9" height="179.9"/>
					<path class="st1" d="M1621.9,182.1L1621.9,182.1c99.4,0,180-80.6,179.9-179.9"/>
					<rect x="1981.6" y="2.2" class="st1" width="360" height="179.9"/>
					<path class="st1" d="M2124.8,182.1v-0.4c0.3-20.1,16.9-36.2,37.1-35.8c19.7,0.3,35.5,16.2,35.8,35.8v0.4H2124.8z"/>
					<path class="st1" d="M2269.7,182.1v-0.4c-0.6-59.9-49.6-108-109.5-107.5c-59.1,0.6-106.9,48.3-107.4,107.4v0.4h-71.1
						c0-99.3,80.7-179.9,180.1-179.8s180,80.6,180,179.9L2269.7,182.1z"/>
					<rect x="541.9" y="362.1" class="st1" width="179.9" height="179.9"/>
					<rect x="631.8" y="362.2" class="st1" width="45" height="179.9"/>
					<rect x="541.9" y="362.2" class="st1" width="45" height="179.9"/>
					<rect x="721.8" y="362.1" class="st1" width="179.9" height="179.9"/>
					<rect x="811.8" y="362.1" class="st1" width="45" height="179.9"/>
					<rect x="721.8" y="362.2" class="st1" width="45" height="179.9"/>
					<line class="st1" x1="2.1" y1="541.7" x2="182.1" y2="541.7"/>
					<polyline class="st1" points="2,361.9 181.9,361.9 181.9,541.8 2,541.8 					"/>
					<line class="st1" x1="181.8" y1="489.1" x2="129.1" y2="541.8"/>
					<line class="st1" x1="181.6" y1="425.6" x2="65.6" y2="541.7"/>
					<line class="st1" x1="181.7" y1="361.9" x2="1.9" y2="541.8"/>
					<line class="st1" x1="54.5" y1="361.9" x2="1.8" y2="414.6"/>
					<line class="st1" x1="118" y1="362" x2="2" y2="478.1"/>
					<path class="st1" d="M181.7,181.9L181.7,181.9c-99.3,0-179.9,80.5-179.9,179.9c0,0,0,0,0,0v0.1"/>
					<polyline class="st1" points="1.9,181.9 181.8,181.9 181.8,361.8 1.9,361.8 					"/>
					<polyline class="st1" points="1.8,1.9 181.8,1.9 181.8,181.8 1.8,181.8 					"/>
					<polygon class="st1" points="181.7,1.9 1.8,1.9 181.8,181.8 					"/>
					<rect x="361.8" y="2.2" class="st1" width="359.8" height="180"/>
					<ellipse class="st1" cx="541.6" cy="92.3" rx="89.8" ry="89.9"/>
					<path class="st1" d="M721.8,2.4h-0.2c-49.6,0-89.9,40.2-89.9,89.9s40.2,89.9,89.9,89.9h0.2"/>
					<path class="st1" d="M361.8,2.4h0.2c49.6,0,89.9,40.2,89.9,89.9s-40.2,89.9-89.9,89.9h-0.2"/>
					<line class="st1" x1="1801.8" y1="542.2" x2="1981.8" y2="542.2"/>
					<line class="st1" x1="1846.8" y1="542.1" x2="1891.8" y2="542.1"/>
					<line class="st1" x1="1936.8" y1="542.1" x2="1981.8" y2="542.1"/>
					<line class="st1" x1="1981.8" y1="542.2" x2="2161.8" y2="542.2"/>
					<line class="st1" x1="1981.8" y1="542.2" x2="2161.8" y2="542.2"/>
					<line class="st1" x1="1981.8" y1="542.1" x2="2071.7" y2="542.1"/>
					<line class="st1" x1="2072" y1="542.1" x2="2161.8" y2="542.1"/>
					<line class="st1" x1="1981.8" y1="542.2" x2="2161.8" y2="542.2"/>
					<line class="st1" x1="1081.8" y1="542.1" x2="1261.8" y2="542.1"/>
					<line class="st1" x1="1441.8" y1="542.1" x2="1621.8" y2="542.1"/>
					<rect x="1441.8" y="362.1" class="st1" width="179.9" height="180"/>
					<rect x="1441.9" y="407.1" class="st1" width="179.9" height="45"/>
					<rect x="1441.9" y="497.1" class="st1" width="179.9" height="45"/>
					<line class="st1" x1="1441.8" y1="542.1" x2="1261.8" y2="542.1"/>
					<line class="st1" x1="1441.8" y1="542.1" x2="1261.8" y2="542.1"/>
					<line class="st1" x1="1801.8" y1="542.1" x2="1621.8" y2="542.1"/>
					<line class="st1" x1="1801.8" y1="542.1" x2="1621.8" y2="542.1"/>
					<line class="st1" x1="2161.8" y1="542.1" x2="2341.8" y2="542.1"/>
					<line class="st1" x1="2251.8" y1="542.1" x2="2341.8" y2="542.1"/>
					<line class="st1" x1="2341.8" y1="362.2" x2="2521.8" y2="362.1"/>
					<path class="st1" d="M2521.8,542.1c0-99.4-80.6-180-179.9-180h-0.1"/>
					<path class="st1" d="M2431.8,541.7c0-49.8-40.2-90.2-90-90.4"/>
					<rect x="2341.8" y="362.1" class="st1" width="179.9" height="179.5"/>
					<line class="st1" x1="361.8" y1="542.2" x2="541.8" y2="542.1"/>
					<path class="st1" d="M361.9,542.2L361.9,542.2"/>
					<line class="st1" x1="901.8" y1="542.1" x2="1081.8" y2="542.1"/>
					<rect x="3061.9" y="182.1" class="st1" width="180" height="179.9"/>
					<rect x="3106.9" y="182.1" class="st1" width="45" height="179.9"/>
					<rect x="3196.8" y="182.1" class="st1" width="45" height="179.9"/>
					<rect x="3061.9" y="2.1" class="st1" width="180" height="180"/>
					<circle class="st1" cx="3151.8" cy="92" r="90"/>
					<circle class="st1" cx="3151.6" cy="91.8" r="45.2"/>
					<rect x="2881.9" y="2" class="st1" width="180" height="360"/>
					<path class="st1" d="M2881.9,362L2881.9,362c99.4,0,180-80.6,180-180S2981.3,2,2881.9,2h-0.1L2881.9,362z"/>
					<path class="st1" d="M2881.9,272c49.9,0,90.4-40.5,90.4-90.4s-40.5-90.4-90.4-90.4c0,0,0,0,0,0V272z"/>
					<rect x="2882.1" y="361.8" class="st1" width="360" height="180"/>
					<ellipse class="st1" cx="3062.1" cy="451.8" rx="90" ry="90"/>
					<circle class="st1" cx="3062.1" cy="451.8" r="30.1"/>
					<path class="st1" d="M2882.1,541.8c49.7,0,90-40.3,90-90s-40.3-90-90-90l0,0"/>
					<path class="st1" d="M3242.1,541.8c-49.7,0-90-40.3-90-90s40.3-90,90-90"/>
					<line class="st1" x1="3062.1" y1="541.8" x2="3242.1" y2="541.8"/>
					<line class="st1" x1="2882.1" y1="541.8" x2="3062.1" y2="541.8"/>
					<rect x="1802" y="2.1" class="st1" width="179.9" height="180"/>
					<rect x="1801.9" y="2" class="st1" width="179.9" height="180"/>
					<ellipse class="st1" cx="1891.9" cy="137" rx="45" ry="45"/>
					<circle class="st1" cx="1891.9" cy="137" r="15"/>
					<ellipse class="st1" cx="1892" cy="46.9" rx="44.9" ry="44.9"/>
					<circle class="st1" cx="1892" cy="46.9" r="15"/>
					<path class="st1" d="M1802,91.8h0.1c24.8-0.4,44.6-20.8,44.2-45.5C1846,22,1826.4,2.4,1802.1,2h-0.1"/>
					<path class="st1" d="M1802,182c24.9,0,45-20.1,45-45s-20.1-45-45-45"/>
					<path class="st1" d="M1981.9,91.8h-0.1c-24.8-0.4-44.6-20.8-44.2-45.5c0.4-24.3,19.9-43.8,44.2-44.2h0.1"/>
					<path class="st1" d="M1981.9,182c-24.9,0-45-20.1-45-45s20.1-45,45-45"/>
					<rect x="2701.8" y="2.2" class="st1" width="180" height="180"/>
					<polygon class="st1" points="2701.8,2.2 2701.8,182.1 2881.8,2.2 					"/>
					<rect x="901.8" y="181.8" class="st1" width="180" height="180"/>
					<path class="st1" d="M1081.8,361.8c0-49.7-40.3-90-90-90c-49.7,0-90,40.3-90,90"/>
					<path class="st1" d="M901.8,181.8c0,49.7,40.3,90,90,90s90-40.3,90-90"/>
					<rect x="721.8" y="1.8" class="st1" width="180" height="360"/>
					<path class="st1" d="M721.8,218.7h0.5c20.1,0,36.5-16.3,36.5-36.4s-16.3-36.5-36.5-36.5h-0.5V218.7z"/>
					<path class="st1" d="M721.8,73.8h0.5c59.9-0.6,108.9,47.5,109.5,107.4s-47.5,108.9-107.4,109.5c0,0-0.1,0-0.1,0h-2.5v71.1
						c99.4,0,180-80.6,180-180s-80.6-180-180-180V73.8z"/>
					<rect x="361.8" y="361.8" class="st1" width="179.9" height="180"/>
					<rect x="361.9" y="406.8" class="st1" width="179.9" height="45"/>
					<rect x="361.9" y="496.8" class="st1" width="179.9" height="45"/>
					<rect x="361.8" y="181.8" class="st1" width="179.9" height="180"/>
					<rect x="361.9" y="226.8" class="st1" width="179.9" height="45"/>
					<rect x="361.9" y="316.8" class="st1" width="179.9" height="45"/>
					<rect x="541.8" y="181.8" class="st1" width="180" height="180"/>
					<circle class="st1" cx="631.8" cy="271.8" r="90"/>
					<circle class="st1" cx="632.1" cy="271.6" r="45.2"/>
					<path class="st1" d="M361.8,1.9L361.8,1.9c-99.4,0-180,80.5-180,179.9l0,0"/>
					<rect x="181.9" y="1.8" class="st1" width="180" height="360"/>
					<path class="st1" d="M181.8,181.8L181.8,181.8c0,99.4,80.6,179.9,179.9,179.9"/>
					<rect x="181.7" y="361.8" class="st1" width="180" height="180"/>
					<path class="st1" d="M361.7,361.8c-49.7,0-90,40.2-90.1,89.9c0,49.7,40.2,90,89.9,90.1l0,0h0.1"/>
					<path class="st1" d="M181.7,541.8c49.7,0,90-40.3,90-90s-40.3-90-90-90l0,0"/>
					<rect x="2341.8" y="227.1" class="st1" width="180" height="45"/>
					<rect x="2341.8" y="317" class="st1" width="180" height="45"/>
					<rect x="2341.8" y="182.1" class="st1" width="180" height="180"/>
					<rect x="2341.8" y="2.1" class="st1" width="180" height="180"/>
					<path class="st1" d="M2521.8,2.1c-49.7,0-90,40.3-90,90s40.3,90,90,90c0,0,0,0,0,0l0,0"/>
					<path class="st1" d="M2341.8,182.1c49.7,0,90-40.3,90-90s-40.3-90-90-90"/>
					<rect x="1081.8" y="181.8" class="st1" width="180" height="180"/>
					<line class="st1" x1="1134.5" y1="361.8" x2="1081.9" y2="309.1"/>
					<line class="st1" x1="1198" y1="361.6" x2="1082" y2="245.6"/>
					<line class="st1" x1="1261.8" y1="361.8" x2="1081.8" y2="181.8"/>
					<line class="st1" x1="1261.8" y1="234.5" x2="1209.1" y2="181.8"/>
					<line class="st1" x1="1261.7" y1="298" x2="1145.6" y2="181.9"/>
					<rect x="2522.1" y="2.1" class="st1" width="179.8" height="179.6"/>
					<line class="st1" x1="2649.2" y1="2.1" x2="2701.8" y2="54.6"/>
					<line class="st1" x1="2585.7" y1="2.2" x2="2701.7" y2="118"/>
					<line class="st1" x1="2522" y1="2.1" x2="2701.8" y2="181.7"/>
					<line class="st1" x1="2522.1" y1="129.1" x2="2574.7" y2="181.6"/>
					<line class="st1" x1="2522.2" y1="65.7" x2="2638.1" y2="181.5"/>
					<rect x="1982.2" y="182.3" class="st1" width="179.9" height="179.9"/>
					<line class="st1" x1="2109.4" y1="182.3" x2="2162.1" y2="235"/>
					<line class="st1" x1="2045.9" y1="182.5" x2="2162" y2="298.5"/>
					<line class="st1" x1="1982.2" y1="182.3" x2="2162.1" y2="362.2"/>
					<line class="st1" x1="1982.2" y1="309.6" x2="2034.9" y2="362.2"/>
					<line class="st1" x1="1982.3" y1="246.1" x2="2098.4" y2="362.1"/>
					<path class="st1" d="M1801.9,181.8L1801.9,181.8c0,99.4,80.6,180,179.9,179.9"/>
					<rect x="1801.5" y="181.8" class="st1" width="180" height="180"/>
					<rect x="2252.1" y="182.3" class="st1" width="90" height="179.9"/>
					<rect x="2162.1" y="182.3" class="st1" width="179.9" height="179.9"/>
					<rect x="1441.8" y="181.8" class="st1" width="180" height="179.9"/>
					<ellipse class="st1" cx="1531.8" cy="271.8" rx="90" ry="90"/>
					<ellipse class="st1" cx="1531.6" cy="271.5" rx="45.2" ry="45.2"/>
					<rect x="1621.8" y="181.8" class="st1" width="180" height="180"/>
					<polygon class="st1" points="1621.8,181.8 1621.8,361.8 1801.8,181.8 					"/>
					<rect x="1261.8" y="181.8" class="st1" width="179.9" height="360"/>
					<path class="st1" d="M1261.9,541.8L1261.9,541.8c99.4,0,179.9-80.6,179.9-180s-80.6-180-179.9-179.9h-0.1L1261.9,541.8z"/>
					<path class="st1" d="M1261.8,451.8c49.9,0,90.4-40.5,90.4-90.4s-40.5-90.4-90.4-90.4V451.8z"/>
					<rect x="2701.9" y="181.6" class="st1" width="180" height="180"/>
					<ellipse class="st1" cx="2791.9" cy="271.6" rx="90" ry="90"/>
					<ellipse class="st1" cx="2792.1" cy="271.8" rx="30.2" ry="30.2"/>
					<rect x="2701.8" y="406.6" class="st1" width="180" height="45"/>
					<rect x="2701.9" y="496.6" class="st1" width="180" height="45"/>
					<rect x="2701.9" y="361.6" class="st1" width="180" height="179.9"/>
					<rect x="2521.9" y="181.6" class="st1" width="180" height="359.8"/>
					<ellipse class="st1" cx="2612" cy="361.8" rx="89.9" ry="89.8"/>
					<path class="st1" d="M2522.1,181.6v0.2c0,49.6,40.3,89.9,89.9,89.8c49.6,0,89.8-40.2,89.8-89.8v-0.2"/>
					<path class="st1" d="M2522.1,541.6v-0.2c0-49.6,40.3-89.9,89.9-89.8c49.6,0,89.8,40.2,89.8,89.8v0.2"/>
					<line class="st1" x1="542.3" y1="541.7" x2="902.3" y2="541.7"/>
					<line class="st1" x1="722.3" y1="541.7" x2="902.3" y2="541.7"/>
				</g>
			</g>
		</g>
	</g>
</g>
</svg>
