<?xml version="1.0" encoding="UTF-8"?><svg xmlns="http://www.w3.org/2000/svg" viewBox="0 0 244.71 364.7"><defs><style>.d{fill:#fff;}</style></defs><g id="a"/><g id="b"><g id="c"><g><g><path class="d" d="M182.35,44.74c6.82,0,12.38-5.55,12.38-12.38s-5.55-12.38-12.38-12.38-12.38,5.55-12.38,12.38,5.55,12.38,12.38,12.38Zm0-20.03c4.22,0,7.65,3.43,7.65,7.65s-3.43,7.65-7.65,7.65-7.65-3.43-7.65-7.65,3.43-7.65,7.65-7.65Z"/><path class="d" d="M62.37,19.98c-6.82,0-12.38,5.55-12.38,12.38s5.55,12.38,12.38,12.38,12.38-5.55,12.38-12.38-5.55-12.38-12.38-12.38Zm0,20.03c-4.22,0-7.65-3.43-7.65-7.65s3.43-7.65,7.65-7.65,7.65,3.43,7.65,7.65-3.43,7.65-7.65,7.65Z"/><path class="d" d="M242.35,0H2.38L.02,2.36V62.35h0V242.39h-.01c0,.31,0,.61,.01,.92v119l2.36,2.36H120.91c.48,0,.96,.02,1.44,.02v-.02h0v.02h0c.51,0,1.02-.01,1.54-.02h118.45l2.36-2.36V2.36l-2.36-2.36Zm-2.36,59.88c-14.14-1.2-25.27-13.08-25.27-27.53s11.14-26.32,25.27-27.53V59.88Zm0,182.51h-.04c0,64.32-51.92,116.74-116.05,117.56h-3.13c-63.82-.82-115.54-52.74-116.04-116.64V64.72H239.98V242.39ZM30.01,32.36c0,14.44-11.14,26.32-25.27,27.53V4.83c14.14,1.2,25.27,13.09,25.27,27.53Zm62.35,12.11c2.62,6.48,7.28,11.92,13.18,15.52h-26.36c5.9-3.6,10.56-9.05,13.18-15.52Zm-30,15.52c-15.24,0-27.63-12.4-27.63-27.63S47.13,4.72,62.37,4.72s27.63,12.4,27.63,27.63-12.4,27.63-27.63,27.63Zm-16.82,0H19.19c5.9-3.6,10.56-9.05,13.18-15.52,2.62,6.48,7.28,11.92,13.18,15.52Zm119.98,0h-26.36c5.9-3.6,10.56-9.05,13.18-15.52,2.62,6.48,7.28,11.92,13.18,15.52Zm-10.82-27.64c0-15.24,12.4-27.63,27.63-27.63s27.63,12.4,27.63,27.63-12.4,27.63-27.63,27.63-27.63-12.4-27.63-27.63Zm44.45,27.64c5.9-3.6,10.56-9.05,13.18-15.52,2.62,6.48,7.28,11.92,13.18,15.52h-26.36ZM225.53,4.72c-5.9,3.6-10.56,9.05-13.18,15.52-2.62-6.48-7.28-11.92-13.18-15.52h26.36Zm-59.99,0c-5.9,3.6-10.56,9.05-13.18,15.52-2.62-6.48-7.28-11.92-13.18-15.52h26.36Zm-43.18,0c15.24,0,27.63,12.4,27.63,27.63s-12.4,27.63-27.63,27.63h0c-15.24,0-27.63-12.4-27.63-27.63s12.4-27.63,27.63-27.63h0Zm-16.82,0c-5.9,3.6-10.56,9.05-13.18,15.52-2.62-6.47-7.28-11.92-13.18-15.52h26.36Zm-59.99,0c-5.9,3.6-10.56,9.05-13.18,15.52-2.62-6.47-7.28-11.92-13.18-15.52h26.36ZM4.74,359.96v-83.83c11.6,40.36,43.46,72.22,83.84,83.83H4.74Zm151.39,0c40.41-11.62,72.31-43.56,83.86-84v84h-83.86Z"/><path class="d" d="M44.54,156.95c1.02,2.37,3.35,3.91,5.93,3.91h1.82c1.3,0,2.49,.76,3.01,1.96l44.86,105.05c.85,2.01,2.82,3.31,5,3.3h31.6c2.18,0,4.15-1.29,5-3.29l55.01-128.35c1.18-2.76-.1-5.96-2.87-7.15-.68-.29-1.4-.44-2.14-.44h-58.8c-2.28,0-4.13,1.85-4.13,4.12,0,.56,.11,1.11,.33,1.62l8.24,19.26c1.02,2.37,3.35,3.91,5.93,3.91h.43c1.81,0,3.28,1.48,3.27,3.3,0,.44-.09,.87-.26,1.27l-19.28,45.32c-1.17,2.77-4.36,4.08-7.13,2.91-1.31-.55-2.36-1.6-2.91-2.91l-31.43-75.44c-.84-2.03-2.83-3.35-5.02-3.35H40.1c-2.28,0-4.13,1.85-4.13,4.12,0,.56,.11,1.11,.33,1.62l8.23,19.26Z"/></g><circle class="d" cx="176.93" cy="256.32" r="14.86"/></g></g></g></svg>