<?xml version="1.0" encoding="utf-8"?>
<!-- Generator: Adobe Illustrator 26.2.1, SVG Export Plug-In . SVG Version: 6.00 Build 0)  -->
<svg version="1.1" id="Layer_1" xmlns="http://www.w3.org/2000/svg" xmlns:xlink="http://www.w3.org/1999/xlink" x="0px" y="0px"
	 viewBox="0 0 426 121.6" style="enable-background:new 0 0 426 121.6;" xml:space="preserve">
<style type="text/css">
	.st0{fill:#13121B;}
	.st1{fill:#C99B3D;}
</style>
<g id="a">
</g>
<g id="b">
	<g id="c">
		<g>
			<g>
				<path class="st0" d="M134.3,0H83.6c-2,0-3.6,1.6-3.6,3.6c0,0.5,0.1,1,0.3,1.4l7.1,16.6c0.9,2,2.9,3.4,5.1,3.4H93
					c1.6,0,2.8,1.3,2.8,2.8c0,0.4-0.1,0.8-0.2,1.1L78.9,67.9c-1,2.4-3.8,3.5-6.2,2.5c-1.1-0.5-2-1.4-2.5-2.5l-27.1-65
					C42.5,1.1,40.7,0,38.8,0H3.6C1.6,0,0,1.6,0,3.6C0,4,0.1,4.5,0.3,5l7.1,16.6c0.9,2,2.9,3.4,5.1,3.4h1.6c1.1,0,2.1,0.7,2.6,1.7
					l38.7,90.6c0.7,1.7,2.4,2.8,4.3,2.8h27.2c1.9,0,3.6-1.1,4.3-2.8L138.6,6.5c1-2.4-0.1-5.1-2.5-6.2C135.6,0.1,135,0,134.3,0
					L134.3,0z"/>
				<path class="st0" d="M334,31.3c-16.3-7.8-35.3-7.6-51.5,0.4c-15.6,8-25.2,24.2-24.9,41.7c-0.4,17.9,9.8,34.3,25.9,42
					c8.2,4.1,17.8,6.2,28.6,6.2c16,0,28.5-4.3,37.5-12.9c1.2-1.2,1.3-3.1,0.1-4.3l0,0l-13.1-13.7c-1.1-1.1-2.8-1.3-4.1-0.3
					c-5.5,4.4-12.3,6.6-19.3,6.3c-5.9,0-10.9-1.3-14.8-3.9c-2.5-1.6-4.6-3.8-6.1-6.5c-0.8-1.5-0.3-3.4,1.2-4.2
					c0.5-0.3,1-0.4,1.5-0.4h60.1c1.6,0,3-1.3,3.1-2.9c0.2-3.3,0.3-5,0.3-5.2c0-10-2.2-18.6-6.6-25.8C347.7,40.8,341.5,35,334,31.3
					L334,31.3z M324,64.6h-30c-1.7,0-3.1-1.4-3.1-3c0-0.4,0.1-0.7,0.2-1.1c1.1-2.9,2.9-5.5,5.3-7.5c7.4-5.7,17.8-5.7,25.2,0
					c2.4,2,4.2,4.6,5.3,7.5c0.6,1.6-0.2,3.3-1.8,3.9C324.7,64.6,324.3,64.7,324,64.6L324,64.6z"/>
				<path class="st0" d="M425.8,113.8l-6-17c-0.6-1.6-2.3-2.4-4-1.9c-0.1,0-0.1,0-0.2,0.1c-2.2,0.9-4.6,1.4-7,1.3
					c-2.7,0.1-5.3-0.9-7.1-2.8c-1.8-1.9-2.7-4.5-2.7-7.8V57.9c0-1.7,1.4-3.1,3.1-3.1h15.1c1.7,0,3.1-1.4,3.1-3.1V33.6
					c0-1.7-1.4-3.1-3.1-3.1H402c-1.7,0-3.1-1.4-3.1-3.1V3.1c0-1.7-1.4-3.1-3.1-3.1c0,0,0,0,0,0h-26.4c-1.7,0-3.1,1.4-3.1,3.1v83
					c0,11.8,3.3,20.7,9.8,26.6s15.8,8.9,28,8.9c4.2,0,8.5-0.4,12.6-1.4c2.6-0.6,5.2-1.5,7.6-2.6
					C425.7,116.9,426.3,115.3,425.8,113.8L425.8,113.8z"/>
				<path class="st0" d="M252.7,95.7h-1.1c-1.6,0-2.8-1.3-2.8-2.8l0,0V3.1c0-1.7-1.4-3.1-3.1-3.1h-33.2c-1.7,0-3.1,1.4-3.1,3.1
					c0,0,0,0,0,0v18.2c0,1.7,1.4,3.1,3.1,3.1h0.9c1.6,0,2.8,1.3,2.8,2.8v65.7c0,1.6-1.3,2.8-2.8,2.8h-0.8c-1.7,0-3.1,1.4-3.1,3.1
					c0,0,0,0,0,0V117c0,1.7,1.4,3.1,3.1,3.1h40.2c1.7,0,3.1-1.4,3.1-3.1V98.8C255.8,97.1,254.4,95.7,252.7,95.7L252.7,95.7z"/>
				<path class="st0" d="M203.7,48.7c-1.9-4.8-4.9-9.1-8.8-12.6c-8.1-7-19.9-10.5-35.3-10.5c-4.4,0-8.7,0.3-13.1,1
					c-2.3,0.3-4.2,1.9-5.2,4l-6.7,15.8c-1,2.4,0.1,5.2,2.6,6.3c1.1,0.5,2.3,0.5,3.4,0.1l0.6-0.2c4.4-1.4,8.9-2.1,13.6-2.2
					c10.8,0,17.2,3.6,19.1,10.9c0.4,1.6-0.6,3.3-2.2,3.7c-0.2,0.1-0.5,0.1-0.8,0.1H156c-14.1,0-24.4,2.4-31.2,7.3
					S114.7,84.2,114.7,93c-0.1,5.2,1.3,10.3,4,14.7c2.9,4.5,7.1,8,11.9,10.2c5.3,2.5,11.1,3.8,17,3.8c15.1,0,22.3-13,26.1-18.2
					c1.6-2.2,7-9.4,14.2-11.2c0.5-0.1,0.7-0.6-1.2-0.6c-11.3,0-17.1,5-19.8,6.7c-2.5,1.8-5.5,2.7-8.5,2.8c-3.8,0-6.8-0.8-8.9-2.5
					c-2.1-1.6-3.4-4.2-3.3-6.9c0-6.3,4.7-9.4,14.2-9.4h28.3c9.8,0,17.7-7.9,17.7-17.7l0,0v-2l0,0C206.5,57.7,205.5,53,203.7,48.7
					L203.7,48.7z"/>
			</g>
			<circle class="st1" cx="192.4" cy="107.2" r="12.8"/>
		</g>
	</g>
</g>
</svg>
