<svg xmlns="http://www.w3.org/2000/svg" viewBox="0 0 11.86 14.58"><defs><style>.cls-1{fill:#fff;}</style></defs><g id="Layer_2" data-name="Layer 2"><g id="Isolation_Mode" data-name="Isolation Mode"><path class="cls-1" d="M9.91,7.75A3.32,3.32,0,0,1,11.48,5,3.36,3.36,0,0,0,8.81,3.53C7.69,3.41,6.6,4.2,6,4.2s-1.47-.66-2.42-.64a3.58,3.58,0,0,0-3,1.83c-1.29,2.24-.32,5.53.92,7.34.62.89,1.34,1.88,2.29,1.85S5.1,14,6.22,14s1.43.59,2.4.57,1.63-.9,2.22-1.79a7.32,7.32,0,0,0,1-2.07A3.22,3.22,0,0,1,9.91,7.75"/><path class="cls-1" d="M8.08,2.34A3.25,3.25,0,0,0,8.82,0,3.3,3.3,0,0,0,6.68,1.11a3.14,3.14,0,0,0-.77,2.25,2.76,2.76,0,0,0,2.17-1"/></g></g></svg>