<svg xmlns="http://www.w3.org/2000/svg" viewBox="0 0 57.6 57.6"><defs><style>.cls-1{fill:#b4a28d;opacity:0.2;}.cls-2,.cls-4{fill:none;}.cls-2,.cls-3,.cls-4,.cls-5{stroke:#584c39;stroke-linecap:round;stroke-linejoin:round;}.cls-2{stroke-width:1.38px;}.cls-3{fill:#c6993c;}.cls-3,.cls-4,.cls-5{stroke-width:0.35px;}.cls-5{fill:#fff;}</style></defs><g id="Layer_2" data-name="Layer 2"><g id="YOUR_ARTWORKS_HERE" data-name="YOUR ARTWORKS HERE"><circle class="cls-1" cx="28.8" cy="28.8" r="28.8"/><path class="cls-2" d="M35.25,17.64v-3a.4.4,0,0,1,.4-.4H38.2a.39.39,0,0,1,.39.4v3A18,18,0,0,1,39,30.88a15.23,15.23,0,0,1-10.38,9.23,20.64,20.64,0,0,1-13.31-1.18h-3.1a.39.39,0,0,1-.4-.39V36a.4.4,0,0,1,.4-.39h2.84S33.6,34.49,35.25,17.64Z"/><path class="cls-3" d="M35.25,17.64v-3a.4.4,0,0,1,.4-.4H38.2a.39.39,0,0,1,.39.4v3A18,18,0,0,1,39,30.88a15.23,15.23,0,0,1-10.38,9.23,20.64,20.64,0,0,1-13.31-1.18h-3.1a.39.39,0,0,1-.4-.39V36a.4.4,0,0,1,.4-.39h2.84S33.6,34.49,35.25,17.64Z"/><line class="cls-4" x1="11.81" y1="37.38" x2="15.28" y2="37.38"/><path class="cls-4" d="M15.28,37.38s10.9,2.16,17.12-5a17.62,17.62,0,0,0,4.44-14.69l.07-3.51"/><line class="cls-4" x1="36.89" y1="15.13" x2="37.72" y2="14.28"/><line class="cls-4" x1="36.89" y1="15.95" x2="38.53" y2="14.24"/><line class="cls-4" x1="36.89" y1="16.73" x2="38.6" y2="14.95"/><line class="cls-4" x1="36.94" y1="17.45" x2="38.58" y2="15.74"/><line class="cls-4" x1="37.52" y1="17.63" x2="38.53" y2="16.57"/><line class="cls-4" x1="12.86" y1="38.9" x2="11.88" y2="37.97"/><line class="cls-4" x1="13.68" y1="38.9" x2="12.11" y2="37.42"/><line class="cls-4" x1="14.47" y1="38.9" x2="12.86" y2="37.38"/><line class="cls-4" x1="15.2" y1="38.86" x2="13.64" y2="37.38"/><line class="cls-4" x1="15.28" y1="38.19" x2="14.47" y2="37.42"/><path class="cls-5" d="M35.65,14.2a.4.4,0,0,0-.4.4v3c-1.65,16.85-20.2,17.94-20.2,17.94H12.21a.4.4,0,0,0-.4.4v1.4h3.47c.18,0,11,2.1,17.12-5a17.62,17.62,0,0,0,4.44-14.69l.07-3.51Z"/><line class="cls-4" x1="35.25" y1="17.64" x2="38.59" y2="17.64"/><line class="cls-4" x1="15.31" y1="38.93" x2="15.31" y2="35.58"/></g></g></svg>