<svg xmlns="http://www.w3.org/2000/svg" viewBox="0 0 7.52 7.52"><defs><style>.cls-1{fill:#11131c;}.cls-2{fill:#fff;}</style></defs><g id="Layer_2" data-name="Layer 2"><g id="Isolation_Mode" data-name="Isolation Mode"><circle class="cls-1" cx="3.76" cy="3.76" r="3.36"/><path class="cls-2" d="M3.76.63A3.14,3.14,0,1,1,.63,3.76,3.14,3.14,0,0,1,3.76.63Zm0-.63A3.76,3.76,0,1,0,7.52,3.76,3.76,3.76,0,0,0,3.76,0ZM3.13,3.13H2.51v.63h.62V5.64h.94V3.76h.57l.06-.63H4.07V2.87c0-.15,0-.21.18-.21H4.7V1.88H4c-.57,0-.82.25-.82.72Z"/></g></g></svg>