<?xml version="1.0" encoding="UTF-8"?><svg xmlns="http://www.w3.org/2000/svg" viewBox="0 0 48 48"><g id="a"/><g id="b"><g id="c"><g transform="matrix(2,0,0,2,0,0)"><path d="M45,48h-12c-.55,0-1-.45-1-1V29c0-.55,.45-1,1-1h5.12l.76-6h-5.88c-.55,0-1-.45-1-1v-2.63c0-2.41,1.96-4.37,4.37-4.37h3.63v-6h-3.63c-5.71,0-10.37,4.66-10.37,10.37v2.63c0,.55-.45,1-1,1h-5v6h5c.55,0,1,.45,1,1v18c0,.55-.45,1-1,1H3c-1.65,0-3-1.35-3-3V3C0,1.35,1.35,0,3,0H45c1.65,0,3,1.35,3,3V45c0,1.65-1.35,3-3,3Zm-11-2h11c.55,0,1-.45,1-1V3c0-.55-.45-1-1-1H3c-.55,0-1,.45-1,1V45c0,.55,.45,1,1,1H24V30h-4c-1.1,0-2-.9-2-2v-6c0-1.1,.9-2,2-2h4v-1.63c0-6.81,5.56-12.36,12.37-12.37h3.63c1.1,0,2,.9,2,2v6c0,1.1-.9,2-2,2h-3.63c-1.31,0-2.37,1.06-2.37,2.37v1.63h4.87c.08,0,.17,0,.25,.02,1.1,.14,1.88,1.14,1.74,2.23l-.75,6c-.13,1-.98,1.75-1.98,1.75h-4.13v16Z"/></g></g></g></svg>