<svg xmlns="http://www.w3.org/2000/svg" viewBox="0 0 13.31 14.86"><defs><style>.cls-1{fill:#fff;}</style></defs><g id="Layer_2" data-name="Layer 2"><g id="Isolation_Mode" data-name="Isolation Mode"><path class="cls-1" d="M13.31,7.43c0-.2-.17-.41-.46-.58L10.11,5.3,8,7.43l2.14,2.14L12.85,8C13.14,7.84,13.31,7.63,13.31,7.43Z"/><path class="cls-1" d="M0,.73v13.4a1.26,1.26,0,0,0,0,.28l7-7-7-7A1.1,1.1,0,0,0,0,.73Z"/><path class="cls-1" d="M9.44,4.92,1,.14A1.42,1.42,0,0,0,.63,0L7.49,6.86Z"/><path class="cls-1" d="M9.44,10,7.49,8,.63,14.86a1.44,1.44,0,0,0,.4-.13Z"/></g></g></svg>