<?xml version="1.0" encoding="UTF-8"?><svg xmlns="http://www.w3.org/2000/svg" viewBox="0 0 48 48"><g id="a"/><g id="b"><g id="c"><g transform="matrix(2,0,0,2,0,0)"><path d="M35,48H13c-7.17,0-13-5.83-13-13V13C0,5.83,5.83,0,13,0h22c7.17,0,13,5.83,13,13v22c0,7.17-5.83,13-13,13ZM13,2C6.93,2,2,6.93,2,13v22c0,6.07,4.93,11,11,11h22c6.07,0,11-4.93,11-11V13c0-6.07-4.93-11-11-11H13Z"/><path d="M24,38c-6.62,0-12-5.38-12-12s5.38-12,12-12,12,5.38,12,12-5.38,12-12,12Zm0-22c-5.51,0-10,4.49-10,10s4.49,10,10,10,10-4.49,10-10-4.49-10-10-10Z"/><path d="M24,34c-4.41,0-8-3.59-8-8s3.59-8,8-8,8,3.59,8,8-3.59,8-8,8Zm0-14c-3.31,0-6,2.69-6,6s2.69,6,6,6,6-2.69,6-6-2.69-6-6-6Z"/><path d="M14.2,22H1c-.55,0-1-.45-1-1s.45-1,1-1H14.2c.55,0,1,.45,1,1s-.45,1-1,1Z"/><path d="M47,22h-13.2c-.55,0-1-.45-1-1s.45-1,1-1h13.2c.55,0,1,.45,1,1s-.45,1-1,1Z"/><path d="M39,14h-2c-1.65,0-3-1.35-3-3v-2c0-1.65,1.35-3,3-3h2c1.65,0,3,1.35,3,3v2c0,1.65-1.35,3-3,3Zm-2-6c-.55,0-1,.45-1,1v2c0,.55,.45,1,1,1h2c.55,0,1-.45,1-1v-2c0-.55-.45-1-1-1h-2Z"/><path d="M9,12c-.55,0-1-.45-1-1V1.68c0-.55,.45-1,1-1s1,.45,1,1V11c0,.55-.45,1-1,1Z"/><path d="M13,12c-.55,0-1-.45-1-1V1c0-.55,.45-1,1-1s1,.45,1,1V11c0,.55-.45,1-1,1Z"/><path d="M17,12c-.55,0-1-.45-1-1V1c0-.55,.45-1,1-1s1,.45,1,1V11c0,.55-.45,1-1,1Z"/><path d="M21,12c-.55,0-1-.45-1-1V1c0-.55,.45-1,1-1s1,.45,1,1V11c0,.55-.45,1-1,1Z"/></g></g></g></svg>