<svg xmlns="http://www.w3.org/2000/svg" viewBox="0 0 44.22 44.22"><defs><style>.cls-1{fill:#574b38;}</style></defs><g id="Layer_2" data-name="Layer 2"><g id="Layer_1-2" data-name="Layer 1"><path class="cls-1" d="M22.11,4c5.9,0,6.6,0,8.94.12,6,.28,8.79,3.12,9.06,9.07.11,2.33.13,3,.13,8.93s0,6.61-.13,8.94C39.84,37,37,39.84,31.05,40.11c-2.34.11-3,.13-8.94.13s-6.6,0-8.93-.13c-6-.27-8.79-3.13-9.07-9.06C4,28.71,4,28,4,22.11s0-6.6.13-8.93c.28-5.95,3.07-8.79,9.07-9.07C15.51,4,16.21,4,22.11,4Zm0-4c-6,0-6.76,0-9.11.13C5,.5.5,5,.13,13,0,15.35,0,16.11,0,22.11s0,6.76.13,9.12C.5,39.26,5,43.72,13,44.09c2.36.11,3.12.13,9.12.13s6.76,0,9.12-.13c8-.37,12.49-4.83,12.86-12.86.11-2.36.13-3.11.13-9.12s0-6.76-.13-9.11C43.73,5,39.27.5,31.23.13,28.87,0,28.12,0,22.11,0Zm0,10.76A11.36,11.36,0,1,0,33.46,22.11,11.35,11.35,0,0,0,22.11,10.76Zm0,18.72a7.37,7.37,0,1,1,7.37-7.37A7.37,7.37,0,0,1,22.11,29.48ZM33.91,7.66a2.65,2.65,0,1,0,2.66,2.65A2.65,2.65,0,0,0,33.91,7.66Z"/></g></g></svg>