<svg xmlns="http://www.w3.org/2000/svg" viewBox="0 0 7.52 7.52"><defs><style>.cls-1{fill:#11131c;}.cls-2{fill:#fff;}</style></defs><g id="Layer_2" data-name="Layer 2"><g id="Isolation_Mode" data-name="Isolation Mode"><polygon class="cls-1" points="0.33 3.5 0.76 0.89 2.17 0.36 5.99 0.47 7.16 1.76 6.96 6.22 6.02 7.17 1.34 7.17 0.25 5.77 0.33 3.5"/><path class="cls-2" d="M3.76.68c1,0,1.12,0,1.52,0A1.41,1.41,0,0,1,6.82,2.24c0,.4,0,.52,0,1.52s0,1.12,0,1.52A1.41,1.41,0,0,1,5.28,6.82c-.4,0-.51,0-1.52,0s-1.12,0-1.52,0A1.41,1.41,0,0,1,.7,5.28c0-.4,0-.51,0-1.52s0-1.12,0-1.52A1.41,1.41,0,0,1,2.24.7C2.64.68,2.76.68,3.76.68Zm0-.68c-1,0-1.15,0-1.55,0A2.08,2.08,0,0,0,0,2.21c0,.4,0,.53,0,1.55S0,4.91,0,5.31A2.08,2.08,0,0,0,2.21,7.5c.4,0,.53,0,1.55,0s1.15,0,1.55,0A2.07,2.07,0,0,0,7.5,5.31c0-.4,0-.53,0-1.55s0-1.15,0-1.55A2.08,2.08,0,0,0,5.31,0C4.91,0,4.78,0,3.76,0Zm0,1.83A1.93,1.93,0,1,0,5.69,3.76,1.92,1.92,0,0,0,3.76,1.83ZM3.76,5A1.25,1.25,0,1,1,5,3.76,1.25,1.25,0,0,1,3.76,5Zm2-3.71a.45.45,0,1,0,.45.45A.45.45,0,0,0,5.77,1.3Z"/></g></g></svg>