<svg xmlns="http://www.w3.org/2000/svg" viewBox="0 0 44.22 44.22"><defs><style>.cls-1{fill:#574b38;}</style></defs><g id="Layer_2" data-name="Layer 2"><g id="Layer_1-2" data-name="Layer 1"><path class="cls-1" d="M4,4H40.22V40.22H4V4M3.84,0A3.7,3.7,0,0,0,3.1.06,3.82,3.82,0,0,0,.64,1.56,3.54,3.54,0,0,0,0,3.77V40.13a4.9,4.9,0,0,0,.06.77A3.94,3.94,0,0,0,3.9,44.22H40.6a3.44,3.44,0,0,0,2.89-1.51,3.86,3.86,0,0,0,.73-2.33V3.82c0-.19,0-.38,0-.58a3.28,3.28,0,0,0-.89-2.14A3.56,3.56,0,0,0,40.65,0Z"/><path class="cls-1" d="M34.57,23.14a8.43,8.43,0,0,0-.89-2.86,5.61,5.61,0,0,0-3.28-2.74,7.25,7.25,0,0,0-2.91-.29,5.4,5.4,0,0,0-2.85,1.13A5.5,5.5,0,0,0,24,19v-.57c0-.57-.22-.8-.86-.8H18.67a.74.74,0,0,0-.61.18.86.86,0,0,0-.18.67V34a.63.63,0,0,0,.64.65H23.4A.62.62,0,0,0,24,34V25a3.34,3.34,0,0,1,.06-.79,2.44,2.44,0,0,1,2.15-1.9,2,2,0,0,1,1.47.41,2.06,2.06,0,0,1,.59.91,4.87,4.87,0,0,1,.27,1.78V33.8c0,.61.23.84.84.84h4.42c.63,0,.86-.23.86-.86V25.13A15.24,15.24,0,0,0,34.57,23.14Z"/><path class="cls-1" d="M14.9,17.58H10.38a.79.79,0,0,0-.61.18.86.86,0,0,0-.18.66V33.79c0,.63.22.85.86.85h4.37c.66,0,.88-.22.88-.87V18.38C15.7,17.8,15.47,17.58,14.9,17.58Z"/><path class="cls-1" d="M13.74,9.68a3.59,3.59,0,0,0-1.87,0A3,3,0,0,0,10,11.09a3.46,3.46,0,0,0-.37,2.52,3.05,3.05,0,0,0,1,1.67,3.14,3.14,0,0,0,2.2.79h.09a2.9,2.9,0,0,0,.59-.07,2.93,2.93,0,0,0,2-1.25,3.36,3.36,0,0,0,.21-3.5A2.84,2.84,0,0,0,13.74,9.68Z"/></g></g></svg>