<svg xmlns="http://www.w3.org/2000/svg" viewBox="0 0 60 76"><defs><style>.cls-1{fill:#c83;fill-rule:evenodd;}.cls-2{fill:#f8f6ef;}.cls-3{fill:#10131c;}</style></defs><g id="Layer_2" data-name="Layer 2"><g id="Layer_1-2" data-name="Layer 1"><path class="cls-1" d="M59,37.63a20.61,20.61,0,0,0,1-6c0-.31,0-.62,0-.93s0-.49,0-.74a29.79,29.79,0,0,0-1.16-8.28A27.53,27.53,0,0,0,52.21,9.28,30.64,30.64,0,0,0,37.34.9,30.38,30.38,0,0,0,22.66.9,30.64,30.64,0,0,0,7.79,9.28a27.17,27.17,0,0,0-7.25,15A29.57,29.57,0,0,0,0,30c0,.23,0,.47,0,.7s0,.64,0,1a20.61,20.61,0,0,0,1,6A29.87,29.87,0,0,0,5.3,47C13.92,61.61,30,76,30,76S46.08,61.61,54.7,47A29.87,29.87,0,0,0,59,37.63Z"/><path class="cls-2" d="M12,23.71a1.48,1.48,0,0,0,1.36.89h.42a.77.77,0,0,1,.69.46L24.79,49.24a1.27,1.27,0,0,0,1.15.76h7.3a1.27,1.27,0,0,0,1.15-.76L47.08,19.73a1.23,1.23,0,0,0-.67-1.64,1.17,1.17,0,0,0-.48-.09H32.38a.93.93,0,0,0-.94.94,1.06,1.06,0,0,0,.06.37l1.9,4.44a1.48,1.48,0,0,0,1.36.9h.09a.76.76,0,0,1,.76.76.69.69,0,0,1-.07.3L31.09,36.13a1.26,1.26,0,0,1-1.64.67,1.29,1.29,0,0,1-.67-.67L21.54,18.78A1.27,1.27,0,0,0,20.38,18H11a.93.93,0,0,0-.95.94.87.87,0,0,0,.07.37Z"/><path class="cls-3" d="M42.45,49.83a3.38,3.38,0,1,0-3.38-3.38A3.38,3.38,0,0,0,42.45,49.83Z"/></g></g></svg>