<svg xmlns="http://www.w3.org/2000/svg" viewBox="0 0 57.6 57.6"><defs><style>.cls-1{fill:#b4a28d;opacity:0.2;}.cls-2{fill:#fff;}.cls-3{fill:#c6993c;}.cls-4{fill:#584c39;}</style></defs><g id="Layer_2" data-name="Layer 2"><g id="YOUR_ARTWORKS_HERE" data-name="YOUR ARTWORKS HERE"><circle class="cls-1" cx="28.8" cy="28.8" r="28.8"/><rect class="cls-2" x="15.82" y="16.07" width="25.71" height="25.71" rx="4.21"/><rect class="cls-3" x="23.05" y="23.3" width="2.41" height="2.41"/><rect class="cls-3" x="23.05" y="32.14" width="2.41" height="2.41"/><rect class="cls-3" x="31.89" y="23.3" width="2.41" height="2.41"/><path class="cls-4" d="M25.36,26.26H22.74a.66.66,0,0,1-.66-.65V23a.67.67,0,0,1,.66-.66h2.62A.67.67,0,0,1,26,23v2.62A.66.66,0,0,1,25.36,26.26Zm-2-1.31h1.32V23.64H23.39Z"/><path class="cls-4" d="M25.36,35.44H22.74a.67.67,0,0,1-.66-.66V32.16a.66.66,0,0,1,.66-.65h2.62a.66.66,0,0,1,.66.65v2.62A.67.67,0,0,1,25.36,35.44Zm-2-1.31h1.32V32.82H23.39Z"/><path class="cls-4" d="M34.53,26.26H31.91a.65.65,0,0,1-.65-.65V23a.66.66,0,0,1,.65-.66h2.62a.66.66,0,0,1,.66.66v2.62A.65.65,0,0,1,34.53,26.26Zm-2-1.31h1.31V23.64H32.57Z"/><path class="cls-4" d="M28,31.51a.66.66,0,0,1-.65-.66V30.2H22.74a.67.67,0,0,1-.66-.66.66.66,0,0,1,.66-.65H28a.66.66,0,0,1,.66.65v1.31A.67.67,0,0,1,28,31.51Z"/><path class="cls-4" d="M34.53,35.44H30.6a.66.66,0,0,1-.65-.66V30.85a.65.65,0,0,1,.65-.65.66.66,0,0,1,.66.65v3.28h2.62V31.51h-.66a.66.66,0,0,1-.65-.66.65.65,0,0,1,.65-.65h1.31a.65.65,0,0,1,.66.65v3.93A.66.66,0,0,1,34.53,35.44Z"/><path class="cls-4" d="M28,35.44a.66.66,0,0,1-.65-.66V33.47a.65.65,0,0,1,.65-.65.66.66,0,0,1,.66.65v1.31A.67.67,0,0,1,28,35.44Z"/><path class="cls-4" d="M29.29,27.57H28a.65.65,0,0,1-.65-.65V23a.66.66,0,0,1,.65-.66.67.67,0,0,1,.66.66v3.27h.65a.67.67,0,0,1,.66.66A.66.66,0,0,1,29.29,27.57Z"/><path class="cls-4" d="M34.53,28.89H31.91a.66.66,0,0,1,0-1.32h2.62a.66.66,0,1,1,0,1.32Z"/><path class="cls-4" d="M18.81,24.3a.66.66,0,0,1-.66-.66V20.37a2,2,0,0,1,2-2h3.27a.66.66,0,0,1,.66.66.65.65,0,0,1-.66.65H20.12a.64.64,0,0,0-.46.19.65.65,0,0,0-.2.47v3.27A.65.65,0,0,1,18.81,24.3Z"/><path class="cls-4" d="M38.47,24.3a.65.65,0,0,1-.66-.66V20.37a.68.68,0,0,0-.19-.47.67.67,0,0,0-.47-.19H33.88a.66.66,0,0,1-.66-.65.67.67,0,0,1,.66-.66h3.27a2,2,0,0,1,1.39.58,1.91,1.91,0,0,1,.58,1.39v3.27A.65.65,0,0,1,38.47,24.3Z"/><path class="cls-4" d="M37.15,39.37H33.88a.66.66,0,1,1,0-1.31h3.27a.67.67,0,0,0,.47-.19.68.68,0,0,0,.19-.47V34.13a.66.66,0,1,1,1.31,0V37.4a2,2,0,0,1-2,2Z"/><path class="cls-4" d="M23.39,39.37H20.12a2,2,0,0,1-2-2V34.13a.67.67,0,0,1,.66-.66.66.66,0,0,1,.65.66V37.4a.65.65,0,0,0,.2.47.64.64,0,0,0,.46.19h3.27a.66.66,0,1,1,0,1.31Z"/></g></g></svg>