<svg xmlns="http://www.w3.org/2000/svg" viewBox="0 0 57.6 57.6"><defs><style>.cls-1{fill:#b4a28d;opacity:0.2;}.cls-2{fill:#584c39;}.cls-3{fill:#fff;}.cls-4{fill:#c6993c;}</style></defs><g id="Layer_2" data-name="Layer 2"><g id="YOUR_ARTWORKS_HERE" data-name="YOUR ARTWORKS HERE"><circle class="cls-1" cx="28.8" cy="28.8" r="28.8"/><path class="cls-2" d="M43,25.75a12.19,12.19,0,0,0-.9-3.6,4.67,4.67,0,0,0-2.77-2.53,5.13,5.13,0,0,0-3.93.25,6.49,6.49,0,0,0-2.85,3.07,16.58,16.58,0,0,0-1.68,7.27,6.57,6.57,0,0,0,0,.9l0,.36a17.14,17.14,0,0,0,.81,4.78l0,0a1.45,1.45,0,0,1-.12,1.25h0l-.12.2a9.17,9.17,0,0,0-1.52,5,5.13,5.13,0,0,0,.33,1.71A4,4,0,0,0,32.87,47a3.66,3.66,0,0,0,1.13.18,4.2,4.2,0,0,0,2.4-.79,6.06,6.06,0,0,0,2-2.48,12,12,0,0,0,1-3.86V40a1.82,1.82,0,0,0,0-.4,1.31,1.31,0,0,1,.43-1.06,3.62,3.62,0,0,0,.64-.81l.06-.09A13.42,13.42,0,0,0,42,34.26,19.87,19.87,0,0,0,43,25.75ZM36.62,43.08a4.1,4.1,0,0,1-1.33,1.71,2.07,2.07,0,0,1-1.83.35,2.1,2.1,0,0,1-1.32-1.37,3.9,3.9,0,0,1-.22-1v-.05a7.33,7.33,0,0,1,1.17-3.89L36.8,40l.6.18A9.61,9.61,0,0,1,36.62,43.08Zm3.5-9.38a11.8,11.8,0,0,1-1.24,2.88l-.05.09s-.13.2-.21.3l-.35-.08-.21-.06-4.33-1-.11,0a.57.57,0,0,1,0-.12,15.17,15.17,0,0,1-.72-4.25c0-.14,0-.28,0-.42a5.16,5.16,0,0,1,0-.66v0a14.77,14.77,0,0,1,1.49-6.47,4.65,4.65,0,0,1,2-2.21,3.25,3.25,0,0,1,2.42-.13A2.72,2.72,0,0,1,40.35,23,10.55,10.55,0,0,1,41.1,26,17.91,17.91,0,0,1,40.12,33.7Z"/><path class="cls-3" d="M42.06,25.88a11.54,11.54,0,0,0-.83-3.33,4,4,0,0,0-5.38-1.83,5.66,5.66,0,0,0-2.42,2.65,15.73,15.73,0,0,0-1.59,6.87,11.84,11.84,0,0,0,.05,1.19,16.52,16.52,0,0,0,.76,4.51,1.1,1.1,0,0,0,.86.79c1.52.35,3,.72,4.53,1.09,1,.24,1.06.2,1.6-.63a.41.41,0,0,1,0-.09A12.92,12.92,0,0,0,41,34,18.9,18.9,0,0,0,42.06,25.88Z"/><path class="cls-3" d="M38,39.34l-4.76-1.42c-.72-.22-.54-.29-.93.34A8.31,8.31,0,0,0,31,42.75a3.89,3.89,0,0,0,.28,1.34,2.93,2.93,0,0,0,4.61,1.49,5.06,5.06,0,0,0,1.64-2.1,11.07,11.07,0,0,0,.91-3.54C38.45,39.47,38.46,39.47,38,39.34Z"/><path class="cls-2" d="M14.34,18.52a12.12,12.12,0,0,1,.9-3.6A4.67,4.67,0,0,1,18,12.39a5.13,5.13,0,0,1,3.93.25,6.51,6.51,0,0,1,2.85,3.06A16.67,16.67,0,0,1,26.48,23a8.53,8.53,0,0,1,0,.9l0,.36A17.06,17.06,0,0,1,25.61,29l0,.06a1.43,1.43,0,0,0,.12,1.24h0l.12.2a9.27,9.27,0,0,1,1.53,5A5.09,5.09,0,0,1,27,37.19a4,4,0,0,1-2.54,2.56,3.65,3.65,0,0,1-1.13.17,4.18,4.18,0,0,1-2.4-.78,6.06,6.06,0,0,1-2-2.48,12.28,12.28,0,0,1-1-3.86v0a1.82,1.82,0,0,1,0-.4,1.31,1.31,0,0,0-.43-1.06,3.87,3.87,0,0,1-.64-.81l-.06-.09A13.42,13.42,0,0,1,15.39,27,20.05,20.05,0,0,1,14.34,18.52Zm6.4,17.33a4,4,0,0,0,1.32,1.71,2.07,2.07,0,0,0,1.83.35,2.12,2.12,0,0,0,1.32-1.37,3.41,3.41,0,0,0,.22-1v0a7.33,7.33,0,0,0-1.17-3.89l-3.71,1.11-.6.18A9.61,9.61,0,0,0,20.74,35.85Zm-3.5-9.38a11.53,11.53,0,0,0,1.23,2.88l.05.08.21.31.35-.08.22-.06,4.32-1,.11,0a.57.57,0,0,0,.05-.12,15.17,15.17,0,0,0,.72-4.25,3,3,0,0,1,0-.42c0-.24,0-.46,0-.66v0a14.77,14.77,0,0,0-1.49-6.47,4.65,4.65,0,0,0-2-2.21,3.2,3.2,0,0,0-2.42-.13A2.72,2.72,0,0,0,17,15.72a10.88,10.88,0,0,0-.75,3.06A17.91,17.91,0,0,0,17.24,26.47Z"/><path class="cls-3" d="M15.29,18.65a11.54,11.54,0,0,1,.83-3.33,4,4,0,0,1,5.38-1.83,5.7,5.7,0,0,1,2.43,2.64A15.94,15.94,0,0,1,25.51,23a9.48,9.48,0,0,1-.05,1.19,16.52,16.52,0,0,1-.76,4.51,1.09,1.09,0,0,1-.86.79c-1.51.35-3,.72-4.53,1.09-.95.24-1.06.2-1.59-.63l-.06-.09a13.09,13.09,0,0,1-1.35-3.12A18.9,18.9,0,0,1,15.29,18.65Z"/><path class="cls-3" d="M19.33,32.11l4.75-1.42c.72-.22.54-.29.93.34a8.31,8.31,0,0,1,1.38,4.48,3.89,3.89,0,0,1-.28,1.35,2.92,2.92,0,0,1-4.6,1.49,5,5,0,0,1-1.65-2.1A11.07,11.07,0,0,1,19,32.71C18.91,32.23,18.89,32.24,19.33,32.11Z"/><path class="cls-4" d="M39.09,33.12H39l-5-1.22a.44.44,0,0,1-.33-.53.45.45,0,0,1,.43-.34h.11l5,1.22a.45.45,0,0,1,.33.54.44.44,0,0,1-.43.33Z"/><path class="cls-4" d="M40.08,30.88H40l-6.27-1.52a.45.45,0,0,1-.27-.2.45.45,0,0,1,0-.34.44.44,0,0,1,.43-.34l.1,0L40.19,30a.45.45,0,0,1,.27.2.45.45,0,0,1,0,.34A.43.43,0,0,1,40.08,30.88Z"/><path class="cls-4" d="M40.27,28.45h-.11L34.35,27a.42.42,0,0,1-.27-.2.43.43,0,0,1,0-.33.44.44,0,0,1,.43-.34h.1l5.81,1.41a.46.46,0,0,1,.33.54.45.45,0,0,1-.43.34Z"/><path class="cls-4" d="M40,25.91h-.1l-4.67-1.14a.45.45,0,0,1-.28-.2.43.43,0,0,1,0-.33.45.45,0,0,1,.43-.34h.11L40.13,25a.44.44,0,0,1,.32.54.44.44,0,0,1-.43.34Z"/><path class="cls-4" d="M18.26,25.89a.45.45,0,0,1-.43-.34.43.43,0,0,1,.05-.33.45.45,0,0,1,.28-.2l5-1.22h.1a.43.43,0,0,1,.43.33.45.45,0,0,1-.05.34.45.45,0,0,1-.27.2l-5,1.22Z"/><path class="cls-4" d="M17.27,23.65a.44.44,0,0,1-.43-.34.43.43,0,0,1,.05-.33.45.45,0,0,1,.27-.2l6.27-1.52.1,0a.43.43,0,0,1,.43.34.44.44,0,0,1-.32.54l-6.27,1.52Z"/><path class="cls-4" d="M17.09,21.22a.43.43,0,0,1-.43-.34.44.44,0,0,1,.32-.54l5.81-1.41h.1a.44.44,0,0,1,.43.34.43.43,0,0,1-.32.53l-5.81,1.42Z"/><path class="cls-4" d="M17.33,18.68a.45.45,0,0,1-.1-.88l4.67-1.13H22a.44.44,0,0,1,.43.33.45.45,0,0,1-.33.54l-4.66,1.14Z"/></g></g></svg>