<svg viewBox="0 0 48 48" xmlns="http://www.w3.org/2000/svg"><g transform="matrix(2,0,0,2,0,0)"><path d="M12.5,23.5H1.5a1,1,0,0,1-1-1V1.5a1,1,0,0,1,1-1h21a1,1,0,0,1,1,1v21a1,1,0,0,1-1,1h-6v-9h2.559a.5.5,0,0,0,.5-.438l.375-3a.5.5,0,0,0-.5-.562H16.5V9.185A1.687,1.687,0,0,1,18.186,7.5H20a.5.5,0,0,0,.5-.5V4a.5.5,0,0,0-.5-.5H18.186A5.692,5.692,0,0,0,12.5,9.185V10.5H10a.5.5,0,0,0-.5.5v3a.5.5,0,0,0,.5.5h2.5v9Z" fill="none" stroke="#000000" stroke-linecap="round" stroke-linejoin="round"></path></g></svg>