<svg xmlns="http://www.w3.org/2000/svg" viewBox="0 0 411.69 166.03"><defs><style>.cls-1{fill:#574b38;}.cls-2{fill:#c79a3d;}</style></defs><g id="Layer_2" data-name="Layer 2"><g id="Layer_1-2" data-name="Layer 1"><path class="cls-1" d="M175.6,141.91h1.62L186,161.53l8.82-19.62h1.62v22.68h-1.8v-18l-8.1,18H185.5l-8.1-18v18h-1.8Z"/><path class="cls-1" d="M231.36,141.91h1.44l8.82,22.68h-2l-2.34-6.12H226.86l-2.34,6.12h-2Zm5.4,14.94-4.68-12.06-4.68,12.06Z"/><path class="cls-1" d="M267.68,141.91h7.92a7.22,7.22,0,0,1,2.74.51,6.54,6.54,0,0,1,2.18,1.38,6.32,6.32,0,0,1,1.42,2.07,6.48,6.48,0,0,1,.5,2.52,5.71,5.71,0,0,1-.84,3.26,7.17,7.17,0,0,1-1.86,1.93,7.74,7.74,0,0,1-2.7,1.11l5.76,9.9h-2.16l-5.4-9.72h-5.76v9.72h-1.8Zm7.92,11.34a5.06,5.06,0,0,0,2-.38,5,5,0,0,0,1.6-1,4.89,4.89,0,0,0,1.07-5.33A4.89,4.89,0,0,0,279.2,145a5,5,0,0,0-1.6-1,5.24,5.24,0,0,0-2-.38h-6.12v9.72Z"/><path class="cls-1" d="M310.31,141.91h1.8v11.16l9.72-11.16h2.34l-9.9,11.16,10.62,11.52h-2.34l-10.44-11.52v11.52h-1.8Z"/><path class="cls-1" d="M351,141.91h13.68v1.62H352.75V152h11v1.62h-11V163H365v1.62H351Z"/><path class="cls-1" d="M397.54,143.53h-7v-1.62h15.83v1.62h-7v21.06h-1.8Z"/><path class="cls-1" d="M129.82,0h-49a3.44,3.44,0,0,0-3.43,3.44,3.5,3.5,0,0,0,.27,1.35l6.87,16.05a5.38,5.38,0,0,0,4.94,3.25h.36a2.75,2.75,0,0,1,2.73,2.75,2.79,2.79,0,0,1-.22,1.06L76.28,65.66a4.54,4.54,0,0,1-8.37,0L41.73,2.79A4.54,4.54,0,0,0,37.54,0H3.44A3.44,3.44,0,0,0,0,3.44,3.33,3.33,0,0,0,.28,4.79L7.14,20.84a5.37,5.37,0,0,0,4.94,3.25h1.51a2.73,2.73,0,0,1,2.51,1.63l37.38,87.54A4.52,4.52,0,0,0,57.65,116H84a4.53,4.53,0,0,0,4.17-2.74L134,6.32A4.54,4.54,0,0,0,131.6.37,4.37,4.37,0,0,0,129.82,0Z"/><path class="cls-1" d="M322.82,30.25a56.53,56.53,0,0,0-49.72.41,44.33,44.33,0,0,0-24,40.28,44,44,0,0,0,25,40.6q11.94,6,27.69,6,23.25,0,36.2-12.43a3,3,0,0,0,.12-4.2v0l-12.7-13.21a3,3,0,0,0-3.93-.3,27.92,27.92,0,0,1-18.68,6.12q-8.62,0-14.34-3.73a17.73,17.73,0,0,1-5.87-6.24,3,3,0,0,1,2.58-4.44h58.11a3,3,0,0,0,3-2.78c.21-3.17.31-4.84.31-5q0-14.43-6.37-24.95A42.24,42.24,0,0,0,322.82,30.25Zm-9.7,32.23h-29a3,3,0,0,1-3-2.95,3,3,0,0,1,.18-1,17.69,17.69,0,0,1,5.11-7.28,20,20,0,0,1,24.36,0,17.6,17.6,0,0,1,5.11,7.28,3,3,0,0,1-1.74,3.8A2.87,2.87,0,0,1,313.12,62.48Z"/><path class="cls-1" d="M411.52,110l-5.8-16.41a3,3,0,0,0-3.81-1.8l-.16.06A17.41,17.41,0,0,1,395,93.14a9,9,0,0,1-6.88-2.73,10.5,10.5,0,0,1-2.57-7.54V56a3,3,0,0,1,3-3h14.58a3,3,0,0,0,3-3V32.47a3,3,0,0,0-3-3H388.51a3,3,0,0,1-3-3V3a3,3,0,0,0-3-3H357a3,3,0,0,0-3,3V83.2q0,17.11,9.45,25.69t27,8.62a54.18,54.18,0,0,0,12.18-1.33,35.64,35.64,0,0,0,7.39-2.53A3,3,0,0,0,411.52,110Z"/><path class="cls-1" d="M244.21,92.48h-1.05a2.73,2.73,0,0,1-2.73-2.73h0V3a3,3,0,0,0-3-3H205.36a3,3,0,0,0-3,3h0v17.6a3,3,0,0,0,3,3h.83a2.73,2.73,0,0,1,2.73,2.73V89.75a2.73,2.73,0,0,1-2.73,2.73h-.82a3,3,0,0,0-3,3h0v17.6a3,3,0,0,0,3,3h38.86a3,3,0,0,0,3-3V95.45A3,3,0,0,0,244.21,92.48Z"/><path class="cls-1" d="M196.88,47a31.28,31.28,0,0,0-8.52-12.13q-11.78-10.2-34.15-10.19a84.69,84.69,0,0,0-12.62.94,6.46,6.46,0,0,0-5,3.85L130.16,44.8A4.64,4.64,0,0,0,135.9,51l.58-.18a43.44,43.44,0,0,1,13.1-2.08q15.66,0,18.48,10.55a3,3,0,0,1-2.13,3.61,3.14,3.14,0,0,1-.75.09H150.73Q130.38,63,120.6,70t-9.78,19.81a26.1,26.1,0,0,0,3.9,14.16,26.69,26.69,0,0,0,11.52,9.85,37.18,37.18,0,0,0,16.45,3.65c14.56,0,21.54-12.54,25.25-17.55,1.54-2.1,6.81-9.11,13.69-10.88.52-.14.65-.59-1.13-.59-10.89,0-16.57,4.79-19.15,6.51a14.61,14.61,0,0,1-8.23,2.66q-5.48,0-8.62-2.44a8,8,0,0,1-3.15-6.63q0-9.12,13.76-9.12h27.33a17.11,17.11,0,0,0,17.11-17.1h0v-2h0A35.63,35.63,0,0,0,196.88,47Z"/><circle class="cls-2" cx="185.98" cy="103.63" r="12.38"/><path class="cls-1" d="M128.27,157.79a4.64,4.64,0,1,0-4.63-4.64A4.64,4.64,0,0,0,128.27,157.79Zm0-8.27a3.64,3.64,0,1,1-3.63,3.63A3.64,3.64,0,0,1,128.27,149.52Z"/><path class="cls-1" d="M78.75,157.79a4.64,4.64,0,1,0-4.64-4.64A4.64,4.64,0,0,0,78.75,157.79Zm0-8.27a3.64,3.64,0,1,1-3.64,3.63A3.64,3.64,0,0,1,78.75,149.52Z"/><path class="cls-1" d="M153,140.27H54a.5.5,0,0,0-.5.5v24.76a.5.5,0,0,0,.5.5h99a.5.5,0,0,0,.5-.5V140.77A.5.5,0,0,0,153,140.27ZM65.87,153.15A11.89,11.89,0,0,1,54.49,165V141.3A11.88,11.88,0,0,1,65.87,153.15Zm.5,3.52A12.9,12.9,0,0,0,73.78,165H59A12.93,12.93,0,0,0,66.37,156.67Zm.5-3.52A11.88,11.88,0,1,1,78.75,165,11.89,11.89,0,0,1,66.87,153.15Zm24.26,3.52A12.9,12.9,0,0,0,98.54,165H83.72A12.93,12.93,0,0,0,91.13,156.67Zm.5-3.52A11.88,11.88,0,1,1,103.51,165,11.89,11.89,0,0,1,91.63,153.15Zm24.26,3.52A12.9,12.9,0,0,0,123.3,165H108.48A12.93,12.93,0,0,0,115.89,156.67Zm.5-3.52A11.88,11.88,0,1,1,128.27,165,11.89,11.89,0,0,1,116.39,153.15Zm24.26,3.52a12.93,12.93,0,0,0,7.41,8.36H133.24A12.93,12.93,0,0,0,140.65,156.67Zm.5-3.52a11.88,11.88,0,0,1,11.38-11.85V165A11.89,11.89,0,0,1,141.15,153.15Zm6.91-11.88a13,13,0,0,0-7.41,8.37,13,13,0,0,0-7.41-8.37Zm-24.76,0a12.94,12.94,0,0,0-7.41,8.37,13,13,0,0,0-7.41-8.37Zm-24.76,0a12.94,12.94,0,0,0-7.41,8.37,13,13,0,0,0-7.41-8.37Zm-24.76,0a12.94,12.94,0,0,0-7.41,8.37A13,13,0,0,0,59,141.27Z"/></g></g></svg>